<?xml version="1.0" encoding="UTF-8"?><svg id="Layer_2" xmlns="http://www.w3.org/2000/svg" xmlns:xlink="http://www.w3.org/1999/xlink" viewBox="0 0 138.63 155.46"><defs><style>.cls-1{fill:#fff;}.cls-2{stroke-width:.25px;}.cls-2,.cls-3,.cls-4,.cls-5,.cls-6{stroke:#000;stroke-miterlimit:10;}.cls-4{fill:#6931c0;stroke-width:.75px;}.cls-5,.cls-7{fill:#b1fdd9;}.cls-6{fill:#534741;}.cls-8{fill:url(#linear-gradient);}</style><linearGradient id="linear-gradient" x1="69.46" y1="51.81" x2="69.46" y2="-72.41" gradientTransform="matrix(1, 0, 0, 1, 0, 0)" gradientUnits="userSpaceOnUse"><stop offset="0" stop-color="#b1fdd9"/><stop offset=".46" stop-color="#ae83ca"/></linearGradient></defs><g id="ALIEN"><g id="MALE"><g><g><path class="cls-7" d="M44.53,154.46c.83-.95,1.9-2.29,3-4,.97-1.5,4.39-7.08,6-16,.64-3.57,.3-3.81,1-5,2.63-4.45,9.66-4.79,14-5,4.27-.21,11.09-1.12,14,2,1.23,1.32,2,3,2,3,.23,.85,.6,2.25,1,4,.54,2.38,.78,3.87,1,5,1.4,7.36,4.2,13.32,5,15,.42,.87,.78,1.57,1,2"/><path d="M44.53,154.46c4.68-5.98,7.2-13.35,8.33-20.79,.27-1.41,.12-2.45,.57-3.94,.63-1.41,1.58-2.45,2.73-3.29,3.46-2.38,7.49-2.66,11.43-2.93,3.82-.16,7.8-.72,11.67,.17,1.99,.4,4.01,1.79,5.07,3.62,.42,.63,.87,1.49,1.04,1.92,1.15,4.35,1.69,9.06,2.72,13.4,1.06,4.41,2.57,8.69,4.44,12.83-2.33-3.94-4.19-8.15-5.54-12.53-1.32-4.33-2.01-8.91-3.3-13.24l.12,.25c-.13-.22-.35-.68-.48-.89-2.16-4.4-7.5-4.01-11.81-3.78-2.49,.19-5.06,.21-7.53,.51-3.43,.46-7.3,1.39-8.94,4.57-.29,.94-.37,2.5-.61,3.57-1.43,7.51-4.52,15.02-9.9,20.53h0Z"/></g><path class="cls-5" d="M71.03,138.96c-6,0-8,0-10.5-.5-5.95-1.19-7.32-1.6-8-2-2.63-1.56-3.97-3.72-6-7-1.97-3.18-1.61-3.61-4-8-1.58-2.9-2.95-4.94-5-8-2.23-3.32-3.34-4.98-5-7-1.02-1.24-2.51-2.95-8-8-3.78-3.48-4.66-3.97-9-8-3.5-3.25-4.43-4.31-5-5-2.3-2.77-3.6-5.18-5-8-1.04-2.1-2.85-5.79-4-11-.46-2.1-1.19-5.5-1-10,0-.19,.17-3.63,1-7,2.31-9.35,9.39-16.44,11-18,7.59-7.35,15.67-9.83,26-13,6.2-1.9,16.29-4.92,30-5,15.59-.09,26.48,3.67,39,8,10.64,3.68,15.83,6.77,20,11,1.53,1.55,5.41,5.56,8,12,.34,.83,1.34,3.44,2,7,.28,1.54,1.2,7.02,0,14-.4,2.35-1.86,9.64-7,17-2.16,3.09-4.37,5.34-6,7-2.97,3.02-4.17,3.68-8,7-4.28,3.71-8.05,6.98-12,12-1.61,2.04-3.92,4.98-6,9-.46,.88-1.41,2.8-3,6-1.75,3.52-1.71,3.47-2,4-1.57,2.84-2.84,5.15-5,7-1.85,1.58-3.61,2.19-6,3-2.77,.93-5.5,1.5-11.5,1.5Z"/><g><path class="cls-8" d="M26.53,55.46c-3.54-3.56-8.04-8.84-12-16-5.81-10.51-6.83-16.4-7-18-.3-2.88-.17-5.31,0-7,4.97,1.2,10.63,2.03,16.87,2.06,.57,0,1.7,.17,3.13-.06,2.54-.39,4.31-1.56,5-2,3.26-2.12,6.82-3.77,10-6C49.96,3.24,58.61,1.91,61.53,1.46c8.84-1.36,15.85,.25,19,1,9.13,2.18,17.21,6.76,20,9,.37,.3,2.66,2.17,6,4,.94,.51,1.4,.77,2,1,2.05,.79,3.99,.71,8,0,3.99-.7,8.14-.75,12-2,.38-.12,1.28-.43,2,0,1.21,.72,1.07,3.03,1,4-.59,8.27-5,15-5,15-3.26,4.98-8.38,12.02-16,20"/><path d="M26.53,55.46c-5.61-5.37-10.25-11.74-13.86-18.62-3.7-6.85-6.83-14.49-5.81-22.45l.07-.76,.76,.17c5.33,1.23,10.78,1.87,16.25,1.87,1.88,.06,3.44,.15,5.18-.48,1.72-.53,3.1-1.62,4.67-2.54,2.39-1.43,4.8-2.68,7.11-4.18,2.26-1.55,4.76-3.16,7.27-4.23,13.98-6.26,29.86-5.33,43.58,1.13,3.38,1.58,6.71,3.29,9.7,5.67,2.09,1.64,4.4,3.15,6.79,4.3,2.39,1.32,4.95,.77,7.62,.4,3.61-.64,7.34-.71,10.88-1.52,1.48-.28,3.22-1.34,4.57,0,1.43,1.68,.83,3.97,.69,5.89-.61,4.17-2.03,8.2-4.05,11.88-4.84,7.84-10.97,14.92-17.4,21.46,5.56-6.12,10.73-12.62,15.19-19.57,2.64-4.2,4.4-9.01,5.04-13.93,.07-1.51,.55-3.56-.41-4.79-.56-.48-1.18-.17-1.92,.05-2.24,.72-4.6,1.05-6.89,1.34-4.6,.25-9.55,2.58-14.01,.36-2.59-1.23-4.94-2.74-7.2-4.49-2.79-2.2-6.07-3.87-9.36-5.38-9.89-4.46-21.01-6.4-31.72-4.23-5.32,.98-10.51,2.75-15.08,5.64-2.96,2.1-6.38,3.9-9.49,5.69-1.6,.94-3.19,2.12-5.03,2.67-1.78,.66-3.95,.64-5.73,.52-5.58-.11-11.14-.87-16.55-2.23l.83-.59c-.21,1.89-.27,3.79-.16,5.69,.4,5.73,2.94,11.08,5.36,16.24,3.36,6.96,7.79,13.39,13.12,19h0Z"/></g><g><ellipse class="cls-1" cx="101.53" cy="78.46" rx="15.5" ry="9.5" transform="translate(-24.39 103.12) rotate(-48.77)"/><path d="M111.75,66.8c-2.65-2.22-6.45-1.72-9.41-.43-5.94,2.72-10.62,8.31-12.34,14.57-2.2,7.79,3.15,12.48,10.59,9.28,5.97-2.53,10.9-7.9,12.82-14.14,.89-3.1,.89-6.94-1.66-9.27h0Zm0,0c2.59,2.3,2.65,6.18,1.8,9.31-1.78,6.43-6.52,12.09-12.63,14.9-8.15,3.65-14.29-1.72-11.75-10.29,1.98-6.42,6.96-11.86,13.11-14.48,2.99-1.25,6.84-1.7,9.47,.56h0Z"/></g><ellipse class="cls-4" cx="95.92" cy="82.46" rx="9.01" ry="5.6" transform="translate(11.81 176.94) rotate(-89.01)"/><g><ellipse class="cls-1" cx="37.53" cy="78.46" rx="9.5" ry="15.5" transform="translate(-42.4 44.18) rotate(-41.23)"/><path d="M27.32,66.8c2.62-2.27,6.48-1.82,9.47-.56,6.14,2.61,11.13,8.06,13.11,14.48,2.54,8.56-3.58,13.95-11.75,10.29-6.11-2.8-10.85-8.46-12.63-14.9-.85-3.13-.79-7.01,1.8-9.31h0Zm0,0c-2.55,2.33-2.55,6.17-1.66,9.27,1.92,6.24,6.84,11.62,12.82,14.15,7.43,3.2,12.79-1.48,10.59-9.28-1.72-6.26-6.4-11.85-12.34-14.57-2.96-1.29-6.76-1.79-9.41,.43h0Z"/></g><ellipse class="cls-4" cx="43.14" cy="82.46" rx="5.6" ry="9.01" transform="translate(-1.42 .76) rotate(-.99)"/><g><ellipse class="cls-1" cx="116.8" cy="58.63" rx="6.74" ry="4.13" transform="translate(-4.27 107.84) rotate(-48.77)"/><path d="M121.25,53.56c-4.37-3.17-11.92,6-8.56,9.77,4.17,2.83,12.28-5.85,8.56-9.77h0Zm0,0c3.89,4.21-4.39,14.15-9.22,10.52-4.23-4.31,4.53-13.82,9.22-10.52h0Z"/></g><ellipse class="cls-4" cx="114.36" cy="60.37" rx="3.92" ry="2.44" transform="translate(52.02 173.68) rotate(-89.01)"/><ellipse class="cls-3" cx="62.53" cy="100.96" rx="2" ry="4.5"/><ellipse class="cls-3" cx="76.53" cy="100.96" rx="2" ry="4.5"/><path class="cls-6" d="M52.53,118.46c3.01,1.5,9.02,4,17,4,3.36,0,9.86-.44,17-4H52.53Z"/><rect class="cls-2" x="42.03" y="78.96" width="2" height="8" transform="translate(125.99 39.93) rotate(90)"/><rect class="cls-2" x="95.03" y="78.96" width="2" height="8" transform="translate(178.99 -13.07) rotate(90)"/><rect class="cls-2" x="113.6" y="58.5" width="1.5" height="3.75" transform="translate(174.72 -53.97) rotate(90)"/><path d="M29.53,29.46c6.97,.26,14.07-.47,20.6-2.99,5.01-1.74,9.12-5.15,13.92-7.38,3.34-1.41,7.24-1.5,10.63-.21,4.87,2.08,9.11,5.29,14.19,6.87,6.59,2.29,13.66,2.97,20.67,2.72-3.49,.33-7.03,.37-10.54,.08-7.04-.57-13.95-2.83-20-6.47-6.64-4.25-12.65-4.11-19.14,.36-8.83,5.97-19.8,8.17-30.32,7.03h0Z"/><path d="M40.55,39.88c5.02,.13,10.12-.42,14.8-2.25,4.83-1.55,8.58-6.03,13.88-6.17,5.29-.08,9.21,4.27,14.1,5.64,4.72,1.66,9.81,2.18,14.86,2.06-2.52,.27-5.06,.32-7.6,.12-5.08-.38-10.1-1.99-14.47-4.62-8.93-5.68-12.57,.93-20.5,3.68-4.84,1.71-10.05,2.08-15.07,1.54h0Z"/><path d="M49.73,50.42c3.45,.02,6.95-.38,10.16-1.67,3.32-1.11,5.92-4.23,9.6-4.29,3.68-.08,6.39,2.94,9.76,3.93,3.23,1.16,6.72,1.55,10.2,1.53-1.73,.22-3.49,.27-5.25,.16-3.52-.23-7.01-1.33-10.04-3.12-5.88-3.88-8.7,.72-14.01,2.51-3.37,1.17-6.97,1.38-10.43,.95h0Z"/><g><ellipse class="cls-1" cx="18.8" cy="58.63" rx="4.13" ry="6.74" transform="translate(-33.98 26.92) rotate(-41.23)"/><path d="M14.36,53.56c4.68-3.3,13.45,6.21,9.22,10.52-4.83,3.63-13.11-6.31-9.22-10.52h0Zm0,0c-3.72,3.92,4.39,12.6,8.56,9.77,3.36-3.76-4.18-12.94-8.56-9.77h0Z"/></g><ellipse class="cls-4" cx="21.24" cy="60.37" rx="2.44" ry="3.92" transform="translate(-1.04 .38) rotate(-.99)"/><rect class="cls-2" x="20.51" y="58.5" width="1.5" height="3.75" transform="translate(81.63 39.12) rotate(90)"/></g></g></g></svg>