<?xml version="1.0" encoding="UTF-8"?><svg id="Layer_2" xmlns="http://www.w3.org/2000/svg" xmlns:xlink="http://www.w3.org/1999/xlink" viewBox="0 0 89.26 280.44"><defs><style>.cls-1{fill:url(#linear-gradient-2);}.cls-2{fill:url(#linear-gradient-3);}.cls-2,.cls-3,.cls-4{stroke:#000;stroke-miterlimit:10;}.cls-3{fill:url(#linear-gradient);}.cls-4{fill:url(#linear-gradient-4);}</style><linearGradient id="linear-gradient" x1="55.37" y1="234.88" x2="64.95" y2="155.05" gradientTransform="matrix(1, 0, 0, 1, 0, 0)" gradientUnits="userSpaceOnUse"><stop offset=".12" stop-color="#b1fdd9"/><stop offset=".26" stop-color="#b0f7d8"/><stop offset=".42" stop-color="#b0e9d6"/><stop offset=".59" stop-color="#afd1d3"/><stop offset=".78" stop-color="#afafcf"/><stop offset=".97" stop-color="#ae85ca"/><stop offset=".98" stop-color="#ae83ca"/></linearGradient><linearGradient id="linear-gradient-2" x1="59.25" y1="55.76" x2="38.36" y2="186.99" gradientTransform="matrix(1, 0, 0, 1, 0, 0)" gradientUnits="userSpaceOnUse"><stop offset=".2" stop-color="#b1fdd9"/><stop offset=".94" stop-color="#ae83ca"/></linearGradient><linearGradient id="linear-gradient-3" x1="31.18" y1="211.43" x2="31.18" y2="272.79" gradientTransform="matrix(1, 0, 0, 1, 0, 0)" gradientUnits="userSpaceOnUse"><stop offset=".66" stop-color="#b1fdd9"/><stop offset=".71" stop-color="#b0f7d8"/><stop offset=".77" stop-color="#b0e9d6"/><stop offset=".83" stop-color="#afd1d3"/><stop offset=".9" stop-color="#afafcf"/><stop offset=".97" stop-color="#ae85ca"/><stop offset=".98" stop-color="#ae83ca"/></linearGradient><linearGradient id="linear-gradient-4" x1="58.29" y1="226.04" x2="51.82" y2="293.73" gradientTransform="translate(-25.39 7.06) rotate(-5.56)" gradientUnits="userSpaceOnUse"><stop offset=".41" stop-color="#b1fdd9"/><stop offset=".46" stop-color="#b0efd7"/><stop offset=".54" stop-color="#afcdd3"/><stop offset=".66" stop-color="#ae95cc"/><stop offset=".7" stop-color="#ae83ca"/></linearGradient></defs><g id="ALIEN"><g id="MALE"><g><path class="cls-3" d="M68,111c2.65-.13,3.81,3.21,11,5,3.13,.78,4.73,.6,6,2,2.54,2.81,.54,8.44,0,10-4.79,13.91-4.98,29.17-10,43-14.87,40.96-22.31,61.45-16,78,1.71,4.47,6.26,14.06,3,17-2.06,1.86-6.3,4.61-14,0-1.24-.74-4.98,1.54-8.07-.03-2.94-1.5-3.6-5.37-3.93-6.97-1.09-5.37,.61-9.94,1-11,3.33-9.17,4.22-21.45,6-46,.15-2.03,.54-7.98,2-16,.35-1.9,.65-3.36,.89-4.45,1.01-4.76,2.3-9.58,7.11-29.55,6.38-26.48,9.6-40.74,15-41Z"/><g><path class="cls-1" d="M62,0c-3.49,2.54-8.24,6.45-13,12-2.45,2.86-8.26,10.08-14,24-2.51,6.08-5.94,15.74-9,34,0,0-4.25,23.36-4,48,.04,3.45,.21,8.67,1,15,.75,5.98,1.62,9.54,2,11,1.55,6,3.26,9.54,4,11,2.43,4.77,4.3,6.42,5,7,1.08,.89,3.06,2.49,6,3,1.55,.27,3.75,.3,7-1,5.85-2.34,9.91-6.91,13-11,3.93-5.2,6.93-10.43,10-17,.94-2.01,4.87-10.52,9-24,3.48-11.37,5.31-20.42,6-24,3.71-19.32,3.98-34.47,4-40,.03-8.51-.47-15.69-1-21"/><path d="M62,0c-16.54,12.01-26.09,31.02-31.2,50.39-3.06,11.86-4.87,23.51-6.18,35.64-1.62,15.89-2.67,32.09-.53,47.94,1.36,9.84,5.87,31.22,18.77,30.14,7.87-1.16,13.54-7.52,17.99-13.82,6.14-8.7,10.41-18.6,14.04-28.59,7.34-20.1,11.84-41.22,13.36-62.58,.78-10.68,.62-21.43-.25-32.12,2.47,21.33,1.23,43.06-2.98,64.16-4.55,21.69-15.06,59.14-34.08,71.91-24.88,14.78-30.03-28.96-29.85-45,.02-22.88,2.67-45.86,8.53-67.99C34.98,30.66,45.04,11.59,62,0h0Z"/></g><path class="cls-2" d="M42.01,251.15c-3.31,2.23-6.3,3.47-8.36,4.18-4.61,1.58-10.69,3.66-15.67,1.04-2.28-1.2-2.7-2.52-5.22-3.13-.44-.11-4.01-.93-7.31,1.04-4.13,2.47-6.15,8.29-4.18,12.54,2.71,5.86,11.41,5.3,12.54,5.22,4.87-.31,5.84-2.63,11.49-4.18,5.89-1.62,8.99-.25,15.67,0,4.9,.18,12.01-.22,20.9-3.13"/><path class="cls-4" d="M54.62,249.28c1.28,1.27,3.19,3.03,5.64,4.85,4.4,3.27,7.12,5.29,10.9,5.69,3.57,.38,7.87-.71,8.2-.8,1.64-.43,2.64-.86,4.1-.4,1.7,.54,3.76,2.22,4.62,4.95,1.13,3.56-.11,7.8-2.16,9.66-2.28,2.07-4.44,.15-12.56-1.48-4.31-.87-7.6-1.11-12.56-1.48-5.11-.38-7.22-1.31-10.38-.34-1.2,.37-1.71,.7-5.89,3.27-9.66,5.95-10.4,6.34-11.78,6.55-1.14,.17-7.74,1.17-10.77-4.35-2.73-4.99-.88-9.76,2.14-11.6,2.29-1.4,3.73-1.74,7.96-1.54,4.1,.2,7.48-2.44,9.86-5.01"/></g></g></g></svg>