<?xml version="1.0" encoding="UTF-8"?><svg id="Layer_2" xmlns="http://www.w3.org/2000/svg" xmlns:xlink="http://www.w3.org/1999/xlink" viewBox="0 0 90.27 280.44"><defs><style>.cls-1{fill:url(#linear-gradient-3);}.cls-1,.cls-2,.cls-3{stroke:#000;stroke-miterlimit:10;}.cls-2{fill:url(#linear-gradient);}.cls-3{fill:url(#linear-gradient-2);}.cls-4{fill:url(#linear-gradient-4);}</style><linearGradient id="linear-gradient" x1="4.65" y1="234.88" x2="14.22" y2="155.05" gradientTransform="translate(39.54) rotate(-180) scale(1 -1)" gradientUnits="userSpaceOnUse"><stop offset=".12" stop-color="#b1fdd9"/><stop offset=".26" stop-color="#b0f7d8"/><stop offset=".42" stop-color="#b0e9d6"/><stop offset=".59" stop-color="#afd1d3"/><stop offset=".78" stop-color="#afafcf"/><stop offset=".97" stop-color="#ae85ca"/><stop offset=".98" stop-color="#ae83ca"/></linearGradient><linearGradient id="linear-gradient-2" x1="-19.55" y1="211.43" x2="-19.55" y2="272.79" gradientTransform="translate(39.54) rotate(-180) scale(1 -1)" gradientUnits="userSpaceOnUse"><stop offset=".66" stop-color="#b1fdd9"/><stop offset=".71" stop-color="#b0f7d8"/><stop offset=".77" stop-color="#b0e9d6"/><stop offset=".83" stop-color="#afd1d3"/><stop offset=".9" stop-color="#afafcf"/><stop offset=".97" stop-color="#ae85ca"/><stop offset=".98" stop-color="#ae83ca"/></linearGradient><linearGradient id="linear-gradient-3" x1="7.38" y1="229.81" x2=".91" y2="297.51" gradientTransform="translate(65.36 -1.63) rotate(-174.44) scale(1 -1)" gradientUnits="userSpaceOnUse"><stop offset=".41" stop-color="#b1fdd9"/><stop offset=".46" stop-color="#b0efd7"/><stop offset=".54" stop-color="#afcdd3"/><stop offset=".66" stop-color="#ae95cc"/><stop offset=".7" stop-color="#ae83ca"/></linearGradient><linearGradient id="linear-gradient-4" x1="29.39" y1="54.91" x2="53.49" y2="187.39" gradientTransform="matrix(1, 0, 0, 1, 0, 0)" gradientUnits="userSpaceOnUse"><stop offset=".2" stop-color="#b1fdd9"/><stop offset=".98" stop-color="#ae83ca"/></linearGradient></defs><g id="ALIEN"><g id="MALE"><g><path class="cls-2" d="M22.27,111c-2.65-.13-3.81,3.21-11,5-3.13,.78-4.73,.6-6,2-2.54,2.81-.54,8.44,0,10,4.79,13.91,4.98,29.17,10,43,14.87,40.96,22.31,61.45,16,78-1.71,4.47-6.26,14.06-3,17,2.06,1.86,6.3,4.61,14,0,1.24-.74,4.98,1.54,8.07-.03,2.94-1.5,3.6-5.37,3.93-6.97,1.09-5.37-.61-9.94-1-11-3.33-9.17-4.22-21.45-6-46-.15-2.03-.54-7.98-2-16-.35-1.9-.65-3.36-.89-4.45-1.01-4.76-2.3-9.58-7.11-29.55-6.38-26.48-9.6-40.74-15-41Z"/><path class="cls-3" d="M48.26,251.15c3.31,2.23,6.3,3.47,8.36,4.18,4.61,1.58,10.69,3.66,15.67,1.04,2.28-1.2,2.7-2.52,5.22-3.13,.44-.11,4.01-.93,7.31,1.04,4.13,2.47,6.15,8.29,4.18,12.54-2.71,5.86-11.41,5.3-12.54,5.22-4.87-.31-5.84-2.63-11.49-4.18-5.89-1.62-8.99-.25-15.67,0-4.9,.18-12.01-.22-20.9-3.13"/><path class="cls-1" d="M35.66,249.28c-1.28,1.27-3.19,3.03-5.64,4.85-4.4,3.27-7.12,5.29-10.9,5.69-3.57,.38-7.87-.71-8.2-.8-1.64-.43-2.64-.86-4.1-.4-1.7,.54-3.76,2.22-4.62,4.95-1.13,3.56,.11,7.8,2.16,9.66,2.28,2.07,4.44,.15,12.56-1.48,4.31-.87,7.6-1.11,12.56-1.48,5.11-.38,7.22-1.31,10.38-.34,1.2,.37,1.71,.7,5.89,3.27,9.66,5.95,10.4,6.34,11.78,6.55,1.14,.17,7.74,1.17,10.77-4.35,2.73-4.99,.88-9.76-2.14-11.6-2.29-1.4-3.73-1.74-7.96-1.54-4.1,.2-7.48-2.44-9.86-5.01"/><g><path class="cls-4" d="M27.26,0c3.49,2.54,8.24,6.45,13,12,2.45,2.86,8.26,10.08,14,24,2.51,6.08,5.94,15.74,9,34,0,0,4.25,23.36,4,48-.04,3.45-.21,8.67-1,15-.75,5.98-1.62,9.54-2,11-1.55,6-3.26,9.54-4,11-2.43,4.77-4.3,6.42-5,7-1.08,.89-3.06,2.49-6,3-1.55,.27-3.75,.3-7-1-5.85-2.34-9.91-6.91-13-11-3.93-5.2-6.93-10.43-10-17-.94-2.01-4.87-10.52-9-24-3.48-11.37-5.31-20.42-6-24C.55,68.68,.28,53.53,.26,48c-.03-8.51,.47-15.69,1-21"/><path d="M27.26,0c16.96,11.59,27.02,30.65,32.38,50.07,5.86,22.14,8.51,45.11,8.53,67.99,.18,16.06-4.97,59.79-29.85,45-19.01-12.75-29.53-50.22-34.08-71.91C.03,70.06-1.21,48.33,1.26,27c-.88,10.69-1.03,21.44-.25,32.12,1.52,21.35,6.02,42.48,13.36,62.58,3.63,9.99,7.9,19.89,14.04,28.59,4.44,6.3,10.12,12.66,17.99,13.82,12.93,1.07,17.41-20.32,18.77-30.14,2.13-15.85,1.08-32.05-.53-47.94-1.32-12.12-3.12-23.78-6.18-35.64C53.36,31.03,43.8,12,27.26,0h0Z"/></g></g></g></g></svg>