<?xml version="1.0" encoding="UTF-8"?><svg id="Layer_2" xmlns="http://www.w3.org/2000/svg" xmlns:xlink="http://www.w3.org/1999/xlink" viewBox="0 0 202.53 286.65"><defs><style>.cls-1{fill:url(#linear-gradient-2);}.cls-2{fill:url(#linear-gradient-6);}.cls-3{fill:url(#linear-gradient-10);}.cls-4{stroke:#000;stroke-miterlimit:10;}.cls-4,.cls-5{fill:#b1fdd9;}.cls-6{fill:url(#linear-gradient-5);}.cls-7{fill:url(#linear-gradient-7);}.cls-8{fill:url(#linear-gradient-9);}.cls-9{fill:url(#linear-gradient-3);}.cls-10{fill:url(#linear-gradient);}.cls-11{fill:url(#linear-gradient-4);}.cls-12{fill:url(#linear-gradient-8);}</style><linearGradient id="linear-gradient" x1="29.25" y1="82.3" x2="28.9" y2="260.56" gradientTransform="matrix(1, 0, 0, 1, 0, 0)" gradientUnits="userSpaceOnUse"><stop offset=".2" stop-color="#b1fdd9"/><stop offset=".63" stop-color="#ae83ca"/></linearGradient><linearGradient id="linear-gradient-2" x1="173.03" y1="85.24" x2="168.47" y2="225.53" gradientTransform="matrix(1, 0, 0, 1, 0, 0)" gradientUnits="userSpaceOnUse"><stop offset="0" stop-color="#b1fdd9"/><stop offset=".12" stop-color="#b0f2d7"/><stop offset=".34" stop-color="#b0d7d4"/><stop offset=".61" stop-color="#aeaace"/><stop offset=".79" stop-color="#ae8acb"/><stop offset="1" stop-color="#ae83ca"/></linearGradient><linearGradient id="linear-gradient-3" x1="11.45" y1="239" x2="29.84" y2="239" gradientTransform="translate(-44.23 8.82) rotate(-10.85)" gradientUnits="userSpaceOnUse"><stop offset=".2" stop-color="#675887"/><stop offset=".64" stop-color="#9a77b7"/><stop offset=".8" stop-color="#ae83ca"/></linearGradient><linearGradient id="linear-gradient-4" x1="7.03" y1="246.88" x2="29.07" y2="246.88" gradientTransform="translate(-45.91 7.09) rotate(-10.85)" xlink:href="#linear-gradient-3"/><linearGradient id="linear-gradient-5" x1="17.58" y1="240.14" x2="19" y2="211.69" gradientTransform="matrix(1, 0, 0, 1, 0, 0)" gradientUnits="userSpaceOnUse"><stop offset=".2" stop-color="#675887"/><stop offset=".64" stop-color="#9a77b7"/><stop offset=".79" stop-color="#ae83ca"/></linearGradient><linearGradient id="linear-gradient-6" x1="25.18" y1="242.32" x2="23.79" y2="207.25" gradientTransform="matrix(1, 0, 0, 1, 0, 0)" gradientUnits="userSpaceOnUse"><stop offset=".2" stop-color="#675887"/><stop offset=".39" stop-color="#7d659c"/><stop offset=".72" stop-color="#ae83ca"/></linearGradient><linearGradient id="linear-gradient-7" x1="-150.6" y1="207.95" x2="-132.21" y2="207.95" gradientTransform="translate(82.02 8.82) rotate(-169.15) scale(1 -1)" xlink:href="#linear-gradient-3"/><linearGradient id="linear-gradient-8" x1="-155.02" y1="215.82" x2="-132.98" y2="215.82" gradientTransform="translate(83.7 7.09) rotate(-169.15) scale(1 -1)" xlink:href="#linear-gradient-3"/><linearGradient id="linear-gradient-9" x1="-147.42" y1="240.14" x2="-146" y2="211.69" gradientTransform="translate(37.79) rotate(-180) scale(1 -1)" xlink:href="#linear-gradient-5"/><linearGradient id="linear-gradient-10" x1="-139.82" y1="242.32" x2="-141.21" y2="207.25" gradientTransform="translate(37.79) rotate(-180) scale(1 -1)" xlink:href="#linear-gradient-6"/></defs><g id="ALIEN"><g id="MALE"><g><path class="cls-4" d="M41.7,81.27c1.79,6.88,4.05,11.26,5,13,4.15,7.61,7.64,9.47,13,16,2.7,3.29,10.23,13.07,14,27,1.18,4.35,3.21,12.12,2,22-.9,7.41-3.3,13.34-4,15-2.69,6.41-4.48,7.3-5,10-1.77,9.17,10.6,48.84,23,53,10.21,3.43,16.01,1.24,21,0,6.58-1.64,21.02-32.48,25-42,.54-1.29,2.41-5.7,1-11-.45-1.69-1.61-2.5-4-7-.55-1.04-1.32-2.49-2-4-1.98-4.42-2.69-8.25-3-10-1.08-6.05-.56-10.98,0-16,.6-5.37,1.23-11.06,4-18,2.39-6,5.26-10.11,8-14,4.24-6.01,6.68-7.96,10-12,2.11-2.57,8.78-10.85,12-22,4.09-14.15,.57-25.82-4-41-.43-1.43-1.18-3.69-3-6-3.2-4.06-7.55-5.53-9-6-3.48-1.13-6.24-.99-8-1-8.28-.03-13.71-3.19-19-5-8.03-2.75-21.04-5.68-33-1-3.47,1.36-5.1,2.71-10,4-6.65,1.75-9.62,.82-15,2-5.87,1.28-10.97,4.27-14,7-13.95,12.57-6.74,40.3-5,47Z"/><g><path class="cls-10" d="M57.7,33.27c-1.52-1.19-7.01-5.2-15-5-2.11,.05-9.29,.52-15,6-6.44,6.19-6.89,14.8-7,17-.2,3.97,.66,5.12,0,9-.99,5.78-4.01,9.64-5,11-6.25,8.58-18.22,36.58-14,61,1.41,8.13,4,12.35,4,23,0,6.92-1.09,8.58-2,18-1.11,11.53-.54,20.21,0,28,0,0,.68,9.82,7,29,.18,.55,.67,1.98,2,3,1.41,1.09,3.36,1.4,5,1,2.23-.55,3.51-2.32,4-3,6.22-8.64,5-29,5-29,0-12.34-2.75-16.49-3-31-.02-1.05-.08-3.21,0-6,.07-2.28,.35-9.03,2-17,2-9.68,5.13-16.92,6-19,3.56-8.48,8.25-23.29,13-51"/><path d="M57.7,33.27c-9.98-7.94-26.63-5.9-33.08,5.5-2.64,4.49-3.65,9.86-3.4,15.03,.42,3.19,.33,6.55-.71,9.62-1.13,4.19-4.07,7.58-6.21,11.18C5.8,90.16,.91,108.26,1.88,126.03l.09,1.57,.21,1.55c.59,6.37,3.03,12.22,3.94,18.63,.58,4.29,.68,8.6,.24,12.92-.55,4.26-1.34,8.33-1.69,12.59-.93,9.18-.69,18.43,.02,27.65,1.11,10.13,3.99,20.07,7.17,29.72,1.2,3.08,5.53,3.78,7.86,1.51,1.43-1.3,2.35-3.2,3.16-4.98,3.6-9.79,3.26-20.73,2.73-31.03-.55-6.33-2.03-12.53-2.39-18.92-1.27-17.02,1.67-34.35,8.74-49.87,6.23-15.74,9.57-32.5,12.75-49.09-2.76,16.73-5.88,33.51-11.84,49.46-3.33,7.8-5.87,15.87-7.2,24.2-1.37,8.31-1.55,16.8-.93,25.19,.65,8.4,3,16.79,2.84,25.29,.31,8.53,.1,30.08-9.84,32.81-3.03,.69-6.42-.87-7.6-3.8-.95-2.52-1.67-5.11-2.47-7.68-2.2-7.69-4.36-15.49-5.03-23.5-.67-9.01-.8-18.12,.13-27.14,.36-4.2,1.19-8.46,1.74-12.61,.44-4.11,.36-8.35-.19-12.45-.84-6.15-3.32-12.35-3.87-18.67l-.21-1.6-.09-1.61c-.88-13.93,2.34-27.82,7.48-40.67,1.61-3.95,3.41-7.83,5.6-11.51,2.17-3.58,5.05-6.78,6.22-10.88,.61-1.97,1.04-4.03,.98-6.07-.11-2.07-.39-4.3-.17-6.39,.3-4.28,1.46-8.56,3.72-12.24,6.8-11.51,23.7-13.47,33.73-5.11h0Z"/></g><g><path class="cls-1" d="M144.82,33.27c1.52-1.19,7.01-5.2,15-5,2.11,.05,9.29,.52,15,6,6.44,6.19,6.89,14.8,7,17,.2,3.97-.66,5.12,0,9,.99,5.78,4.01,9.64,5,11,6.25,8.58,18.22,36.58,14,61-1.41,8.13-4,12.35-4,23,0,6.92,1.09,8.58,2,18,1.11,11.53,.54,20.21,0,28,0,0-.68,9.82-7,29-.18,.55-.67,1.98-2,3-1.41,1.09-3.36,1.4-5,1-2.23-.55-3.51-2.32-4-3-6.22-8.64-5-29-5-29,0-12.34,2.75-16.49,3-31,.02-1.05,.08-3.21,0-6-.07-2.28-.35-9.03-2-17-2-9.68-5.13-16.92-6-19-3.56-8.48-8.25-23.29-13-51"/><path d="M144.82,33.27c10.03-8.35,26.92-6.42,33.73,5.11,2.81,4.62,3.97,10.11,3.77,15.48-.36,3.15-.29,6.2,.76,9.23,1.17,4.1,4.05,7.29,6.22,10.88,2.19,3.69,3.99,7.56,5.6,11.51,5.13,12.85,8.35,26.74,7.48,40.67l-.09,1.61-.21,1.6c-.56,6.33-3.03,12.52-3.88,18.67-.54,4.11-.63,8.34-.19,12.45,.55,4.15,1.38,8.41,1.74,12.61,.93,9.02,.8,18.13,.13,27.14-.67,8-2.82,15.81-5.03,23.5-.8,2.57-1.53,5.16-2.47,7.68-1.19,2.92-4.57,4.5-7.6,3.8-9.96-2.73-10.14-24.36-9.84-32.81-.16-8.5,2.19-16.88,2.84-25.29,.63-8.39,.45-16.87-.93-25.19-1.32-8.33-3.86-16.4-7.2-24.2-5.96-15.95-9.08-32.73-11.84-49.46,3.18,16.6,6.53,33.35,12.75,49.09,7.08,15.52,10.01,32.85,8.74,49.87-.36,6.39-1.84,12.59-2.39,18.92-.53,10.3-.87,21.24,2.73,31.03,1.15,2.53,2.6,5.56,5.52,6.22,2.9,.63,5.42-1.29,5.98-4.16,2.97-9.5,5.86-19.18,6.74-29.12,.68-8.95,.86-17.92-.04-26.84-.35-4.25-1.14-8.33-1.69-12.59-.45-4.31-.34-8.63,.24-12.92,.9-6.41,3.34-12.26,3.94-18.63l.21-1.55,.09-1.57c.97-17.77-3.93-35.86-12.43-51.42-2.14-3.6-5.07-7-6.21-11.18-.62-2.08-1.04-4.23-.96-6.44,.13-2.16,.42-4.15,.25-6.3-.22-4.16-1.28-8.32-3.4-11.92-6.45-11.38-23.11-13.45-33.08-5.5h0Z"/></g><g><path class="cls-5" d="M76.7,31.27c.83-.95,1.9-2.29,3-4,.97-1.5,4.39-7.08,6-16,.64-3.57,.3-3.81,1-5,2.63-4.45,9.66-4.79,14-5,4.27-.21,11.09-1.12,14,2,1.23,1.32,2,3,2,3,.23,.85,.6,2.25,1,4,.54,2.38,.78,3.87,1,5,1.4,7.36,4.2,13.32,5,15,.42,.87,.78,1.57,1,2"/><path d="M76.7,31.27c4.68-5.98,7.2-13.35,8.33-20.79,.27-1.41,.12-2.45,.57-3.94,.63-1.41,1.58-2.45,2.73-3.29,3.46-2.38,7.49-2.66,11.43-2.93,3.82-.16,7.8-.72,11.67,.17,1.99,.4,4.01,1.79,5.07,3.62,.42,.63,.87,1.49,1.04,1.92,1.15,4.35,1.69,9.06,2.72,13.4,1.06,4.41,2.57,8.69,4.44,12.83-2.33-3.94-4.19-8.15-5.54-12.53-1.32-4.33-2.01-8.91-3.3-13.24l.12,.25c-.13-.22-.35-.68-.48-.89-2.16-4.4-7.5-4.01-11.81-3.78-2.49,.19-5.06,.21-7.53,.51-3.43,.46-7.3,1.39-8.94,4.57-.29,.94-.37,2.5-.61,3.57-1.43,7.51-4.52,15.02-9.9,20.53h0Z"/></g><path d="M55.25,97.73c9.44-3.09,19.68-5.29,29.62-3.36,3.02,.31,6.38,2.97,9.2,1.01,4.62-3.74,4.74-12.71,5.26-18.29,.36-6.64,.17-13.3-.06-19.95,.65,6.63,1.02,13.3,.82,19.98-.31,5.61-.7,19.26-8.05,19.97-2.6,0-4.85-1.46-7.36-1.82-9.8-1.96-19.9-.04-29.44,2.47h0Z"/><path d="M148.2,97.73c-9.49-2.52-19.52-4.45-29.28-2.45-2.49,.37-4.74,1.9-7.34,1.79-7.17-1.03-7.47-14.42-7.79-20.06-.18-6.65,.18-13.28,.82-19.88-.22,6.61-.41,13.24-.06,19.85,.47,5.18,.74,17.98,7.11,19.12,2.41,.08,4.65-1.37,7.07-1.7,9.88-1.97,20.08,.23,29.46,3.34h0Z"/><path d="M77.2,119.42c4.98-1.64,10.44-2.7,15.62-1.37,1.41,.49,2.57,.7,3.5-.57,1.85-3.12,1.7-7.08,1.84-10.63,.04-1.49,0-2.98,0-4.48,.43,2.96,.66,5.96,.56,8.98-.2,2.79-.36,7.35-3.8,8.08-1.73,.04-2.88-.76-4.5-.89-4.41-.65-8.85,.05-13.23,.88h0Z"/><path d="M82.73,136.79c3.86-1.35,8.14-2.21,12.18-1.17,1.1,.36,1.88,.55,2.61-.4,1.42-2.4,1.33-5.47,1.47-8.21,.05-1.16,.04-2.32,.06-3.49,.38,2.3,.58,4.64,.52,7-.14,2.25-.26,5.8-3.03,6.39-1.4,.03-2.25-.59-3.53-.7-3.42-.52-6.87,0-10.28,.58h0Z"/><path d="M87.82,151.87c2.8-1.08,5.98-1.75,8.96-.98,2.29,1.04,2.46-2.12,2.71-3.66,.16-1.67,.22-3.37,.29-5.08,.32,1.68,.53,3.39,.49,5.13-.09,1.7-.2,4.38-2.31,4.81-1.08,.03-1.65-.43-2.62-.52-2.49-.39-5-.05-7.52,.3h0Z"/><path d="M125.2,119.42c-4.37-.83-8.81-1.53-13.23-.88-1.62,.12-2.77,.93-4.5,.89-5.35-1.12-3.7-13.01-3.23-17.06,0,1.5-.04,2.99,0,4.48,.14,3.55,0,7.51,1.84,10.63,.93,1.27,2.09,1.07,3.5,.57,5.18-1.33,10.64-.27,15.62,1.37h0Z"/><path d="M120.2,136.79c-3.42-.59-6.86-1.1-10.28-.58-1.28,.1-2.13,.73-3.53,.7-2.76-.6-2.88-4.15-3.03-6.39-.06-2.36,.14-4.69,.52-7,.02,1.17,0,2.33,.06,3.49,.14,2.74,.05,5.8,1.47,8.21,.72,.95,1.51,.77,2.61,.4,4.05-1.04,8.32-.18,12.18,1.17h0Z"/><path d="M115.28,151.87c-2.52-.35-5.02-.69-7.52-.3-.97,.09-1.53,.54-2.62,.52-2.11-.44-2.22-3.11-2.31-4.81-.04-1.74,.17-3.45,.49-5.13,.07,1.71,.12,3.42,.29,5.08,.24,1.54,.41,4.7,2.71,3.66,2.99-.76,6.16-.1,8.96,.98h0Z"/><path d="M87.79,166.97c2.8-1.08,5.98-1.75,8.96-.98,2.29,1.04,2.46-2.12,2.71-3.66,.16-1.67,.22-3.37,.29-5.08,.32,1.68,.53,3.39,.49,5.13-.09,1.7-.2,4.38-2.31,4.81-1.08,.03-1.65-.43-2.62-.52-2.49-.39-5-.05-7.52,.3h0Z"/><path d="M115.25,166.97c-2.52-.35-5.02-.69-7.52-.3-.97,.09-1.53,.54-2.62,.52-2.11-.44-2.22-3.11-2.31-4.81-.04-1.74,.17-3.45,.49-5.13,.07,1.71,.12,3.42,.29,5.08,.24,1.54,.41,4.7,2.71,3.66,2.99-.76,6.16-.1,8.96,.98h0Z"/><g><path class="cls-9" d="M12.75,219.14c-1.55,2.74-1.72,4.25-2.08,5.89-.52,2.38-.86,3.94-.41,7.08,.41,2.86,1.36,6.6,1.89,8.34,.6,1.97,2.56,3.21,3.81,4.51,7.54,7.89,9.19,10.45,9.96,15.14,.05,.3,.63,2.48,1.37,3.16,1.81,1.67,4.55,1.16,5.33,.45,1.73-1.58,2.27-3.12,1.05-5.5-.78-1.53-3.45-.88-5.57-3.02-6.56-6.6-10.14-13.95-10.28-14.92-.36-2.48,1.45-2.59,2.38-5.4,3.09-9.29,3.12-9.81,2.92-13.75-.11-2.21-.47-2.06-2.77-7.91"/><path d="M12.75,219.14c-1.67,3.15-2.34,6.82-2.49,10.35,.17,3.56,1.13,7.07,2.08,10.49,.54,2.3,2.86,3.47,4.47,5.3,3.27,3.54,6.94,6.93,8.75,11.54,.84,2.05,.66,4.39,2.07,6.11,1.19,1.08,3.47,1.34,4.74,.31,1.29-1.09,1.87-2.67,1.09-4.29-.38-1.25-1.41-1.29-2.51-1.65-2.48-.55-4.13-2.73-5.73-4.56-2.35-2.77-4.46-5.73-6.21-8.91-.76-1.58-2.17-3.46-1.39-5.35,.53-1.18,1.48-1.87,1.96-3.02,1.72-4.99,4.09-10.15,3.27-15.53-.61-2.28-1.77-4.46-2.52-6.71,.86,2.26,2.07,4.33,2.76,6.66,1.03,5.48-1.18,10.77-2.87,15.87-.43,1.1-1.46,2-1.92,3.01-.61,1.66,.7,3.19,1.42,4.68,1.78,3.09,3.85,6.02,6.18,8.72,1.56,1.69,2.93,3.7,5.32,4.24,1.24,.31,2.73,.74,3.13,2.18,1.95,4.45-3.11,8.08-6.97,5.39-2.22-1.98-1.8-4.73-2.69-6.83-.77-2.19-2.19-4.12-3.69-5.96-2.33-2.73-4.68-5.41-7.33-7.85-.87-.83-1.68-1.94-1.95-3.17-.64-2.33-1.17-4.67-1.57-7.06-.82-4.72,.24-9.82,2.59-13.97h0Z"/></g><g><path class="cls-11" d="M8.11,220.25c-1.86,3.29-2.06,5.09-2.49,7.07-.62,2.85-1.03,4.72-.49,8.49,.49,3.43,1.62,7.91,2.26,9.99,.72,2.36,3.07,3.84,4.57,5.41,9.03,9.46,11.01,12.53,11.94,18.15,.06,.36,.75,2.97,1.64,3.78,2.17,2,5.46,1.39,6.39,.54,2.08-1.89,2.72-3.73,1.26-6.59-.93-1.83-4.13-1.05-6.68-3.62-7.86-7.91-12.15-16.72-12.32-17.88-.43-2.97,1.74-3.11,2.86-6.47,3.7-11.14,3.74-11.76,3.5-16.48-.13-2.64-.92-4-3.62-6.7"/><path d="M8.11,220.25c-1.43,2.48-2.06,5.23-2.55,8.03-.64,2.77-.58,5.57-.05,8.35,.49,2.77,1.16,5.52,1.93,8.23,.33,1.39,.97,2.51,1.99,3.49,3.13,2.8,6.11,5.94,8.86,9.16,1.83,2.17,3.62,4.45,4.77,7.14,1.21,2.51,1.05,5.58,2.59,7.91,1.58,1.8,5.24,2.06,6.72-.07,.89-.99,1.31-2.23,.99-3.5-.32-1.28-.73-2.4-2.2-2.73-1.3-.39-2.8-.76-4.03-1.65-1.2-.9-2.07-2-3.07-3.07-3.77-4.27-7.11-8.93-9.58-14.09-.67-1.26-1.11-3-.28-4.38,.76-1.27,1.77-2.15,2.29-3.51,1.34-3.95,2.9-7.98,3.72-12.09,.29-2.69,.59-5.76-.67-8.24-.68-1.23-1.66-2.27-2.63-3.3,1.01,.99,2.03,1.98,2.77,3.21,1.38,2.53,1.16,5.6,.96,8.39-.71,4.23-2.2,8.2-3.51,12.29-1.16,2.88-3.95,3.85-1.95,7.3,3.19,6.15,7.35,12.06,12.48,16.73,1.65,1.38,4.37,.98,5.81,2.8,1.56,2.51,1.18,5.39-1.11,7.28-2.17,1.7-5.63,1.28-7.48-.81-1.68-2.45-1.47-5.51-2.67-8.13-1.07-2.54-2.79-4.78-4.59-6.93-2.76-3.24-5.58-6.31-8.71-9.23-1.03-1.01-1.8-2.42-2.09-3.81-.74-2.74-1.37-5.51-1.82-8.32-.5-2.8-.45-5.74,.26-8.49,.56-2.77,1.3-5.56,2.84-7.96h0Z"/></g><g><path class="cls-6" d="M8.64,218.1c-2.77,3.59-3.32,5.7-4.17,7.97-1.22,3.28-2.03,5.43-2.03,10,0,4.16,.58,9.67,.98,12.26,.45,2.93,2.99,5.09,4.5,7.2,9.12,12.78,10.94,16.76,11.09,23.59,0,.44,.38,3.65,1.3,4.77,2.24,2.75,6.24,2.58,7.49,1.73,2.79-1.89,3.87-3.97,2.62-7.61-.8-2.33-4.72-1.96-7.32-5.44-7.98-10.74-11.58-21.93-11.58-23.34,0-3.6,2-3.76,4.5-7.2,7.2-9.9,7.58-11.45,8.1-17.1,.29-3.16,1.17-4.7-.9-13.5"/><path d="M8.64,218.1c-2.2,2.73-3.43,5.97-4.52,9.26-1.25,3.24-1.61,6.68-1.42,10.13,.14,3.44,.46,6.89,.95,10.3,.17,1.69,1.03,3.15,2.09,4.48,3.37,3.97,6.28,8.29,9.06,12.69,1.79,2.97,3.5,6.11,4.18,9.61,.84,3.16-.21,7.11,2.25,9.6,1.47,1.31,3.7,1.81,5.62,1.31,1.08-.36,2.06-1.32,2.74-2.2,.97-1.26,1-2.96,.54-4.54-.17-.76-.52-1.38-1.24-1.77-2.26-1.16-5.03-2.17-6.43-4.49-3.07-4.22-5.71-8.75-7.9-13.49-1.09-2.37-2.09-4.79-2.86-7.29-.61-1.71-.88-3.64,.07-5.32,.94-1.57,2.4-2.51,3.47-3.92,2.55-3.43,5.22-6.92,7.12-10.74,1.54-3.08,1.44-6.68,2.01-10.06,.28-3.44-.46-6.88-1.17-10.25,1.04,4.18,1.88,8.53,1.11,12.85l-.24,2.58c-.4,5.33-3.89,9.69-6.78,13.91-1.3,2.21-3.44,3.93-4.88,5.98-1.25,2.3,.14,4.9,.91,7.15,2.48,6.41,5.83,12.5,9.89,18.04,.93,1.41,2.26,2.37,3.8,3.07,1.16,.58,2.63,.99,3.49,2.14,.7,1.21,.96,2.66,.88,4.08-.19,2.37-2.12,4.4-4.26,5.2-2.25,.58-4.76,.02-6.53-1.54-2.72-2.59-1.7-6.83-2.5-10.13-1.46-6.71-6.02-12.31-9.75-17.95-1.41-2.22-3.4-3.96-4.58-6.34-.4-.8-.64-1.72-.74-2.58-.45-3.45-.74-6.9-.82-10.37-.12-3.47,.34-7.01,1.67-10.23,1.16-3.26,2.48-6.51,4.75-9.18h0Z"/></g><g><path class="cls-2" d="M23.22,211.42c2,.78,5.52,3.55,8.38,8.77,.62,1.13,2.61,5.12,3.37,11.21,.88,7.08,.14,10.78-1.48,14.32-3.56,7.76-6.5,10.27-6.12,15.18,.14,1.84,.92,5.1-.85,6.73-.62,.57-1.35,.75-1.68,.84-1.76,.45-4.12-.1-5.04-1.69-1.12-1.93,.42-4.48,1.27-5.88,.59-.97,1.17-1.58,1.26-1.68,.6-.64,7.7-12.92,3.57-18.8-2.31-3.29-7.96-1.73-11.61-10.25"/><path d="M23.22,211.42c8.84,4.41,12.13,15.17,12.49,24.43,.76,7.44-3.89,13.76-6.97,20.1-.46,1.06-.79,2.16-.88,3.29-.22,2.37,.79,4.79-.03,7.21-1.13,3.34-6.35,3.44-8.28,.79-1.76-2.86,.84-6.31,2.58-8.48,2.77-4.87,5.75-10.83,4.34-16.55-.63-2.44-2.9-3.44-5.04-4.35-3.37-1.39-5.89-4.33-7.14-7.69,.98,2.16,2.33,4.2,4.22,5.62,1.9,1.53,4.28,1.98,6.34,3.26,5.69,4.49,.97,15.15-2,20.19-1.39,1.72-2.9,3.82-2.99,6.05,.07,3.37,6.08,3.92,7.05,.84,.71-2.22-.28-4.62-.02-6.98,.11-1.25,.49-2.46,.97-3.58,2.01-4.33,4.84-8.23,6.26-12.76,2.56-10.39-.89-25.98-10.91-31.39h0Z"/></g><g><path class="cls-7" d="M190.03,219.14c1.55,2.74,1.72,4.25,2.08,5.89,.52,2.38,.86,3.94,.41,7.08-.41,2.86-1.36,6.6-1.89,8.34-.6,1.97-2.56,3.21-3.81,4.51-7.54,7.89-9.19,10.45-9.96,15.14-.05,.3-.63,2.48-1.37,3.16-1.81,1.67-4.55,1.16-5.33,.45-1.73-1.58-2.27-3.12-1.05-5.5,.78-1.53,3.45-.88,5.57-3.02,6.56-6.6,10.14-13.95,10.28-14.92,.36-2.48-1.45-2.59-2.38-5.4-3.09-9.29-3.12-9.81-2.92-13.75,.11-2.21,.47-2.06,2.77-7.91"/><path d="M190.03,219.14c2.36,4.15,3.42,9.25,2.59,13.97-.4,2.38-.93,4.73-1.57,7.06-.27,1.23-1.08,2.33-1.95,3.17-2.66,2.44-5.01,5.12-7.33,7.85-1.49,1.84-2.92,3.76-3.69,5.96-.89,2.09-.47,4.84-2.69,6.83-3.85,2.68-8.92-.92-6.97-5.39,.41-1.45,1.88-1.86,3.13-2.18,2.39-.54,3.76-2.55,5.32-4.24,2.33-2.7,4.4-5.63,6.18-8.72,.72-1.49,2.03-3.02,1.42-4.68-.46-1.01-1.49-1.91-1.92-3.01-1.69-5.11-3.9-10.4-2.87-15.87,.68-2.33,1.9-4.4,2.76-6.66-.75,2.25-1.91,4.43-2.52,6.71-.82,5.39,1.55,10.55,3.27,15.53,.48,1.16,1.43,1.85,1.96,3.02,.78,1.9-.63,3.77-1.39,5.35-1.75,3.18-3.87,6.15-6.21,8.91-1.61,1.82-3.25,4.01-5.73,4.56-1.1,.36-2.13,.4-2.51,1.65-.78,1.62-.2,3.2,1.09,4.29,1.27,1.04,3.55,.77,4.74-.31,1.41-1.72,1.23-4.06,2.07-6.11,1.81-4.61,5.48-8,8.75-11.54,1.61-1.83,3.93-3.01,4.47-5.3,.96-3.42,1.92-6.93,2.08-10.49-.14-3.53-.81-7.2-2.49-10.35h0Z"/></g><g><path class="cls-12" d="M194.67,220.25c1.86,3.29,2.06,5.09,2.49,7.07,.62,2.85,1.03,4.72,.49,8.49-.49,3.43-1.62,7.91-2.26,9.99-.72,2.36-3.07,3.84-4.57,5.41-9.03,9.46-11.01,12.53-11.94,18.15-.06,.36-.75,2.97-1.64,3.78-2.17,2-5.46,1.39-6.39,.54-2.08-1.89-2.72-3.73-1.26-6.59,.93-1.83,4.13-1.05,6.68-3.62,7.86-7.91,12.15-16.72,12.32-17.88,.43-2.97-1.74-3.11-2.86-6.47-3.7-11.14-3.74-11.76-3.5-16.48,.13-2.64,.92-4,3.62-6.7"/><path d="M194.67,220.25c2.19,3.65,3.09,7.98,3.44,12.19,0,4.28-1.12,8.46-2.16,12.58-.5,2.96-3.24,4.76-5.13,6.76-3.71,4.12-7.97,8.12-10.26,13.22-1.21,2.62-1,5.68-2.67,8.13-1.85,2.09-5.31,2.5-7.48,.81-2.29-1.91-2.68-4.75-1.11-7.28,1.44-1.83,4.16-1.42,5.81-2.81,5.13-4.68,9.29-10.58,12.48-16.73,2.01-3.44-.79-4.43-1.95-7.3-1.31-4.09-2.79-8.06-3.51-12.29-.21-2.8-.42-5.86,.96-8.39,.74-1.23,1.77-2.23,2.77-3.21-.97,1.02-1.95,2.07-2.63,3.3-1.26,2.48-.96,5.56-.67,8.24,.82,4.11,2.38,8.14,3.72,12.09,1.44,3.12,4.06,3.98,2,7.89-3.18,6.39-7.39,12.34-12.65,17.16-1.23,.9-2.74,1.26-4.03,1.65-.64,.21-1.23,.47-1.5,.91-1.28,2.15-.99,4.39,.99,6.03,1.67,1.33,4.69,.89,6.03-.66,.54-.76,.89-1.82,1.17-2.75,.64-4.67,3.1-8.87,6.2-12.3,1.85-2.17,3.79-4.23,5.76-6.26,1.45-1.57,3.28-2.67,4.36-4.49,.35-.57,.53-1.21,.73-1.9,1.09-4.05,2.24-8.19,2.36-12.4-.23-4.17-1.02-8.49-3.02-12.2h0Z"/></g><g><path class="cls-8" d="M194.15,218.1c2.77,3.59,3.32,5.7,4.17,7.97,1.22,3.28,2.03,5.43,2.03,10,0,4.16-.58,9.67-.98,12.26-.45,2.93-2.99,5.09-4.5,7.2-9.12,12.78-10.94,16.76-11.09,23.59,0,.44-.38,3.65-1.3,4.77-2.24,2.75-6.24,2.58-7.49,1.73-2.79-1.89-3.87-3.97-2.62-7.61,.8-2.33,4.72-1.96,7.32-5.44,7.98-10.74,11.58-21.93,11.58-23.34,0-3.6-2-3.76-4.5-7.2-7.2-9.9-7.58-11.45-8.1-17.1-.29-3.16-1.17-4.7,.9-13.5"/><path d="M194.15,218.1c2.26,2.67,3.59,5.92,4.75,9.18,1.33,3.22,1.79,6.76,1.67,10.23-.08,3.47-.37,6.93-.82,10.37-.1,.86-.34,1.78-.74,2.58-1.18,2.38-3.17,4.11-4.58,6.34-3.74,5.64-8.29,11.25-9.75,17.95-.8,3.31,.22,7.55-2.5,10.13-1.76,1.56-4.27,2.12-6.53,1.54-2.15-.8-4.07-2.84-4.26-5.2-.08-1.42,.18-2.87,.88-4.08,.85-1.15,2.33-1.56,3.49-2.14,1.54-.7,2.87-1.66,3.8-3.07,4.06-5.55,7.41-11.63,9.89-18.04,.77-2.25,2.16-4.85,.91-7.15-1.44-2.05-3.58-3.77-4.88-5.98-2.89-4.23-6.38-8.58-6.78-13.91l-.24-2.58c-.78-4.31,.06-8.67,1.11-12.85-.72,3.37-1.46,6.81-1.17,10.25,.57,3.39,.47,6.98,2.01,10.06,1.9,3.82,4.57,7.3,7.12,10.74,1.07,1.41,2.53,2.36,3.47,3.92,1.43,2.55,.07,5.31-.77,7.79-1.84,4.89-4.22,9.55-6.99,13.98-1.49,2.17-2.73,4.58-4.77,6.31-1.35,1.12-3.14,1.67-4.59,2.5-.71,.39-1.07,1.02-1.24,1.77-.47,1.58-.44,3.27,.54,4.54,.67,.88,1.66,1.83,2.74,2.2,1.91,.5,4.15,0,5.62-1.31,2.46-2.5,1.41-6.44,2.25-9.6,.69-3.5,2.4-6.64,4.18-9.61,2.79-4.4,5.7-8.72,9.06-12.69,1.06-1.33,1.92-2.79,2.09-4.48,.49-3.41,.82-6.85,.95-10.3,.2-3.45-.17-6.89-1.42-10.13-1.09-3.29-2.32-6.54-4.52-9.26h0Z"/></g><g><path class="cls-3" d="M179.56,211.42c-2,.78-5.52,3.55-8.38,8.77-.62,1.13-2.61,5.12-3.37,11.21-.88,7.08-.14,10.78,1.48,14.32,3.56,7.76,6.5,10.27,6.12,15.18-.14,1.84-.92,5.1,.85,6.73,.62,.57,1.35,.75,1.68,.84,1.76,.45,4.12-.1,5.04-1.69,1.12-1.93-.42-4.48-1.27-5.88-.59-.97-1.17-1.58-1.26-1.68-.6-.64-7.7-12.92-3.57-18.8,2.31-3.29,7.96-1.73,11.61-10.25"/><path d="M179.56,211.42c-10.01,5.39-13.47,21.01-10.91,31.39,1.43,4.53,4.25,8.43,6.27,12.76,.49,1.12,.87,2.33,.97,3.58,.26,2.36-.72,4.76-.02,6.98,.96,3.08,6.98,2.54,7.05-.84-.09-2.23-1.59-4.33-2.99-6.05-2.97-5.03-7.69-15.69-2-20.19,2.06-1.29,4.44-1.74,6.34-3.26,1.89-1.43,3.24-3.46,4.22-5.62-1.25,3.37-3.77,6.3-7.14,7.69-2.14,.91-4.41,1.9-5.04,4.35-1.41,5.72,1.57,11.68,4.34,16.55,1.74,2.19,4.35,5.62,2.58,8.48-1.93,2.65-7.15,2.55-8.28-.79-.82-2.42,.18-4.85-.03-7.21-.09-1.13-.42-2.22-.88-3.29-3.08-6.33-7.73-12.65-6.97-20.1,.36-9.26,3.65-20.02,12.49-24.43h0Z"/></g></g></g></g></svg>