<?xml version="1.0" encoding="UTF-8"?><svg id="Layer_2" xmlns="http://www.w3.org/2000/svg" xmlns:xlink="http://www.w3.org/1999/xlink" viewBox="0 0 485.04 582.9"><defs><style>.cls-1{fill:url(#linear-gradient-14);}.cls-1,.cls-2,.cls-3,.cls-4,.cls-5,.cls-6,.cls-7,.cls-8,.cls-9,.cls-10,.cls-11,.cls-12,.cls-13,.cls-14,.cls-15,.cls-16,.cls-17,.cls-18,.cls-19,.cls-20,.cls-21,.cls-22,.cls-23,.cls-24,.cls-25,.cls-26,.cls-27,.cls-28,.cls-29,.cls-30,.cls-31,.cls-32,.cls-33,.cls-34,.cls-35,.cls-36,.cls-37{stroke:#000;stroke-miterlimit:10;}.cls-38{fill:url(#linear-gradient-51);}.cls-39{fill:#fff;}.cls-2{fill:url(#linear-gradient-11);}.cls-3{fill:none;}.cls-4{fill:url(#linear-gradient-3);}.cls-5{stroke-width:.25px;}.cls-6{fill:url(#linear-gradient-34);}.cls-40{fill:url(#linear-gradient-56);}.cls-41{fill:url(#linear-gradient-52);}.cls-42{fill:url(#linear-gradient-28);}.cls-8{fill:url(#linear-gradient-7);}.cls-9{fill:url(#linear-gradient-5);}.cls-43{fill:url(#linear-gradient-36);}.cls-44{fill:url(#linear-gradient-20);}.cls-45{fill:url(#linear-gradient-53);}.cls-10{fill:url(#linear-gradient-43);}.cls-46{fill:url(#linear-gradient-35);}.cls-47{fill:url(#linear-gradient-48);}.cls-11{fill:url(#linear-gradient-19);}.cls-48{fill:url(#linear-gradient-32);}.cls-12{fill:url(#linear-gradient-58);}.cls-49{fill:url(#linear-gradient-50);}.cls-50{fill:url(#linear-gradient-39);}.cls-13{fill:url(#linear-gradient-18);}.cls-14{fill:url(#linear-gradient-13);}.cls-15{fill:url(#linear-gradient-40);}.cls-51{fill:url(#linear-gradient-49);}.cls-52{fill:url(#linear-gradient-37);}.cls-16{fill:url(#linear-gradient-33);}.cls-17{fill:url(#linear-gradient-57);}.cls-18{fill:#6931c0;stroke-width:.75px;}.cls-19{fill:url(#linear-gradient-12);}.cls-20{fill:url(#linear-gradient-6);}.cls-21{fill:url(#linear-gradient-8);}.cls-22,.cls-53{fill:#b1fdd9;}.cls-23{fill:url(#linear-gradient-16);}.cls-54{fill:url(#linear-gradient-21);}.cls-55{fill:url(#linear-gradient-25);}.cls-56{fill:url(#linear-gradient-54);}.cls-57{fill:url(#linear-gradient-45);}.cls-58{fill:url(#linear-gradient-55);}.cls-24{fill:url(#linear-gradient);}.cls-25{fill:url(#linear-gradient-10);}.cls-26{fill:url(#linear-gradient-4);}.cls-27{fill:#534741;}.cls-59{fill:url(#linear-gradient-24);}.cls-60{fill:url(#linear-gradient-22);}.cls-28{fill:url(#linear-gradient-17);}.cls-29{fill:url(#linear-gradient-2);}.cls-30{fill:url(#linear-gradient-23);}.cls-61{fill:url(#linear-gradient-27);}.cls-62{fill:url(#linear-gradient-38);}.cls-31{fill:url(#linear-gradient-29);}.cls-32{fill:url(#linear-gradient-41);}.cls-33{fill:url(#linear-gradient-31);}.cls-34{fill:url(#linear-gradient-15);}.cls-63{fill:url(#linear-gradient-44);}.cls-35{fill:url(#linear-gradient-42);}.cls-64{fill:url(#linear-gradient-47);}.cls-65{fill:url(#linear-gradient-46);}.cls-36{fill:url(#linear-gradient-9);}.cls-37{fill:url(#linear-gradient-30);}.cls-66{fill:url(#linear-gradient-26);}</style><linearGradient id="linear-gradient" x1="274.28" y1="177.61" x2="274.28" y2="55.74" gradientTransform="translate(726.72) rotate(-180) scale(1 -1)" gradientUnits="userSpaceOnUse"><stop offset="0" stop-color="#9e005d"/><stop offset=".14" stop-color="#ca3881"/><stop offset=".28" stop-color="#f068a0"/><stop offset=".34" stop-color="#ff7bac"/></linearGradient><linearGradient id="linear-gradient-2" x1="272.45" y1="141.88" x2="272.45" y2="46.47" xlink:href="#linear-gradient"/><linearGradient id="linear-gradient-3" x1="496.1" y1="176.54" x2="496.1" y2="108.55" gradientTransform="translate(16.11) scale(.81 1)" xlink:href="#linear-gradient"/><linearGradient id="linear-gradient-4" x1="304.07" y1="169.58" x2="304.07" y2="101.59" xlink:href="#linear-gradient"/><linearGradient id="linear-gradient-5" x1="293.07" y1="171.58" x2="293.07" y2="103.59" xlink:href="#linear-gradient"/><linearGradient id="linear-gradient-6" x1="278.65" y1="161.38" x2="278.65" y2="34.56" xlink:href="#linear-gradient"/><linearGradient id="linear-gradient-7" x1="283.86" y1="174.04" x2="283.86" y2="40.33" xlink:href="#linear-gradient"/><linearGradient id="linear-gradient-8" x1="295.45" y1="157.45" x2="295.45" y2="73.88" xlink:href="#linear-gradient"/><linearGradient id="linear-gradient-9" x1="306.28" y1="158.2" x2="306.28" y2="90.21" xlink:href="#linear-gradient"/><linearGradient id="linear-gradient-10" x1="341.86" y1="159.04" x2="341.86" y2="25.33" gradientTransform="matrix(1, 0, 0, 1, 0, 0)" xlink:href="#linear-gradient"/><linearGradient id="linear-gradient-11" x1="409.36" y1="176.54" x2="409.36" y2="108.55" gradientTransform="translate(710.61) rotate(-180) scale(.81 -1)" xlink:href="#linear-gradient"/><linearGradient id="linear-gradient-12" x1="374.07" y1="169.58" x2="374.07" y2="101.59" gradientTransform="matrix(1, 0, 0, 1, 0, 0)" xlink:href="#linear-gradient"/><linearGradient id="linear-gradient-13" x1="363.07" y1="171.58" x2="363.07" y2="103.59" gradientTransform="matrix(1, 0, 0, 1, 0, 0)" xlink:href="#linear-gradient"/><linearGradient id="linear-gradient-14" x1="348.65" y1="161.38" x2="348.65" y2="34.56" gradientTransform="matrix(1, 0, 0, 1, 0, 0)" xlink:href="#linear-gradient"/><linearGradient id="linear-gradient-15" x1="353.86" y1="174.04" x2="353.86" y2="40.33" gradientTransform="matrix(1, 0, 0, 1, 0, 0)" xlink:href="#linear-gradient"/><linearGradient id="linear-gradient-16" x1="365.45" y1="157.45" x2="365.45" y2="73.88" gradientTransform="matrix(1, 0, 0, 1, 0, 0)" xlink:href="#linear-gradient"/><linearGradient id="linear-gradient-17" x1="376.28" y1="158.2" x2="376.28" y2="90.21" gradientTransform="matrix(1, 0, 0, 1, 0, 0)" xlink:href="#linear-gradient"/><linearGradient id="linear-gradient-18" x1="367.35" y1="536.52" x2="376.85" y2="457.29" gradientTransform="matrix(1, 0, 0, 1, 0, 0)" gradientUnits="userSpaceOnUse"><stop offset=".12" stop-color="#ff7bac"/><stop offset=".26" stop-color="#fb75a8"/><stop offset=".42" stop-color="#ef679f"/><stop offset=".59" stop-color="#dc4f90"/><stop offset=".78" stop-color="#c22d7a"/><stop offset=".96" stop-color="#a0035f"/><stop offset=".98" stop-color="#9e005d"/></linearGradient><linearGradient id="linear-gradient-19" x1="397.03" y1="193.18" x2="397.03" y2="321.02" gradientTransform="matrix(1, 0, 0, 1, 0, 0)" gradientUnits="userSpaceOnUse"><stop offset="0" stop-color="#9e005d"/><stop offset=".14" stop-color="#a1045f"/><stop offset=".29" stop-color="#ab1067"/><stop offset=".44" stop-color="#bb2575"/><stop offset=".59" stop-color="#d24287"/><stop offset=".74" stop-color="#ef679f"/><stop offset=".81" stop-color="#ff7bac"/></linearGradient><linearGradient id="linear-gradient-20" x1="352.71" y1="205.46" x2="352.35" y2="383.79" gradientTransform="matrix(1, 0, 0, 1, 0, 0)" gradientUnits="userSpaceOnUse"><stop offset=".2" stop-color="#9e005d"/><stop offset=".63" stop-color="#ff7bac"/></linearGradient><linearGradient id="linear-gradient-21" x1="366.95" y1="358.21" x2="346.07" y2="489.45" gradientTransform="matrix(1, 0, 0, 1, 0, 0)" gradientUnits="userSpaceOnUse"><stop offset="0" stop-color="#ff7bac"/><stop offset=".11" stop-color="#f26ba1"/><stop offset=".68" stop-color="#b51e70"/><stop offset=".94" stop-color="#9e005d"/></linearGradient><linearGradient id="linear-gradient-22" x1="396.95" y1="153.61" x2="396.95" y2="118.11" gradientTransform="matrix(1, 0, 0, 1, 0, 0)" gradientUnits="userSpaceOnUse"><stop offset=".06" stop-color="#9e005d"/><stop offset=".37" stop-color="#d24287"/><stop offset=".59" stop-color="#f26ba1"/><stop offset=".7" stop-color="#ff7bac"/></linearGradient><linearGradient id="linear-gradient-23" x1="397.49" y1="10.44" x2="397.49" y2="148.07" gradientTransform="matrix(1, 0, 0, 1, 0, 0)" gradientUnits="userSpaceOnUse"><stop offset=".3" stop-color="#9e005d"/><stop offset=".76" stop-color="#ff7bac"/></linearGradient><linearGradient id="linear-gradient-24" x1="397.64" y1="51.81" x2="397.64" y2="-24.13" gradientTransform="matrix(1, 0, 0, 1, 0, 0)" xlink:href="#linear-gradient"/><linearGradient id="linear-gradient-25" x1="315.09" y1="418.69" x2="329.79" y2="418.69" gradientTransform="translate(-67.42 11.02) rotate(-10.85)" gradientUnits="userSpaceOnUse"><stop offset=".2" stop-color="#9e005d"/><stop offset=".46" stop-color="#c7347e"/><stop offset=".8" stop-color="#ff7bac"/></linearGradient><linearGradient id="linear-gradient-26" x1="311.82" y1="425.38" x2="329.44" y2="425.38" gradientTransform="translate(-69.09 9.3) rotate(-10.85)" gradientUnits="userSpaceOnUse"><stop offset=".2" stop-color="#9e005d"/><stop offset=".46" stop-color="#c7347e"/><stop offset=".8" stop-color="#ff7bac"/></linearGradient><linearGradient id="linear-gradient-27" x1="325.31" y1="361.92" x2="326.44" y2="339.17" gradientTransform="matrix(1, 0, 0, 1, 0, 0)" gradientUnits="userSpaceOnUse"><stop offset=".2" stop-color="#9e005d"/><stop offset=".47" stop-color="#c7347e"/><stop offset=".81" stop-color="#ff7bac"/></linearGradient><linearGradient id="linear-gradient-28" x1="331.38" y1="363.66" x2="330.27" y2="335.62" gradientTransform="matrix(1, 0, 0, 1, 0, 0)" gradientUnits="userSpaceOnUse"><stop offset=".2" stop-color="#9e005d"/><stop offset=".32" stop-color="#b1186c"/><stop offset=".59" stop-color="#e25795"/><stop offset=".73" stop-color="#ff7bac"/></linearGradient><linearGradient id="linear-gradient-29" x1="347.64" y1="524.54" x2="347.64" y2="575.46" gradientTransform="matrix(1, 0, 0, 1, 0, 0)" gradientUnits="userSpaceOnUse"><stop offset=".66" stop-color="#ff7bac"/><stop offset=".71" stop-color="#fb75a8"/><stop offset=".77" stop-color="#ef679f"/><stop offset=".83" stop-color="#dc4f90"/><stop offset=".9" stop-color="#c22d7a"/><stop offset=".97" stop-color="#a0035f"/><stop offset=".98" stop-color="#9e005d"/></linearGradient><linearGradient id="linear-gradient-30" x1="368.58" y1="565.69" x2="363.21" y2="621.87" gradientTransform="translate(-54.62 9.61) rotate(-5.56)" gradientUnits="userSpaceOnUse"><stop offset=".41" stop-color="#ff7bac"/><stop offset=".46" stop-color="#f46da3"/><stop offset=".54" stop-color="#d94b8d"/><stop offset=".66" stop-color="#ad1369"/><stop offset=".7" stop-color="#9e005d"/></linearGradient><linearGradient id="linear-gradient-31" x1="291.35" y1="536.52" x2="300.85" y2="457.29" gradientTransform="translate(718.88) rotate(-180) scale(1 -1)" xlink:href="#linear-gradient-18"/><linearGradient id="linear-gradient-32" x1="290.95" y1="358.21" x2="270.07" y2="489.45" gradientTransform="translate(718.88) rotate(-180) scale(1 -1)" xlink:href="#linear-gradient-21"/><linearGradient id="linear-gradient-33" x1="271.64" y1="524.54" x2="271.64" y2="575.46" gradientTransform="translate(718.88) rotate(-180) scale(1 -1)" xlink:href="#linear-gradient-29"/><linearGradient id="linear-gradient-34" x1="292.94" y1="558.33" x2="287.56" y2="614.51" gradientTransform="translate(773.5 9.61) rotate(-174.44) scale(1 -1)" xlink:href="#linear-gradient-30"/><linearGradient id="linear-gradient-35" x1="261.71" y1="205.46" x2="261.35" y2="383.79" gradientTransform="translate(705.41) rotate(-180) scale(1 -1)" gradientUnits="userSpaceOnUse"><stop offset=".2" stop-color="#9e005d"/><stop offset=".63" stop-color="#ff7bac"/></linearGradient><linearGradient id="linear-gradient-36" x1="225.72" y1="401.56" x2="240.42" y2="401.56" gradientTransform="translate(772.83 11.02) rotate(-169.15) scale(1 -1)" xlink:href="#linear-gradient-25"/><linearGradient id="linear-gradient-37" x1="222.45" y1="408.26" x2="240.07" y2="408.26" gradientTransform="translate(774.5 9.3) rotate(-169.15) scale(1 -1)" xlink:href="#linear-gradient-26"/><linearGradient id="linear-gradient-38" x1="234.31" y1="361.92" x2="235.44" y2="339.17" gradientTransform="translate(705.41) rotate(-180) scale(1 -1)" xlink:href="#linear-gradient-27"/><linearGradient id="linear-gradient-39" x1="240.38" y1="363.66" x2="239.27" y2="335.62" gradientTransform="translate(705.41) rotate(-180) scale(1 -1)" xlink:href="#linear-gradient-28"/><linearGradient id="linear-gradient-40" x1="106.08" y1="537.34" x2="115.65" y2="457.5" gradientTransform="translate(242.41) rotate(-180) scale(1 -1)" gradientUnits="userSpaceOnUse"><stop offset=".12" stop-color="#b1fdd9"/><stop offset=".26" stop-color="#b0f7d8"/><stop offset=".42" stop-color="#b0e9d6"/><stop offset=".59" stop-color="#afd1d3"/><stop offset=".78" stop-color="#afafcf"/><stop offset=".97" stop-color="#ae85ca"/><stop offset=".98" stop-color="#ae83ca"/></linearGradient><linearGradient id="linear-gradient-41" x1="81.88" y1="513.89" x2="81.88" y2="575.25" gradientTransform="translate(242.41) rotate(-180) scale(1 -1)" gradientUnits="userSpaceOnUse"><stop offset=".66" stop-color="#b1fdd9"/><stop offset=".71" stop-color="#b0f7d8"/><stop offset=".77" stop-color="#b0e9d6"/><stop offset=".83" stop-color="#afd1d3"/><stop offset=".9" stop-color="#afafcf"/><stop offset=".97" stop-color="#ae85ca"/><stop offset=".98" stop-color="#ae83ca"/></linearGradient><linearGradient id="linear-gradient-42" x1="108.82" y1="532.27" x2="102.34" y2="599.97" gradientTransform="translate(297.03 9.61) rotate(-174.44) scale(1 -1)" gradientUnits="userSpaceOnUse"><stop offset=".41" stop-color="#b1fdd9"/><stop offset=".46" stop-color="#b0efd7"/><stop offset=".54" stop-color="#afcdd3"/><stop offset=".66" stop-color="#ae95cc"/><stop offset=".7" stop-color="#ae83ca"/></linearGradient><linearGradient id="linear-gradient-43" x1="67.08" y1="537.34" x2="76.65" y2="457.5" gradientTransform="matrix(1, 0, 0, 1, 0, 0)" xlink:href="#linear-gradient-40"/><linearGradient id="linear-gradient-44" x1="29.25" y1="205.48" x2="28.9" y2="383.75" gradientTransform="matrix(1, 0, 0, 1, 0, 0)" gradientUnits="userSpaceOnUse"><stop offset=".2" stop-color="#b1fdd9"/><stop offset=".63" stop-color="#ae83ca"/></linearGradient><linearGradient id="linear-gradient-45" x1="173.03" y1="208.42" x2="168.47" y2="348.72" gradientTransform="matrix(1, 0, 0, 1, 0, 0)" gradientUnits="userSpaceOnUse"><stop offset="0" stop-color="#b1fdd9"/><stop offset=".12" stop-color="#b0f2d7"/><stop offset=".34" stop-color="#b0d7d4"/><stop offset=".61" stop-color="#aeaace"/><stop offset=".79" stop-color="#ae8acb"/><stop offset="1" stop-color="#ae83ca"/></linearGradient><linearGradient id="linear-gradient-46" x1="70.95" y1="358.21" x2="50.07" y2="489.45" gradientTransform="matrix(1, 0, 0, 1, 0, 0)" gradientUnits="userSpaceOnUse"><stop offset=".2" stop-color="#b1fdd9"/><stop offset=".94" stop-color="#ae83ca"/></linearGradient><linearGradient id="linear-gradient-47" x1="130.82" y1="357.36" x2="154.92" y2="489.84" gradientTransform="matrix(1, 0, 0, 1, 0, 0)" gradientUnits="userSpaceOnUse"><stop offset=".2" stop-color="#b1fdd9"/><stop offset=".98" stop-color="#ae83ca"/></linearGradient><linearGradient id="linear-gradient-48" x1="101.64" y1="51.81" x2="101.64" y2="-72.41" gradientTransform="matrix(1, 0, 0, 1, 0, 0)" gradientUnits="userSpaceOnUse"><stop offset="0" stop-color="#b1fdd9"/><stop offset=".46" stop-color="#ae83ca"/></linearGradient><linearGradient id="linear-gradient-49" x1="11.45" y1="362.19" x2="29.84" y2="362.19" gradientTransform="translate(-67.42 11.02) rotate(-10.85)" gradientUnits="userSpaceOnUse"><stop offset=".2" stop-color="#675887"/><stop offset=".64" stop-color="#9a77b7"/><stop offset=".8" stop-color="#ae83ca"/></linearGradient><linearGradient id="linear-gradient-50" x1="7.03" y1="370.07" x2="29.07" y2="370.07" gradientTransform="translate(-69.09 9.3) rotate(-10.85)" xlink:href="#linear-gradient-49"/><linearGradient id="linear-gradient-51" x1="17.58" y1="363.33" x2="19" y2="334.88" gradientTransform="matrix(1, 0, 0, 1, 0, 0)" gradientUnits="userSpaceOnUse"><stop offset=".2" stop-color="#675887"/><stop offset=".64" stop-color="#9a77b7"/><stop offset=".79" stop-color="#ae83ca"/></linearGradient><linearGradient id="linear-gradient-52" x1="25.18" y1="365.51" x2="23.79" y2="330.43" gradientTransform="matrix(1, 0, 0, 1, 0, 0)" gradientUnits="userSpaceOnUse"><stop offset=".2" stop-color="#675887"/><stop offset=".39" stop-color="#7d659c"/><stop offset=".72" stop-color="#ae83ca"/></linearGradient><linearGradient id="linear-gradient-53" x1="-150.6" y1="331.14" x2="-132.21" y2="331.14" gradientTransform="translate(105.21 11.02) rotate(-169.15) scale(1 -1)" xlink:href="#linear-gradient-49"/><linearGradient id="linear-gradient-54" x1="-155.02" y1="339.01" x2="-132.98" y2="339.01" gradientTransform="translate(106.88 9.3) rotate(-169.15) scale(1 -1)" xlink:href="#linear-gradient-49"/><linearGradient id="linear-gradient-55" x1="-147.42" y1="363.33" x2="-146" y2="334.88" gradientTransform="translate(37.79) rotate(-180) scale(1 -1)" xlink:href="#linear-gradient-51"/><linearGradient id="linear-gradient-56" x1="-139.82" y1="365.51" x2="-141.21" y2="330.43" gradientTransform="translate(37.79) rotate(-180) scale(1 -1)" xlink:href="#linear-gradient-52"/><linearGradient id="linear-gradient-57" x1="42.88" y1="513.89" x2="42.88" y2="575.25" gradientTransform="matrix(1, 0, 0, 1, 0, 0)" xlink:href="#linear-gradient-41"/><linearGradient id="linear-gradient-58" x1="70" y1="528.49" x2="63.52" y2="596.19" gradientTransform="translate(-54.62 9.61) rotate(-5.56)" xlink:href="#linear-gradient-42"/></defs><g id="ALIEN"><g id="FEMALE"><g><g><path class="cls-24" d="M452.01,97.41c1.76-1.96,4.3-1.92,6,0,4.25,4.82,3.62,21.96,1,34.06-3.11,14.4-7.4,14.07-10,28.68-2.22,12.45-.96,23.08-2,23.3-.85,.18-2.41-6.86-3-14.34-1.31-16.69,3.31-21.67,5-43.02,1.26-15.98-.4-24.88,3-28.68Z"/><path class="cls-29" d="M455.01,77.96c3,.13,4.89,9.72,5,10.27,1.93,10.14-1.58,15.98-5,30.82-3.8,16.53-3.63,27.46-5,27.4-1.13-.05-1.83-7.53-2-11.42-.06-1.3-.19-5.31,1-14.84,1.37-11.03,2.26-11.34,2-15.98-.37-6.57-2.21-7.16-2-12.56,.25-6.68,3.38-13.81,6-13.7Z"/><path class="cls-4" d="M416.84,131.79c-1.42-1.1-3.47-1.07-4.84,0-3.43,2.69-2.92,12.25-.81,19,2.51,8.03,5.97,7.85,8.07,16,1.79,6.95,.78,12.88,1.61,13,.69,.1,1.95-3.83,2.42-8,1.06-9.31-2.67-12.09-4.04-24-1.02-8.91,.32-13.88-2.42-16Z"/><path class="cls-26" d="M422.22,124.84c1.76-1.1,4.3-1.07,6,0,4.25,2.69,3.62,12.25,1,19-3.11,8.03-7.4,7.85-10,16-2.22,6.95-.96,12.88-2,13-.85,.1-2.41-3.83-3-8-1.31-9.31,3.31-12.09,5-24,1.26-8.91-.4-13.88,3-16Z"/><path class="cls-9" d="M433.22,126.84c1.76-1.1,4.3-1.07,6,0,4.25,2.69,3.62,12.25,1,19-3.11,8.03-7.4,7.85-10,16-2.22,6.95-.96,12.88-2,13-.85,.1-2.41-3.83-3-8-1.31-9.31,3.31-12.09,5-24,1.26-8.91-.4-13.88,3-16Z"/><path class="cls-20" d="M456.01,76.46c2.27,.81,.94,11.4-1,19-3.73,14.57-9.26,16.29-10,27-.57,8.21,2.59,8.54,3,19,.57,14.82-5.31,26.17-6,26-.62-.15,3.07-9.43,1-22-.41-2.49-1.32-6.79-2-10-1.69-7.97-2.32-9.88-2-13,.44-4.27,2.07-5.1,4-10,3.74-9.52,.09-12.78,3-22,2.45-7.77,7.96-14.73,10-14Z"/><path class="cls-8" d="M444.01,84.46c2.51,.14,4.01,7.18,5,12,1.74,8.42,3.87,18.78,1,33-2.77,13.72-6.62,13.33-11,31-2.82,11.38-3.33,20.06-4,20-.66-.06-.97-8.7,0-18,1.43-13.65,4.42-17.37,3-27-.84-5.7-1.9-4.48-3-11-1.96-11.58,.5-20.68,2-26,1.21-4.31,3.99-14.17,7-14Z"/><path class="cls-21" d="M432.01,101.46c3,.11,4.89,8.51,5,9,1.93,8.88-1.58,14-5,27-3.8,14.48-3.63,24.05-5,24-1.13-.04-1.83-6.59-2-10-.06-1.14-.19-4.65,1-13,1.37-9.66,2.26-9.93,2-14-.37-5.76-2.21-6.27-2-11,.25-5.85,3.38-12.1,6-12Z"/><path class="cls-36" d="M420.01,113.46c1.76-1.1,4.3-1.07,6,0,4.25,2.69,3.62,12.25,1,19-3.11,8.03-7.4,7.85-10,16-2.22,6.95-.96,12.88-2,13-.85,.1-2.41-3.83-3-8-1.31-9.31,3.31-12.09,5-24,1.26-8.91-.4-13.88,3-16Z"/></g><g><path class="cls-25" d="M340.7,69.46c-2.51,.14-4.01,7.18-5,12-1.74,8.42-3.87,18.78-1,33,2.77,13.72,6.62,13.33,11,31,2.82,11.38,3.33,20.06,4,20,.66-.06,.97-8.7,0-18-1.43-13.65-4.42-17.37-3-27,.84-5.7,1.9-4.48,3-11,1.96-11.58-.5-20.68-2-26-1.21-4.31-3.99-14.17-7-14Z"/><path class="cls-2" d="M379.88,131.79c1.42-1.1,3.47-1.07,4.84,0,3.43,2.69,2.92,12.25,.81,19-2.51,8.03-5.97,7.85-8.07,16-1.79,6.95-.78,12.88-1.61,13-.69,.1-1.95-3.83-2.42-8-1.06-9.31,2.67-12.09,4.04-24,1.02-8.91-.32-13.88,2.42-16Z"/><path class="cls-19" d="M374.49,124.84c-1.76-1.1-4.3-1.07-6,0-4.25,2.69-3.62,12.25-1,19,3.11,8.03,7.4,7.85,10,16,2.22,6.95,.96,12.88,2,13,.85,.1,2.41-3.83,3-8,1.31-9.31-3.31-12.09-5-24-1.26-8.91,.4-13.88-3-16Z"/><path class="cls-14" d="M363.49,126.84c-1.76-1.1-4.3-1.07-6,0-4.25,2.69-3.62,12.25-1,19,3.11,8.03,7.4,7.85,10,16,2.22,6.95,.96,12.88,2,13,.85,.1,2.41-3.83,3-8,1.31-9.31-3.31-12.09-5-24-1.26-8.91,.4-13.88-3-16Z"/><path class="cls-1" d="M340.7,76.46c-2.27,.81-.94,11.4,1,19,3.73,14.57,9.26,16.29,10,27,.57,8.21-2.59,8.54-3,19-.57,14.82,5.31,26.17,6,26,.62-.15-3.07-9.43-1-22,.41-2.49,1.32-6.79,2-10,1.69-7.97,2.32-9.88,2-13-.44-4.27-2.07-5.1-4-10-3.74-9.52-.09-12.78-3-22-2.45-7.77-7.96-14.73-10-14Z"/><path class="cls-34" d="M352.7,84.46c-2.51,.14-4.01,7.18-5,12-1.74,8.42-3.87,18.78-1,33,2.77,13.72,6.62,13.33,11,31,2.82,11.38,3.33,20.06,4,20,.66-.06,.97-8.7,0-18-1.43-13.65-4.42-17.37-3-27,.84-5.7,1.9-4.48,3-11,1.96-11.58-.5-20.68-2-26-1.21-4.31-3.99-14.17-7-14Z"/><path class="cls-23" d="M364.7,101.46c-3,.11-4.89,8.51-5,9-1.93,8.88,1.58,14,5,27,3.8,14.48,3.63,24.05,5,24,1.13-.04,1.83-6.59,2-10,.06-1.14,.19-4.65-1-13-1.37-9.66-2.26-9.93-2-14,.37-5.76,2.21-6.27,2-11-.25-5.85-3.38-12.1-6-12Z"/><path class="cls-28" d="M376.7,113.46c-1.76-1.1-4.3-1.07-6,0-4.25,2.69-3.62,12.25-1,19,3.11,8.03,7.4,7.85,10,16,2.22,6.95,.96,12.88,2,13,.85,.1,2.41-3.83,3-8,1.31-9.31-3.31-12.09-5-24-1.26-8.91,.4-13.88-3-16Z"/></g><path class="cls-13" d="M378.9,413.46c2.19-.13,3.14,3.21,9.07,5,2.58,.78,3.91,.6,4.95,2,2.09,2.81,.44,8.44,0,10-3.95,13.91-4.11,29.17-8.25,43-12.27,40.96-19.18,67.45-13.97,84,1.41,4.47,.75,6,0,9-.61,2.44-1.7,4-7,3-1.24-.23-3.45-.43-6-2-2.43-1.5-3.23-3.39-3-5,1-7,1.68-8.94,2-10,2.75-9.17,.1-23.45,1.57-48,.12-2.03,.44-7.98,1.65-16,.29-1.9,.54-3.36,.73-4.45,.84-4.76,1.9-9.58,5.87-29.55,5.27-26.48,7.92-40.74,12.37-41Z"/><path class="cls-11" d="M337.7,204.46c1.79,6.88,4.05,11.26,5,13,4.15,7.61,7.64,9.47,13,16,2.7,3.29,10.23,13.07,14,27,1.18,4.35,3.21,12.12,2,22-.9,7.41-3.3,13.34-4,15-2.69,6.41-4.48,7.3-5,10-1.77,9.17,10.6,48.84,23,53,10.21,3.43,16.01,1.24,21,0,6.58-1.64,21.02-32.48,25-42,.54-1.29,2.41-5.7,1-11-.45-1.69-1.61-2.5-4-7-.55-1.04-1.32-2.49-2-4-1.98-4.42-2.69-8.25-3-10-1.08-6.05-.56-10.98,0-16,.6-5.37,1.23-11.06,4-18,2.39-6,5.26-10.11,8-14,4.24-6.01,6.68-7.96,10-12,2.11-2.57,8.78-10.85,12-22,4.09-14.15,4.57-23.82,0-39-.43-1.43-2.07-6.21-3-9-1-3-3-4-12-5l-9-1c-9-1-13.71-3.19-19-5-8.03-2.75-21.04-5.68-33-1-3.47,1.36-5.1,2.71-10,4-6.65,1.75-9.52,1.45-15,2-10,1-12.97,2.27-16,5-13.95,12.57-4.74,42.3-3,49Z"/><g><path class="cls-44" d="M393.2,167.96c-1.11-1.19-40-18-50.44-16.5-1.52,.22-6.78,.52-10.94,6-4.7,6.19-5.02,14.8-5.11,17-.15,3.97,.48,5.12,0,9-.72,5.78-2.92,9.64-3.65,11-4.56,8.58-13.3,36.58-10.21,61,1.03,8.13,2.92,12.35,2.92,23,0,6.92-.8,8.58-1.46,18-.81,11.53-.4,20.21,0,28,0,0,.5,9.82,5.11,29,.13,.55,.49,1.98,1.46,3,1.03,1.09,2.45,1.4,3.65,1,1.63-.55,2.56-2.32,2.92-3,4.54-8.64,3.65-29,3.65-29,0-12.34-2.01-16.49-2.19-31-.01-1.05-.06-3.21,0-6,.05-2.28,.26-9.03,1.46-17,1.46-9.68,3.74-16.92,4.38-19,2.6-8.48,6.02-23.29,9.48-51"/><path d="M393.2,167.96c-7.97-4.16-16.56-7.24-24.97-10.37-6.37-2.23-12.81-4.4-19.47-5.62-6.63-1.51-13.93,.73-17.5,6.76-3.52,5.7-4.45,12.74-4.02,19.34,.61,5.71-.89,11.55-3.62,16.56-2.52,4.99-4.2,10.37-5.71,15.75-3.51,12.95-5.45,26.49-4.67,39.89,.44,9.04,3.51,17.75,3.43,26.86,.16,4.52-.4,9.13-.92,13.6-.91,8.93-1.12,17.93-.76,26.9,.22,11.7,2.52,23.51,5.18,34.88,.29,2.19,1.82,4.98,4.29,3.96,2.6-1.6,3.3-5.22,4.11-8.08,1.91-8.69,1.81-17.84,1.59-26.72-.38-8.96-2.12-17.96-2-26.99-.24-13.58,1.53-27.25,5.44-40.26,5.46-17.2,8.05-35.14,10.62-52.96-2.12,17.91-4.42,35.94-9.62,53.26-5,17.27-6.09,35.54-4.02,53.37,1.54,9.87,3.91,44.99-5.35,50.09-3.71,1.58-6.47-1.91-6.91-5.22-.65-2.76-1.29-5.51-1.86-8.28-1.87-8.73-3.32-17.97-3.45-26.97-.33-9.06-.08-18.15,.87-27.17,.53-4.49,1.1-8.86,.96-13.37,.1-9.04-2.94-17.76-3.32-26.78-.76-13.66,1.42-27.26,5.1-40.36,1.6-5.43,3.36-10.88,5.99-15.93,2.71-4.84,4.19-10.39,3.7-15.96-.3-6.79,.76-13.9,4.49-19.71,3.74-6.08,11.28-8.3,18.02-6.72,6.66,1.26,13.1,3.47,19.47,5.74,8.4,3.18,16.98,6.3,24.92,10.51h0Z"/></g><g><path class="cls-54" d="M369.7,302.46c-3.49,2.54-8.24,6.45-13,12-2.45,2.86-8.26,10.08-14,24-2.51,6.08-5.94,15.74-9,34,0,0-4.25,23.36-4,48,.04,3.45,.21,8.67,1,15,.75,5.98,1.62,9.54,2,11,1.55,6,3.26,9.54,4,11,2.43,4.77,4.3,6.42,5,7,1.08,.89,3.06,2.49,6,3,1.55,.27,3.75,.3,7-1,5.85-2.34,9.91-6.91,13-11,3.93-5.2,6.93-10.43,10-17,.94-2.01,4.87-10.52,9-24,3.48-11.37,5.31-20.42,6-24,3.71-19.32,3.98-34.47,4-40,.03-8.51-.47-15.69-1-21"/><path d="M369.7,302.46c-16.54,12.01-26.09,31.02-31.2,50.39-3.06,11.86-4.87,23.51-6.18,35.64-1.62,15.89-2.67,32.09-.53,47.94,1.36,9.84,5.87,31.22,18.77,30.14,7.87-1.16,13.54-7.52,17.99-13.82,6.14-8.7,10.41-18.6,14.04-28.59,7.34-20.1,11.84-41.22,13.36-62.58,.78-10.68,.62-21.43-.25-32.12,2.47,21.33,1.23,43.06-2.98,64.16-4.55,21.69-15.06,59.14-34.08,71.91-24.88,14.78-30.03-28.96-29.85-45,.02-22.88,2.67-45.86,8.53-67.99,5.36-19.42,15.42-38.49,32.38-50.07h0Z"/></g><g><path class="cls-60" d="M379.2,154.46c.61-.95,1.41-2.29,2.22-4,.71-1.5,3.25-7.08,4.44-16,.48-3.57,.22-3.81,.74-5,1.95-4.45,7.15-4.79,10.35-5,3.16-.21,8.2-1.12,10.35,2,.91,1.32,1.48,3,1.48,3,.17,.85,.45,2.25,.74,4,.4,2.38,.58,3.87,.74,5,1.03,7.36,3.11,13.32,3.7,15,.31,.87,.57,1.57,.74,2"/><path d="M379.2,154.46c3.99-7.21,5.57-15.48,6.15-23.62,.72-6.15,7.73-7.31,12.69-7.47,2.19-.16,4.53-.42,6.95,.32,1.19,.38,2.39,1.15,3.12,2.27,.68,1.01,1.28,2.44,1.55,3.32,1.45,8.8,2.11,17.7,5.03,26.18-2.8-6.09-4.57-12.69-5.57-19.29-.24-1.82-1.07-5.37-1.16-6.31-.71-1.79-1.54-3.75-3.58-4.32-1.84-.57-4.01-.37-6.18-.18-4.31,.22-10.2,.63-11.13,5.66-.84,8.22-3.01,16.67-7.89,23.44h0Z"/></g><path class="cls-30" d="M399.2,138.96c-6,0-8,0-10.5-.5-5.95-1.19-7.32-1.6-8-2-2.63-1.56-3.97-3.72-6-7-1.97-3.18-1.61-3.61-4-8-1.58-2.9-2.95-4.94-5-8-2.23-3.32-3.34-4.98-5-7-1.02-1.24-2.51-2.95-8-8-3.78-3.48-4.66-3.97-9-8-3.5-3.25-4.43-4.31-5-5-2.3-2.77-3.6-5.18-5-8-1.04-2.1-2.85-5.79-4-11-.46-2.1-1.19-5.5-1-10,0-.19,.17-3.63,1-7,2.31-9.35,9.39-16.44,11-18,7.59-7.35,15.67-9.83,26-13,6.2-1.9,16.29-4.92,30-5,15.59-.09,26.48,3.67,39,8,10.64,3.68,15.83,6.77,20,11,1.53,1.55,5.41,5.56,8,12,.34,.83,1.34,3.44,2,7,.28,1.54,1.2,7.02,0,14-.4,2.35-1.86,9.64-7,17-2.16,3.09-4.37,5.34-6,7-2.97,3.02-4.17,3.68-8,7-4.28,3.71-8.05,6.98-12,12-1.61,2.04-3.92,4.98-6,9-.46,.88-1.41,2.8-3,6-1.75,3.52-1.71,3.47-2,4-1.57,2.84-2.84,5.15-5,7-1.85,1.58-3.61,2.19-6,3-2.77,.93-5.5,1.5-11.5,1.5Z"/><g><path class="cls-59" d="M354.7,55.46c-3.54-3.56-8.04-8.84-12-16-5.81-10.51-6.83-16.4-7-18-.3-2.88-.17-5.31,0-7,4.97,1.2,10.63,2.03,16.87,2.06,.57,0,1.7,.17,3.13-.06,2.54-.39,4.31-1.56,5-2,3.26-2.12,6.82-3.77,10-6,7.43-5.22,16.08-6.55,19-7,8.84-1.36,15.85,.25,19,1,9.13,2.18,17.21,6.76,20,9,.37,.3,2.66,2.17,6,4,.94,.51,1.4,.77,2,1,2.05,.79,3.99,.71,8,0,3.99-.7,8.14-.75,12-2,.38-.12,1.28-.43,2,0,1.21,.72,1.07,3.03,1,4-.59,8.27-5,15-5,15-3.26,4.98-8.38,12.02-16,20"/><path d="M354.7,55.46c-5.61-5.37-10.25-11.74-13.86-18.62-3.7-6.85-6.83-14.49-5.81-22.45l.07-.76,.76,.17c5.33,1.23,10.78,1.87,16.25,1.87,1.88,.06,3.44,.15,5.18-.48,1.72-.53,3.1-1.62,4.67-2.54,2.39-1.43,4.8-2.68,7.11-4.18,2.26-1.55,4.76-3.16,7.27-4.23,13.98-6.26,29.86-5.33,43.58,1.13,3.38,1.58,6.71,3.29,9.7,5.67,2.09,1.64,4.4,3.15,6.79,4.3,2.39,1.32,4.95,.77,7.62,.4,3.61-.64,7.34-.71,10.88-1.52,1.48-.28,3.22-1.34,4.57,0,1.43,1.68,.83,3.97,.69,5.89-.61,4.17-2.03,8.2-4.05,11.88-4.84,7.84-10.97,14.92-17.4,21.46,5.56-6.12,10.73-12.62,15.19-19.57,2.64-4.2,4.4-9.01,5.04-13.93,.07-1.51,.55-3.56-.41-4.79-.56-.48-1.18-.17-1.92,.05-2.24,.72-4.6,1.05-6.89,1.34-4.6,.25-9.55,2.58-14.01,.36-2.59-1.23-4.94-2.74-7.2-4.49-2.79-2.2-6.07-3.87-9.36-5.38-9.89-4.46-21.01-6.4-31.72-4.23-5.32,.98-10.51,2.75-15.08,5.64-2.96,2.1-6.38,3.9-9.49,5.69-1.6,.94-3.19,2.12-5.03,2.67-1.77,.66-3.95,.64-5.73,.52-5.58-.11-11.14-.87-16.55-2.23l.83-.59c-.21,1.89-.27,3.79-.16,5.69,.4,5.73,2.94,11.08,5.36,16.24,3.36,6.96,7.79,13.39,13.12,19h0Z"/></g><g><ellipse class="cls-39" cx="429.7" cy="78.46" rx="15.5" ry="9.5" transform="translate(87.51 349.94) rotate(-48.77)"/><path d="M439.92,66.8c-2.65-2.22-6.45-1.72-9.41-.43-5.94,2.72-10.62,8.31-12.34,14.57-2.2,7.79,3.15,12.48,10.59,9.28,5.97-2.53,10.9-7.9,12.82-14.14,.89-3.1,.89-6.94-1.66-9.27h0Zm0,0c2.59,2.3,2.65,6.18,1.8,9.31-1.78,6.43-6.52,12.09-12.63,14.9-8.15,3.65-14.29-1.72-11.75-10.29,1.98-6.42,6.96-11.86,13.11-14.48,2.99-1.25,6.84-1.7,9.47,.56h0Z"/></g><ellipse class="cls-18" cx="424.09" cy="82.46" rx="9.01" ry="5.6" transform="translate(334.32 505.07) rotate(-89.01)"/><g><ellipse class="cls-39" cx="365.7" cy="78.46" rx="9.5" ry="15.5" transform="translate(38.94 260.45) rotate(-41.23)"/><path d="M355.49,66.8c2.62-2.27,6.48-1.82,9.47-.56,6.14,2.61,11.13,8.06,13.11,14.48,2.54,8.56-3.58,13.95-11.75,10.29-6.11-2.8-10.85-8.46-12.63-14.9-.85-3.13-.79-7.01,1.8-9.31h0Zm0,0c-2.55,2.33-2.55,6.17-1.66,9.27,1.92,6.24,6.84,11.62,12.82,14.15,7.43,3.2,12.79-1.48,10.59-9.28-1.72-6.26-6.4-11.85-12.34-14.57-2.96-1.29-6.76-1.79-9.41,.43h0Z"/></g><ellipse class="cls-18" cx="371.32" cy="82.46" rx="5.6" ry="9.01" transform="translate(-1.37 6.43) rotate(-.99)"/><g><ellipse class="cls-39" cx="444.98" cy="58.63" rx="6.74" ry="4.13" transform="translate(107.63 354.67) rotate(-48.77)"/><path d="M449.42,53.56c-4.37-3.17-11.92,6-8.56,9.77,4.17,2.83,12.28-5.85,8.56-9.77h0Zm0,0c3.89,4.21-4.39,14.15-9.22,10.52-4.23-4.31,4.53-13.82,9.22-10.52h0Z"/></g><ellipse class="cls-18" cx="442.54" cy="60.37" rx="3.92" ry="2.44" transform="translate(374.53 501.8) rotate(-89.01)"/><ellipse class="cls-7" cx="390.7" cy="100.96" rx="2" ry="4.5"/><ellipse class="cls-7" cx="404.7" cy="100.96" rx="2" ry="4.5"/><path class="cls-27" d="M380.7,118.46c3.01,1.5,9.02,4,17,4,3.36,0,9.86-.44,17-4h-34Z"/><rect class="cls-5" x="370.2" y="78.96" width="2" height="8" transform="translate(454.16 -288.25) rotate(90)"/><rect class="cls-5" x="423.2" y="78.96" width="2" height="8" transform="translate(507.16 -341.25) rotate(90)"/><rect class="cls-5" x="441.77" y="58.5" width="1.5" height="3.75" transform="translate(502.9 -382.15) rotate(90)"/><path d="M357.7,29.46c6.97,.26,14.07-.47,20.6-2.99,5.01-1.74,9.12-5.15,13.92-7.38,3.34-1.41,7.24-1.5,10.63-.21,4.87,2.08,9.11,5.29,14.19,6.87,6.59,2.29,13.66,2.97,20.67,2.72-3.49,.33-7.03,.37-10.54,.08-7.04-.57-13.95-2.83-20-6.47-6.64-4.25-12.65-4.11-19.14,.36-8.83,5.97-19.8,8.17-30.32,7.03h0Z"/><path d="M368.72,39.88c5.02,.13,10.12-.42,14.8-2.25,4.83-1.55,8.58-6.03,13.88-6.17,5.29-.08,9.21,4.27,14.1,5.64,4.72,1.66,9.81,2.18,14.86,2.06-2.52,.27-5.06,.32-7.6,.12-5.08-.38-10.1-1.99-14.47-4.62-8.93-5.68-12.57,.93-20.5,3.68-4.84,1.71-10.05,2.08-15.07,1.54h0Z"/><path d="M377.9,50.42c3.45,.02,6.95-.38,10.16-1.67,3.32-1.11,5.92-4.23,9.6-4.29,3.68-.08,6.39,2.94,9.76,3.93,3.23,1.16,6.72,1.55,10.2,1.53-1.73,.22-3.49,.27-5.25,.16-3.52-.23-7.01-1.33-10.04-3.12-5.88-3.88-8.7,.72-14.01,2.51-3.37,1.17-6.97,1.38-10.43,.95h0Z"/><g><ellipse class="cls-39" cx="346.98" cy="58.63" rx="4.13" ry="6.74" transform="translate(47.37 243.2) rotate(-41.23)"/><path d="M342.53,53.56c4.68-3.3,13.45,6.21,9.22,10.52-4.83,3.63-13.11-6.31-9.22-10.52h0Zm0,0c-3.72,3.92,4.39,12.6,8.56,9.77,3.36-3.76-4.18-12.94-8.56-9.77h0Z"/></g><ellipse class="cls-18" cx="349.42" cy="60.37" rx="2.44" ry="3.92" transform="translate(-.99 6.04) rotate(-.99)"/><rect class="cls-5" x="348.68" y="58.5" width="1.5" height="3.75" transform="translate(409.81 -289.06) rotate(90)"/><g><g><path class="cls-55" d="M321.45,345.13c-1.24,2.19-1.38,3.4-1.66,4.71-.41,1.9-.69,3.15-.33,5.66,.33,2.29,1.08,5.28,1.51,6.67,.48,1.57,2.05,2.56,3.05,3.61,6.03,6.31,7.35,8.36,7.96,12.1,.04,.24,.5,1.98,1.09,2.52,1.45,1.33,3.64,.92,4.26,.36,1.39-1.26,1.81-2.49,.84-4.39-.62-1.22-2.75-.7-4.46-2.42-5.24-5.28-8.11-11.15-8.22-11.93-.28-1.98,1.16-2.07,1.91-4.32,2.47-7.43,2.49-7.84,2.33-10.99-.09-1.76-.38-1.65-2.22-6.33"/><path d="M321.45,345.13c-1.32,2.52-1.84,5.46-1.95,8.27,.15,2.84,.92,5.64,1.69,8.37,.43,1.8,2.27,2.73,3.57,4.2,2.63,2.83,5.57,5.54,7.03,9.25,.7,1.61,.54,3.95,1.87,5.03,2.31,1.61,5.47-.51,4.27-3.27-.31-.98-1.08-.97-1.95-1.27-1.99-.44-3.34-2.2-4.62-3.67-1.88-2.22-3.57-4.59-4.97-7.14-1.04-1.9-2.12-3.76-.25-5.62,.6-.72,.9-1.52,1.21-2.46,1.22-3.59,2.76-7.21,2.17-11.07-.48-1.82-1.4-3.57-1.99-5.37,1.11,2.67,2.69,5.22,2.45,8.22-.04,2.92-1.2,5.68-1.99,8.43-.28,1.49-1.29,2.58-2.02,3.8-.47,1.3,.57,2.49,1.14,3.67,1.42,2.47,3.08,4.8,4.94,6.96,1.24,1.34,2.31,2.92,4.21,3.36,.45,.14,.92,.24,1.44,.48,1.05,.52,1.4,1.79,1.49,2.89,.05,1.12-.64,2.14-1.42,2.85-1.34,1.1-3.28,.93-4.66,0-1.84-1.65-1.47-3.85-2.18-5.5-.61-1.74-1.74-3.27-2.93-4.74-1.86-2.18-3.73-4.32-5.84-6.28-.7-.67-1.36-1.57-1.57-2.57-.72-2.81-1.47-5.64-1.48-8.55,.22-2.86,.86-5.81,2.37-8.28h0Z"/></g><g><path class="cls-66" d="M317.74,346.01c-1.49,2.63-1.65,4.07-1.99,5.65-.5,2.28-.82,3.77-.39,6.79,.39,2.74,1.3,6.32,1.81,7.99,.58,1.89,2.46,3.07,3.65,4.32,7.22,7.56,8.8,10.02,9.55,14.51,.05,.29,.6,2.37,1.31,3.03,1.74,1.6,4.36,1.11,5.11,.43,1.66-1.51,2.17-2.99,1.01-5.27-.75-1.46-3.3-.84-5.34-2.9-6.28-6.33-9.72-13.36-9.85-14.3-.34-2.37,1.39-2.48,2.29-5.18,2.96-8.91,2.99-9.4,2.8-13.18-.11-2.11-.73-3.2-2.89-5.36"/><path d="M317.74,346.01c-1.58,2.97-2.2,6.42-2.38,9.75,.24,3.84,1.1,7.82,2.49,11.4,.87,1.45,2.32,2.31,3.48,3.57,3.11,3.32,6.51,6.5,8.45,10.73,.95,1.98,.87,4.49,2.07,6.3,.9,1.07,2.79,1.38,4.12,.85,1.27-.66,2.25-2.2,1.88-3.62-.1-.47-.32-1.02-.55-1.41-.18-.33-.64-.53-1.14-.7-1.03-.31-2.25-.61-3.25-1.34-4.22-3.87-7.58-8.63-10.13-13.76-.54-1.01-.9-2.45-.22-3.57,.61-1.02,1.41-1.71,1.83-2.8,1.85-5.88,6.05-13.85,.4-18.87,.81,.78,1.63,1.58,2.23,2.56,1.52,3.09,.95,6.86,.04,10.06-.92,2.67-1.34,5.65-2.9,8.06-.34,.47-.73,.9-.96,1.34-.53,.95-.22,1.94,.28,2.89,2.02,3.98,4.64,7.69,7.63,11.02,1.53,1.83,2.88,3.01,5.33,3.51,1.91,.39,2.81,2.94,2.31,4.72-.4,1.21-1.28,2.33-2.43,2.84-1.81,.63-3.9,.33-5.25-1.2-1.35-1.97-1.18-4.41-2.15-6.52-.85-2.01-2.22-3.81-3.65-5.52-1.44-1.72-2.99-3.37-4.52-5.02-1.1-1.24-2.65-2.25-3.5-3.78-1.35-3.6-2.23-7.89-2.31-11.74,.29-3.37,1.02-6.83,2.79-9.75h0Z"/></g><g><path class="cls-61" d="M318.16,344.3c-2.21,2.87-2.65,4.55-3.33,6.37-.98,2.62-1.62,4.34-1.62,7.99,0,3.32,.46,7.73,.78,9.8,.36,2.34,2.39,4.07,3.6,5.76,7.29,10.21,8.75,13.4,8.86,18.86,0,.35,.31,2.92,1.04,3.82,1.79,2.2,4.99,2.06,5.99,1.38,2.23-1.51,3.09-3.17,2.1-6.08-.64-1.86-3.78-1.56-5.85-4.35-6.38-8.59-9.26-17.53-9.26-18.66,0-2.88,1.6-3,3.6-5.76,5.76-7.91,6.06-9.15,6.48-13.67,.23-2.53,.94-3.75-.72-10.79"/><path d="M318.16,344.3c-1.74,2.19-2.71,4.79-3.58,7.42-.99,2.59-1.28,5.33-1.11,8.09,.11,2.75,.38,5.5,.78,8.22,.14,1.34,.82,2.49,1.67,3.55,2.7,3.17,5.03,6.62,7.26,10.15,1.43,2.37,2.8,4.89,3.36,7.71,.67,2.51-.17,5.64,1.77,7.62,1.14,1.02,2.9,1.42,4.4,1.02,.83-.28,1.62-1.05,2.13-1.72,.76-.98,.78-2.29,.42-3.54-.14-.59-.38-1.05-.94-1.36-1.81-.93-4.03-1.74-5.16-3.62-.82-1.13-1.6-2.28-2.34-3.46-2.21-3.54-4.12-7.28-5.59-11.19-.67-2.01-1.76-4.24-.6-6.3,.38-.67,.92-1.17,1.4-1.65,2.79-2.96,5.17-6.49,7.09-10.05,1.23-2.45,1.16-5.32,1.62-8.03,.23-2.74-.35-5.49-.91-8.19,.86,3.33,1.54,6.82,.92,10.28l-.19,2.07c-.3,4.26-3.1,7.77-5.41,11.16-1.03,1.76-2.75,3.15-3.89,4.78-.63,1.17-.41,2.45,.05,3.72,.64,1.95,1.44,3.85,2.3,5.72,1.16,2.49,2.49,4.9,3.96,7.22,1.5,2.18,2.74,4.77,5.33,5.82,1.09,.54,2.67,.98,3.13,2.32,.98,2.5,.31,4.98-1.99,6.45-1.88,1.32-4.7,.75-6.38-.71-2.2-2.08-1.39-5.5-2.03-8.16-.5-2.65-1.8-5.09-3.21-7.44-2.2-3.48-4.45-6.98-7.08-10.17-.86-1.09-1.62-2.44-1.74-3.89-.35-2.76-.58-5.52-.64-8.3-.09-2.78,.28-5.62,1.35-8.19,.93-2.6,2-5.21,3.83-7.33h0Z"/></g><g><path class="cls-42" d="M329.82,338.96c1.6,.63,4.41,2.83,6.7,7.01,.49,.9,2.09,4.09,2.69,8.96,.7,5.66,.11,8.62-1.18,11.45-2.84,6.21-5.2,8.21-4.89,12.14,.12,1.47,.73,4.08-.68,5.38-.49,.45-1.08,.6-1.35,.67-1.41,.36-3.29-.08-4.03-1.35-.9-1.54,.34-3.58,1.02-4.7,.47-.77,.94-1.27,1.01-1.34,.48-.51,6.15-10.33,2.85-15.03-1.85-2.63-6.37-1.38-9.28-8.19"/><path d="M329.82,338.96c7.1,3.5,9.76,12.12,10.06,19.53,.34,3.9-1.04,7.75-2.92,11.08-1.24,2.52-3.04,4.81-3.33,7.62-.17,1.89,.64,3.83-.03,5.79-.72,2.22-3.64,2.65-5.53,1.72-3.44-1.71-1-5.94,.8-7.95,1.87-3.13,3.5-6.76,3.78-10.44,.15-3.43-1.14-5-4.28-6.18-2.69-1.12-4.7-3.49-5.69-6.18,.8,1.72,1.89,3.34,3.4,4.47,1.52,1.22,3.42,1.57,5.07,2.6,4.58,3.66,.84,12.13-1.56,16.23-1.1,1.36-2.3,3.03-2.36,4.78,.06,2.59,4.72,3,5.45,.63,.55-1.75-.23-3.67-.02-5.56,.09-1.01,.4-1.99,.79-2.89,1.62-3.47,3.87-6.57,5.01-10.19,2.01-8.42-.61-20.57-8.64-25.07h0Z"/></g></g><g><path class="cls-31" d="M356.62,557.51c-2.74,1.85-5.22,2.88-6.94,3.47-3.83,1.31-8.87,3.04-13.01,.87-1.89-.99-2.24-2.09-4.34-2.6-.37-.09-3.33-.77-6.07,.87-3.43,2.05-5.1,6.88-3.47,10.4,2.25,4.86,9.47,4.4,10.4,4.34,4.04-.26,4.85-2.18,9.54-3.47,4.89-1.34,7.46-.21,13.01,0,4.07,.15,9.97-.18,17.34-2.6"/><path class="cls-37" d="M367.09,555.96c1.06,1.05,2.65,2.52,4.68,4.03,3.65,2.71,5.91,4.39,9.04,4.72,2.96,.31,6.53-.59,6.8-.66,1.36-.35,2.19-.71,3.4-.33,1.41,.45,3.12,1.84,3.83,4.11,.93,2.95-.09,6.47-1.8,8.02-1.89,1.72-3.68,.13-10.42-1.23-3.58-.72-6.31-.92-10.42-1.23-4.24-.31-5.99-1.09-8.61-.28-.99,.31-1.42,.58-4.89,2.72-8.01,4.94-8.63,5.26-9.77,5.43-.94,.14-6.42,.97-8.94-3.61-2.27-4.14-.73-8.1,1.78-9.62,1.9-1.16,3.09-1.45,6.61-1.28,3.4,.16,6.2-2.02,8.18-4.16"/></g><path class="cls-33" d="M415.98,413.46c-2.19-.13-3.14,3.21-9.07,5-2.58,.78-3.91,.6-4.95,2-2.09,2.81-.44,8.44,0,10,3.95,13.91,4.11,29.17,8.25,43,12.27,40.96,19.18,67.45,13.97,84-1.41,4.47-.75,6,0,9,.61,2.44,1.7,4,7,3,1.24-.23,3.45-.43,6-2,2.43-1.5,3.23-3.39,3-5-1-7-1.68-8.94-2-10-2.75-9.17-.1-23.45-1.57-48-.12-2.03-.44-7.98-1.65-16-.29-1.9-.54-3.36-.73-4.45-.84-4.76-1.9-9.58-5.87-29.55-5.27-26.48-7.92-40.74-12.37-41Z"/><g><path class="cls-48" d="M425.18,302.46c3.49,2.54,8.24,6.45,13,12,2.45,2.86,8.26,10.08,14,24,2.51,6.08,5.94,15.74,9,34,0,0,4.25,23.36,4,48-.04,3.45-.21,8.67-1,15-.75,5.98-1.62,9.54-2,11-1.55,6-3.26,9.54-4,11-2.43,4.77-4.3,6.42-5,7-1.08,.89-3.06,2.49-6,3-1.55,.27-3.75,.3-7-1-5.85-2.34-9.91-6.91-13-11-3.93-5.2-6.93-10.43-10-17-.94-2.01-4.87-10.52-9-24-3.48-11.37-5.31-20.42-6-24-3.71-19.32-3.98-34.47-4-40-.03-8.51,.47-15.69,1-21"/><path d="M425.18,302.46c16.96,11.59,27.02,30.65,32.38,50.07,5.86,22.14,8.51,45.11,8.53,67.99,.18,16.06-4.97,59.79-29.85,45-19.01-12.75-29.53-50.22-34.08-71.91-4.21-21.09-5.45-42.82-2.98-64.16-.88,10.69-1.03,21.44-.25,32.12,1.52,21.35,6.02,42.48,13.36,62.58,3.63,9.99,7.9,19.89,14.04,28.59,4.44,6.3,10.12,12.66,17.99,13.82,12.93,1.07,17.41-20.32,18.77-30.14,2.13-15.85,1.08-32.05-.53-47.94-1.32-12.12-3.12-23.78-6.18-35.64-5.11-19.37-14.67-38.39-31.2-50.39h0Z"/></g><g><path class="cls-16" d="M438.26,557.51c2.74,1.85,5.22,2.88,6.94,3.47,3.83,1.31,8.87,3.04,13.01,.87,1.89-.99,2.24-2.09,4.34-2.6,.37-.09,3.33-.77,6.07,.87,3.43,2.05,5.1,6.88,3.47,10.4-2.25,4.86-9.47,4.4-10.4,4.34-4.04-.26-4.85-2.18-9.54-3.47-4.89-1.34-7.46-.21-13.01,0-4.07,.15-9.97-.18-17.34-2.6"/><path class="cls-6" d="M427.8,555.96c-1.06,1.05-2.65,2.52-4.68,4.03-3.65,2.71-5.91,4.39-9.04,4.72-2.96,.31-6.53-.59-6.8-.66-1.36-.35-2.19-.71-3.4-.33-1.41,.45-3.12,1.84-3.83,4.11-.93,2.95,.09,6.47,1.8,8.02,1.89,1.72,3.68,.13,10.42-1.23,3.58-.72,6.31-.92,10.42-1.23,4.24-.31,5.99-1.09,8.61-.28,.99,.31,1.42,.58,4.89,2.72,8.01,4.94,8.63,5.26,9.77,5.43,.94,.14,6.42,.97,8.94-3.61,2.27-4.14,.73-8.1-1.78-9.62-1.9-1.16-3.09-1.45-6.61-1.28-3.4,.16-6.2-2.02-8.18-4.16"/></g><g><path class="cls-46" d="M403.2,167.96c1.11-1.19,40-18,50.44-16.5,1.52,.22,6.78,.52,10.94,6,4.7,6.19,5.02,14.8,5.11,17,.15,3.97-.48,5.12,0,9,.72,5.78,2.92,9.64,3.65,11,4.56,8.58,13.3,36.58,10.21,61-1.03,8.13-2.92,12.35-2.92,23,0,6.92,.8,8.58,1.46,18,.81,11.53,.4,20.21,0,28,0,0-.5,9.82-5.11,29-.13,.55-.49,1.98-1.46,3-1.03,1.09-2.45,1.4-3.65,1-1.63-.55-2.56-2.32-2.92-3-4.54-8.64-3.65-29-3.65-29,0-12.34,2.01-16.49,2.19-31,.01-1.05,.06-3.21,0-6-.05-2.28-.26-9.03-1.46-17-1.46-9.68-3.74-16.92-4.38-19-2.6-8.48-6.02-23.29-9.48-51"/><path d="M403.2,167.96c7.95-4.21,16.52-7.33,24.92-10.51,6.37-2.27,12.81-4.48,19.47-5.74,6.74-1.56,14.27,.61,18.02,6.72,3.72,5.81,4.79,12.92,4.49,19.71-.48,5.57,.99,11.12,3.7,15.96,2.62,5.05,4.39,10.5,5.99,15.93,3.68,13.1,5.86,26.7,5.1,40.36-.39,9.02-3.43,17.74-3.32,26.78-.14,4.52,.43,8.88,.96,13.37,.96,9.02,1.2,18.11,.87,27.17-.13,8.99-1.57,18.24-3.45,26.97-.57,2.76-1.21,5.54-1.86,8.28-.44,3.25-3.17,6.85-6.91,5.22-9.27-5.09-6.88-40.34-5.35-50.09,2.07-17.83,.98-36.09-4.02-53.37-5.2-17.32-7.5-35.35-9.62-53.26,2.58,17.82,5.16,35.77,10.62,52.96,3.91,13.01,5.68,26.68,5.44,40.26,.12,9.03-1.62,18.03-2,26.99-.22,8.88-.32,18.03,1.59,26.72,.8,2.88,1.51,6.48,4.11,8.08,2.47,.98,4-1.76,4.29-3.96,2.67-11.37,4.96-23.18,5.18-34.88,.36-8.97,.15-17.97-.76-26.9-.52-4.47-1.08-9.08-.92-13.6-.08-9.11,2.99-17.82,3.43-26.86,.78-13.4-1.16-26.94-4.67-39.89-1.52-5.38-3.2-10.76-5.71-15.75-2.74-5-4.23-10.85-3.62-16.56,.42-6.6-.51-13.63-4.02-19.34-5.71-8.99-15.08-7.9-24.08-5.25-4.35,1.19-8.63,2.6-12.88,4.11-8.42,3.13-17.01,6.21-24.97,10.37h0Z"/></g><g><g><path class="cls-43" d="M474.96,345.13c1.24,2.19,1.38,3.4,1.66,4.71,.41,1.9,.69,3.15,.33,5.66-.33,2.29-1.08,5.28-1.51,6.67-.48,1.57-2.05,2.56-3.05,3.61-6.03,6.31-7.35,8.36-7.96,12.1-.04,.24-.5,1.98-1.09,2.52-1.45,1.33-3.64,.92-4.26,.36-1.39-1.26-1.81-2.49-.84-4.39,.62-1.22,2.75-.7,4.46-2.42,5.24-5.28,8.11-11.15,8.22-11.93,.28-1.98-1.16-2.07-1.91-4.32-2.47-7.43-2.49-7.84-2.33-10.99,.09-1.76,.38-1.65,2.22-6.33"/><path d="M474.96,345.13c1.51,2.47,2.15,5.41,2.37,8.28-.02,2.91-.77,5.75-1.48,8.55-.45,2.03-2.38,3.12-3.61,4.57-1.29,1.41-2.6,2.81-3.81,4.27-1.19,1.47-2.32,3-2.93,4.74-.72,1.66-.35,3.85-2.18,5.5-1.38,.93-3.32,1.09-4.66,0-.78-.71-1.47-1.73-1.42-2.85,.08-1.09,.44-2.37,1.49-2.89,.51-.24,.99-.34,1.44-.48,1.9-.44,2.97-2.02,4.21-3.36,1.86-2.15,3.52-4.49,4.94-6.96,.57-1.18,1.61-2.38,1.14-3.67-.73-1.22-1.73-2.31-2.02-3.8-.79-2.76-1.95-5.52-1.99-8.43-.24-3,1.34-5.55,2.45-8.22-.59,1.8-1.51,3.56-1.99,5.37-.6,3.87,.95,7.48,2.17,11.07,.31,.94,.6,1.74,1.21,2.46,1.87,1.87,.79,3.71-.25,5.62-1.4,2.55-3.09,4.93-4.97,7.14-1.29,1.47-2.64,3.23-4.62,3.67-.87,.3-1.64,.28-1.95,1.27-1.21,2.74,1.95,4.88,4.27,3.27,1.33-1.08,1.18-3.43,1.87-5.03,1.46-3.71,4.4-6.41,7.03-9.25,1.3-1.47,3.14-2.4,3.57-4.2,.77-2.73,1.54-5.53,1.69-8.37-.1-2.82-.63-5.75-1.95-8.27h0Z"/></g><g><path class="cls-52" d="M478.67,346.01c1.49,2.63,1.65,4.07,1.99,5.65,.5,2.28,.82,3.77,.39,6.79-.39,2.74-1.3,6.32-1.81,7.99-.58,1.89-2.46,3.07-3.65,4.32-7.22,7.56-8.8,10.02-9.55,14.51-.05,.29-.6,2.37-1.31,3.03-1.74,1.6-4.36,1.11-5.11,.43-1.66-1.51-2.17-2.99-1.01-5.27,.75-1.46,3.3-.84,5.34-2.9,6.28-6.33,9.72-13.36,9.85-14.3,.34-2.37-1.39-2.48-2.29-5.18-2.96-8.91-2.99-9.4-2.8-13.18,.11-2.11,.73-3.2,2.89-5.36"/><path d="M478.67,346.01c1.77,2.92,2.5,6.38,2.79,9.75-.09,3.84-.96,8.15-2.31,11.74-.85,1.53-2.4,2.54-3.5,3.78-1.53,1.66-3.08,3.3-4.52,5.02-1.43,1.72-2.81,3.51-3.65,5.52-.96,2.11-.79,4.55-2.15,6.52-1.35,1.53-3.44,1.83-5.25,1.2-1.16-.51-2.02-1.63-2.43-2.84-.5-1.78,.4-4.34,2.32-4.72,1.13-.33,2.15-.59,3.01-1.19,.84-.62,1.6-1.54,2.33-2.31,2.99-3.33,5.62-7.04,7.63-11.02,.5-.95,.81-1.95,.28-2.89-.23-.44-.62-.86-.96-1.34-1.57-2.41-1.98-5.39-2.9-8.06-.9-3.2-1.47-6.97,.04-10.06,.6-.98,1.42-1.78,2.23-2.56-.77,.82-1.55,1.66-2.09,2.64-1.37,3.08-.62,6.72,.33,9.83,.96,2.6,1.46,5.46,2.96,7.79,.32,.44,.72,.85,1.03,1.41,.68,1.12,.32,2.56-.22,3.57-2.55,5.13-5.91,9.89-10.13,13.76-1,.73-2.22,1.03-3.25,1.34-.5,.17-.96,.37-1.14,.7-.23,.39-.45,.94-.55,1.41-.38,1.43,.61,2.96,1.88,3.62,1.33,.52,3.22,.21,4.12-.85,1.2-1.81,1.11-4.32,2.07-6.3,1.94-4.23,5.34-7.41,8.45-10.73,1.17-1.26,2.62-2.12,3.48-3.57,1.39-3.58,2.25-7.56,2.49-11.4-.17-3.33-.79-6.78-2.38-9.75h0Z"/></g><g><path class="cls-62" d="M478.25,344.3c2.21,2.87,2.65,4.55,3.33,6.37,.98,2.62,1.62,4.34,1.62,7.99,0,3.32-.46,7.73-.78,9.8-.36,2.34-2.39,4.07-3.6,5.76-7.29,10.21-8.75,13.4-8.86,18.86,0,.35-.31,2.92-1.04,3.82-1.79,2.2-4.99,2.06-5.99,1.38-2.23-1.51-3.09-3.17-2.1-6.08,.64-1.86,3.78-1.56,5.85-4.35,6.38-8.59,9.26-17.53,9.26-18.66,0-2.88-1.6-3-3.6-5.76-5.76-7.91-6.06-9.15-6.48-13.67-.23-2.53-.94-3.75,.72-10.79"/><path d="M478.25,344.3c1.83,2.12,2.9,4.72,3.83,7.33,1.07,2.58,1.45,5.41,1.35,8.19-.06,2.78-.29,5.54-.64,8.3-.12,1.45-.88,2.8-1.74,3.89-2.63,3.19-4.88,6.69-7.08,10.17-1.4,2.35-2.7,4.79-3.21,7.44-.63,2.66,.17,6.08-2.03,8.16-1.68,1.47-4.5,2.03-6.38,.71-2.29-1.49-2.97-3.93-1.99-6.45,.46-1.35,2.03-1.78,3.13-2.32,2.59-1.05,3.83-3.64,5.33-5.82,2.2-3.48,4.09-7.16,5.58-11,.62-1.79,1.72-3.85,.74-5.65-1.14-1.62-2.86-3.02-3.89-4.78-2.3-3.38-5.1-6.89-5.41-11.15l-.19-2.07c-.62-3.45,.06-6.95,.92-10.28-.56,2.7-1.13,5.45-.91,8.19,.46,2.71,.38,5.58,1.62,8.03,1.2,2.45,2.86,4.68,4.47,6.92,.82,1.13,1.61,2.2,2.62,3.14,1.07,.91,2.01,2.34,1.93,3.82-.35,2.81-1.64,5.4-2.74,7.98-1.75,3.79-3.86,7.42-6.32,10.8-.78,1.21-2.07,2.16-3.35,2.74-.97,.52-2.18,.74-2.61,1.78-.83,2.14-.26,4.1,1.64,5.33,1.53,1.06,3.84,.51,5.16-.62,1.02-.85,1.12-2.24,1.34-3.47-.02-4.22,1.51-8.38,3.79-11.86,1.86-2.96,3.81-5.8,5.94-8.56,1.28-1.53,2.79-3.08,2.99-5.14,.53-4.07,1.06-8.23,.66-12.33-.75-4.01-2.13-8.09-4.58-11.4h0Z"/></g><g><path class="cls-50" d="M466.59,338.96c-1.6,.63-4.41,2.83-6.7,7.01-.49,.9-2.09,4.09-2.69,8.96-.7,5.66-.11,8.62,1.18,11.45,2.84,6.21,5.2,8.21,4.89,12.14-.12,1.47-.73,4.08,.68,5.38,.49,.45,1.08,.6,1.35,.67,1.41,.36,3.29-.08,4.03-1.35,.9-1.54-.34-3.58-1.02-4.7-.47-.77-.94-1.27-1.01-1.34-.48-.51-6.15-10.33-2.85-15.03,1.85-2.63,6.37-1.38,9.28-8.19"/><path d="M466.59,338.96c-8.03,4.48-10.65,16.66-8.64,25.07,1.14,3.61,3.4,6.72,5.01,10.19,.39,.9,.7,1.88,.79,2.89,.21,1.88-.57,3.8-.02,5.56,.73,2.37,5.39,1.96,5.45-.63-.07-1.75-1.26-3.43-2.36-4.78-2.4-4.1-6.14-12.57-1.56-16.23,1.66-1.03,3.55-1.38,5.07-2.6,1.5-1.13,2.6-2.75,3.4-4.47-1,2.69-3,5.06-5.7,6.18-3.15,1.19-4.43,2.74-4.28,6.18,.28,3.68,1.91,7.32,3.78,10.44,1.8,2.01,4.24,6.24,.8,7.95-1.88,.93-4.8,.51-5.53-1.72-.67-1.96,.14-3.9-.03-5.79-.29-2.81-2.09-5.1-3.33-7.62-1.88-3.33-3.27-7.19-2.92-11.08,.3-7.41,2.96-16.03,10.06-19.53h0Z"/></g></g><path d="M350.56,209.18c2.44,12.65,12.51,23.65,25.45,25.7,4.22,.76,8.59,.69,12.82-.14-4.15,1.25-8.61,1.51-12.94,.9-13.26-1.65-23.98-13.31-25.32-26.46h0Z"/><path d="M445.82,209.18c-1.35,13.15-12.06,24.8-25.32,26.46-4.33,.61-8.78,.35-12.94-.9,4.22,.83,8.59,.9,12.82,.14,12.94-2.05,23.01-13.05,25.45-25.7h0Z"/><ellipse class="cls-3" cx="397.7" cy="292.96" rx="1" ry="1.5"/></g></g><g id="MALE"><g><g><path class="cls-15" d="M123.7,413.46c-2.65-.13-3.81,3.21-11,5-3.13,.78-4.73,.6-6,2-2.54,2.81-.54,8.44,0,10,4.79,13.91,4.98,29.17,10,43,14.87,40.96,22.31,61.45,16,78-1.71,4.47-6.26,14.06-3,17,2.06,1.86,6.3,4.61,14,0,1.24-.74,4.98,1.54,8.07-.03,2.94-1.5,3.6-5.37,3.93-6.97,1.09-5.37-.61-9.94-1-11-3.33-9.17-4.22-21.45-6-46-.15-2.03-.54-7.98-2-16-.35-1.9-.65-3.36-.89-4.45-1.01-4.76-2.3-9.58-7.11-29.55-6.38-26.48-9.6-40.74-15-41Z"/><path class="cls-32" d="M149.7,553.61c3.31,2.23,6.3,3.47,8.36,4.18,4.61,1.58,10.69,3.66,15.67,1.04,2.28-1.2,2.7-2.52,5.22-3.13,.44-.11,4.01-.93,7.31,1.04,4.13,2.47,6.15,8.29,4.18,12.54-2.71,5.86-11.41,5.3-12.54,5.22-4.87-.31-5.84-2.63-11.49-4.18-5.89-1.62-8.99-.25-15.67,0-4.9,.18-12.01-.22-20.9-3.13"/><path class="cls-35" d="M137.09,551.74c-1.28,1.27-3.19,3.03-5.64,4.85-4.4,3.27-7.12,5.29-10.9,5.69-3.57,.38-7.87-.71-8.2-.8-1.64-.43-2.64-.86-4.1-.4-1.7,.54-3.76,2.22-4.62,4.95-1.13,3.56,.11,7.8,2.16,9.66,2.28,2.07,4.44,.15,12.56-1.48,4.31-.87,7.6-1.11,12.56-1.48,5.11-.38,7.22-1.31,10.38-.34,1.2,.37,1.71,.7,5.89,3.27,9.66,5.95,10.4,6.34,11.78,6.55,1.14,.17,7.74,1.17,10.77-4.35,2.73-4.99,.88-9.76-2.14-11.6-2.29-1.4-3.73-1.74-7.96-1.54-4.1,.2-7.48-2.44-9.86-5.01"/><path class="cls-10" d="M79.7,413.46c2.65-.13,3.81,3.21,11,5,3.13,.78,4.73,.6,6,2,2.54,2.81,.54,8.44,0,10-4.79,13.91-4.98,29.17-10,43-14.87,40.96-22.31,61.45-16,78,1.71,4.47,6.26,14.06,3,17-2.06,1.86-6.3,4.61-14,0-1.24-.74-4.98,1.54-8.07-.03-2.94-1.5-3.6-5.37-3.93-6.97-1.09-5.37,.61-9.94,1-11,3.33-9.17,4.22-21.45,6-46,.15-2.03,.54-7.98,2-16,.35-1.9,.65-3.36,.89-4.45,1.01-4.76,2.3-9.58,7.11-29.55,6.38-26.48,9.6-40.74,15-41Z"/><path class="cls-22" d="M41.7,204.46c1.79,6.88,4.05,11.26,5,13,4.15,7.61,7.64,9.47,13,16,2.7,3.29,10.23,13.07,14,27,1.18,4.35,3.21,12.12,2,22-.9,7.41-3.3,13.34-4,15-2.69,6.41-4.48,7.3-5,10-1.77,9.17,10.6,48.84,23,53,10.21,3.43,16.01,1.24,21,0,6.58-1.64,21.02-32.48,25-42,.54-1.29,2.41-5.7,1-11-.45-1.69-1.61-2.5-4-7-.55-1.04-1.32-2.49-2-4-1.98-4.42-2.69-8.25-3-10-1.08-6.05-.56-10.98,0-16,.6-5.37,1.23-11.06,4-18,2.39-6,5.26-10.11,8-14,4.24-6.01,6.68-7.96,10-12,2.11-2.57,8.78-10.85,12-22,4.09-14.15,.57-25.82-4-41-.43-1.43-1.18-3.69-3-6-3.2-4.06-7.55-5.53-9-6-3.48-1.13-6.24-.99-8-1-8.28-.03-13.71-3.19-19-5-8.03-2.75-21.04-5.68-33-1-3.47,1.36-5.1,2.71-10,4-6.65,1.75-9.62,.82-15,2-5.87,1.28-10.97,4.27-14,7-13.95,12.57-6.74,40.3-5,47Z"/><g><path class="cls-63" d="M57.7,156.46c-1.52-1.19-7.01-5.2-15-5-2.11,.05-9.29,.52-15,6-6.44,6.19-6.89,14.8-7,17-.2,3.97,.66,5.12,0,9-.99,5.78-4.01,9.64-5,11-6.25,8.58-18.22,36.58-14,61,1.41,8.13,4,12.35,4,23,0,6.92-1.09,8.58-2,18-1.11,11.53-.54,20.21,0,28,0,0,.68,9.82,7,29,.18,.55,.67,1.98,2,3,1.41,1.09,3.36,1.4,5,1,2.23-.55,3.51-2.32,4-3,6.22-8.64,5-29,5-29,0-12.34-2.75-16.49-3-31-.02-1.05-.08-3.21,0-6,.07-2.28,.35-9.03,2-17,2-9.68,5.13-16.92,6-19,3.56-8.48,8.25-23.29,13-51"/><path d="M57.7,156.46c-9.98-7.94-26.63-5.9-33.08,5.5-2.64,4.49-3.65,9.86-3.4,15.03,.42,3.19,.33,6.55-.71,9.62-1.13,4.19-4.07,7.58-6.21,11.18C5.8,213.35,.91,231.45,1.88,249.22l.09,1.57,.21,1.55c.59,6.37,3.03,12.22,3.94,18.63,.58,4.29,.68,8.6,.24,12.92-.55,4.26-1.34,8.33-1.69,12.59-.93,9.18-.69,18.43,.02,27.65,1.11,10.13,3.99,20.07,7.17,29.72,1.2,3.08,5.53,3.78,7.86,1.51,1.43-1.3,2.35-3.2,3.16-4.98,3.6-9.79,3.26-20.73,2.73-31.03-.55-6.33-2.03-12.53-2.39-18.92-1.27-17.02,1.67-34.35,8.74-49.87,6.23-15.74,9.57-32.5,12.75-49.09-2.76,16.73-5.88,33.51-11.84,49.46-3.33,7.8-5.87,15.87-7.2,24.2-1.37,8.31-1.55,16.8-.93,25.19,.65,8.4,3,16.79,2.84,25.29,.31,8.53,.1,30.08-9.84,32.81-3.03,.69-6.42-.87-7.6-3.8-.95-2.52-1.67-5.11-2.47-7.68-2.2-7.69-4.36-15.49-5.03-23.5-.67-9.01-.8-18.12,.13-27.14,.36-4.2,1.19-8.46,1.74-12.61,.44-4.11,.36-8.35-.19-12.45-.84-6.15-3.32-12.35-3.87-18.67l-.21-1.6-.09-1.61c-.88-13.93,2.34-27.82,7.48-40.67,1.61-3.95,3.41-7.83,5.6-11.51,2.17-3.58,5.05-6.78,6.22-10.88,.61-1.97,1.04-4.03,.98-6.07-.11-2.07-.39-4.3-.17-6.39,.3-4.28,1.46-8.56,3.72-12.24,6.8-11.51,23.7-13.47,33.73-5.11h0Z"/></g><g><path class="cls-57" d="M144.82,156.46c1.52-1.19,7.01-5.2,15-5,2.11,.05,9.29,.52,15,6,6.44,6.19,6.89,14.8,7,17,.2,3.97-.66,5.12,0,9,.99,5.78,4.01,9.64,5,11,6.25,8.58,18.22,36.58,14,61-1.41,8.13-4,12.35-4,23,0,6.92,1.09,8.58,2,18,1.11,11.53,.54,20.21,0,28,0,0-.68,9.82-7,29-.18,.55-.67,1.98-2,3-1.41,1.09-3.36,1.4-5,1-2.23-.55-3.51-2.32-4-3-6.22-8.64-5-29-5-29,0-12.34,2.75-16.49,3-31,.02-1.05,.08-3.21,0-6-.07-2.28-.35-9.03-2-17-2-9.68-5.13-16.92-6-19-3.56-8.48-8.25-23.29-13-51"/><path d="M144.82,156.46c10.03-8.35,26.92-6.42,33.73,5.11,2.81,4.62,3.97,10.11,3.77,15.48-.36,3.15-.29,6.2,.76,9.23,1.17,4.1,4.05,7.29,6.22,10.88,2.19,3.69,3.99,7.56,5.6,11.51,5.13,12.85,8.35,26.74,7.48,40.67l-.09,1.61-.21,1.6c-.56,6.33-3.03,12.52-3.88,18.67-.54,4.11-.63,8.34-.19,12.45,.55,4.15,1.38,8.41,1.74,12.61,.93,9.02,.8,18.13,.13,27.14-.67,8-2.82,15.81-5.03,23.5-.8,2.57-1.53,5.16-2.47,7.68-1.19,2.92-4.57,4.5-7.6,3.8-9.96-2.73-10.14-24.36-9.84-32.81-.16-8.5,2.19-16.88,2.84-25.29,.63-8.39,.45-16.87-.93-25.19-1.32-8.33-3.86-16.4-7.2-24.2-5.96-15.95-9.08-32.73-11.84-49.46,3.18,16.6,6.53,33.35,12.75,49.09,7.08,15.52,10.01,32.85,8.74,49.87-.36,6.39-1.84,12.59-2.39,18.92-.53,10.3-.87,21.24,2.73,31.03,1.15,2.53,2.6,5.56,5.52,6.22,2.9,.63,5.42-1.29,5.98-4.16,2.97-9.5,5.86-19.18,6.74-29.12,.68-8.95,.86-17.92-.04-26.84-.35-4.25-1.14-8.33-1.69-12.59-.45-4.31-.34-8.63,.24-12.92,.9-6.41,3.34-12.26,3.94-18.63l.21-1.55,.09-1.57c.97-17.77-3.93-35.86-12.43-51.42-2.14-3.6-5.07-7-6.21-11.18-.62-2.08-1.04-4.23-.96-6.44,.13-2.16,.42-4.15,.25-6.3-.22-4.16-1.28-8.32-3.4-11.92-6.45-11.38-23.11-13.45-33.08-5.5h0Z"/></g><g><path class="cls-65" d="M73.7,302.46c-3.49,2.54-8.24,6.45-13,12-2.45,2.86-8.26,10.08-14,24-2.51,6.08-5.94,15.74-9,34,0,0-4.25,23.36-4,48,.04,3.45,.21,8.67,1,15,.75,5.98,1.62,9.54,2,11,1.55,6,3.26,9.54,4,11,2.43,4.77,4.3,6.42,5,7,1.08,.89,3.06,2.49,6,3,1.55,.27,3.75,.3,7-1,5.85-2.34,9.91-6.91,13-11,3.93-5.2,6.93-10.43,10-17,.94-2.01,4.87-10.52,9-24,3.48-11.37,5.31-20.42,6-24,3.71-19.32,3.98-34.47,4-40,.03-8.51-.47-15.69-1-21"/><path d="M73.7,302.46c-16.54,12.01-26.09,31.02-31.2,50.39-3.06,11.86-4.87,23.51-6.18,35.64-1.62,15.89-2.67,32.09-.53,47.94,1.36,9.84,5.87,31.22,18.77,30.14,7.87-1.16,13.54-7.52,17.99-13.82,6.14-8.7,10.41-18.6,14.04-28.59,7.34-20.1,11.84-41.22,13.36-62.58,.78-10.68,.62-21.43-.25-32.12,2.47,21.33,1.23,43.06-2.98,64.16-4.55,21.69-15.06,59.14-34.08,71.91-24.88,14.78-30.03-28.96-29.85-45,.02-22.88,2.67-45.86,8.53-67.99,5.36-19.42,15.42-38.49,32.38-50.07h0Z"/></g><g><path class="cls-64" d="M128.69,302.46c3.49,2.54,8.24,6.45,13,12,2.45,2.86,8.26,10.08,14,24,2.51,6.08,5.94,15.74,9,34,0,0,4.25,23.36,4,48-.04,3.45-.21,8.67-1,15-.75,5.98-1.62,9.54-2,11-1.55,6-3.26,9.54-4,11-2.43,4.77-4.3,6.42-5,7-1.08,.89-3.06,2.49-6,3-1.55,.27-3.75,.3-7-1-5.85-2.34-9.91-6.91-13-11-3.93-5.2-6.93-10.43-10-17-.94-2.01-4.87-10.52-9-24-3.48-11.37-5.31-20.42-6-24-3.71-19.32-3.98-34.47-4-40-.03-8.51,.47-15.69,1-21"/><path d="M128.69,302.46c16.96,11.59,27.02,30.65,32.38,50.07,5.86,22.14,8.51,45.11,8.53,67.99,.18,16.06-4.97,59.79-29.85,45-19.01-12.75-29.53-50.22-34.08-71.91-4.21-21.09-5.45-42.82-2.98-64.16-.88,10.69-1.03,21.44-.25,32.12,1.52,21.35,6.02,42.48,13.36,62.58,3.63,9.99,7.9,19.89,14.04,28.59,4.44,6.3,10.12,12.66,17.99,13.82,12.93,1.07,17.41-20.32,18.77-30.14,2.13-15.85,1.08-32.05-.53-47.94-1.32-12.12-3.12-23.78-6.18-35.64-5.11-19.37-14.66-38.39-31.2-50.39h0Z"/></g><g><path class="cls-53" d="M76.7,154.46c.83-.95,1.9-2.29,3-4,.97-1.5,4.39-7.08,6-16,.64-3.57,.3-3.81,1-5,2.63-4.45,9.66-4.79,14-5,4.27-.21,11.09-1.12,14,2,1.23,1.32,2,3,2,3,.23,.85,.6,2.25,1,4,.54,2.38,.78,3.87,1,5,1.4,7.36,4.2,13.32,5,15,.42,.87,.78,1.57,1,2"/><path d="M76.7,154.46c4.68-5.98,7.2-13.35,8.33-20.79,.27-1.41,.12-2.45,.57-3.94,.63-1.41,1.58-2.45,2.73-3.29,3.46-2.38,7.49-2.66,11.43-2.93,3.82-.16,7.8-.72,11.67,.17,1.99,.4,4.01,1.79,5.07,3.62,.42,.63,.87,1.49,1.04,1.92,1.15,4.35,1.69,9.06,2.72,13.4,1.06,4.41,2.57,8.69,4.44,12.83-2.33-3.94-4.19-8.15-5.54-12.53-1.32-4.33-2.01-8.91-3.3-13.24l.12,.25c-.13-.22-.35-.68-.48-.89-2.16-4.4-7.5-4.01-11.81-3.78-2.49,.19-5.06,.21-7.53,.51-3.43,.46-7.3,1.39-8.94,4.57-.29,.94-.37,2.5-.61,3.57-1.43,7.51-4.52,15.02-9.9,20.53h0Z"/></g><path class="cls-22" d="M103.2,138.96c-6,0-8,0-10.5-.5-5.95-1.19-7.32-1.6-8-2-2.63-1.56-3.97-3.72-6-7-1.97-3.18-1.61-3.61-4-8-1.58-2.9-2.95-4.94-5-8-2.23-3.32-3.34-4.98-5-7-1.02-1.24-2.51-2.95-8-8-3.78-3.48-4.66-3.97-9-8-3.5-3.25-4.43-4.31-5-5-2.3-2.77-3.6-5.18-5-8-1.04-2.1-2.85-5.79-4-11-.46-2.1-1.19-5.5-1-10,0-.19,.17-3.63,1-7,2.31-9.35,9.39-16.44,11-18,7.59-7.35,15.67-9.83,26-13,6.2-1.9,16.29-4.92,30-5,15.59-.09,26.48,3.67,39,8,10.64,3.68,15.83,6.77,20,11,1.53,1.55,5.41,5.56,8,12,.34,.83,1.34,3.44,2,7,.28,1.54,1.2,7.02,0,14-.4,2.35-1.86,9.64-7,17-2.16,3.09-4.37,5.34-6,7-2.97,3.02-4.17,3.68-8,7-4.28,3.71-8.05,6.98-12,12-1.61,2.04-3.92,4.98-6,9-.46,.88-1.41,2.8-3,6-1.75,3.52-1.71,3.47-2,4-1.57,2.84-2.84,5.15-5,7-1.85,1.58-3.61,2.19-6,3-2.77,.93-5.5,1.5-11.5,1.5Z"/><g><path class="cls-47" d="M58.7,55.46c-3.54-3.56-8.04-8.84-12-16-5.81-10.51-6.83-16.4-7-18-.3-2.88-.17-5.31,0-7,4.97,1.2,10.63,2.03,16.87,2.06,.57,0,1.7,.17,3.13-.06,2.54-.39,4.31-1.56,5-2,3.26-2.12,6.82-3.77,10-6,7.43-5.22,16.08-6.55,19-7,8.84-1.36,15.85,.25,19,1,9.13,2.18,17.21,6.76,20,9,.37,.3,2.66,2.17,6,4,.94,.51,1.4,.77,2,1,2.05,.79,3.99,.71,8,0,3.99-.7,8.14-.75,12-2,.38-.12,1.28-.43,2,0,1.21,.72,1.07,3.03,1,4-.59,8.27-5,15-5,15-3.26,4.98-8.38,12.02-16,20"/><path d="M58.7,55.46c-5.61-5.37-10.25-11.74-13.86-18.62-3.7-6.85-6.83-14.49-5.81-22.45l.07-.76,.76,.17c5.33,1.23,10.78,1.87,16.25,1.87,1.88,.06,3.44,.15,5.18-.48,1.72-.53,3.1-1.62,4.67-2.54,2.39-1.43,4.8-2.68,7.11-4.18,2.26-1.55,4.76-3.16,7.27-4.23,13.98-6.26,29.86-5.33,43.58,1.13,3.38,1.58,6.71,3.29,9.7,5.67,2.09,1.64,4.4,3.15,6.79,4.3,2.39,1.32,4.95,.77,7.62,.4,3.61-.64,7.34-.71,10.88-1.52,1.48-.28,3.22-1.34,4.57,0,1.43,1.68,.83,3.97,.69,5.89-.61,4.17-2.03,8.2-4.05,11.88-4.84,7.84-10.97,14.92-17.4,21.46,5.56-6.12,10.73-12.62,15.19-19.57,2.64-4.2,4.4-9.01,5.04-13.93,.07-1.51,.55-3.56-.41-4.79-.56-.48-1.18-.17-1.92,.05-2.24,.72-4.6,1.05-6.89,1.34-4.6,.25-9.55,2.58-14.01,.36-2.59-1.23-4.94-2.74-7.2-4.49-2.79-2.2-6.07-3.87-9.36-5.38-9.89-4.46-21.01-6.4-31.72-4.23-5.32,.98-10.51,2.75-15.08,5.64-2.96,2.1-6.38,3.9-9.49,5.69-1.6,.94-3.19,2.12-5.03,2.67-1.78,.66-3.95,.64-5.73,.52-5.58-.11-11.14-.87-16.55-2.23l.83-.59c-.21,1.89-.27,3.79-.16,5.69,.4,5.73,2.94,11.08,5.36,16.24,3.36,6.96,7.79,13.39,13.12,19h0Z"/></g><g><ellipse class="cls-39" cx="133.7" cy="78.46" rx="15.5" ry="9.5" transform="translate(-13.42 127.31) rotate(-48.77)"/><path d="M143.92,66.8c-2.65-2.22-6.45-1.72-9.41-.43-5.94,2.72-10.62,8.31-12.34,14.57-2.2,7.79,3.15,12.48,10.59,9.28,5.97-2.53,10.9-7.9,12.82-14.14,.89-3.1,.89-6.94-1.66-9.27h0Zm0,0c2.59,2.3,2.65,6.18,1.8,9.31-1.78,6.43-6.52,12.09-12.63,14.9-8.15,3.65-14.29-1.72-11.75-10.29,1.98-6.42,6.96-11.86,13.11-14.48,2.99-1.25,6.84-1.7,9.47,.56h0Z"/></g><ellipse class="cls-18" cx="128.09" cy="82.46" rx="9.01" ry="5.6" transform="translate(43.43 209.11) rotate(-89.01)"/><g><ellipse class="cls-39" cx="69.7" cy="78.46" rx="9.5" ry="15.5" transform="translate(-34.43 65.38) rotate(-41.23)"/><path d="M59.49,66.8c2.62-2.27,6.48-1.82,9.47-.56,6.14,2.61,11.13,8.06,13.11,14.48,2.54,8.56-3.58,13.95-11.75,10.29-6.11-2.8-10.85-8.46-12.63-14.9-.85-3.13-.79-7.01,1.8-9.31h0Zm0,0c-2.55,2.33-2.55,6.17-1.66,9.27,1.92,6.24,6.84,11.62,12.82,14.15,7.43,3.2,12.79-1.48,10.59-9.28-1.72-6.26-6.4-11.85-12.34-14.57-2.96-1.29-6.76-1.79-9.41,.43h0Z"/></g><ellipse class="cls-18" cx="75.32" cy="82.46" rx="5.6" ry="9.01" transform="translate(-1.41 1.31) rotate(-.99)"/><g><ellipse class="cls-39" cx="148.98" cy="58.63" rx="6.74" ry="4.13" transform="translate(6.7 132.04) rotate(-48.77)"/><path d="M153.42,53.56c-4.37-3.17-11.92,6-8.56,9.77,4.17,2.83,12.28-5.85,8.56-9.77h0Zm0,0c3.89,4.21-4.39,14.15-9.22,10.52-4.23-4.31,4.53-13.82,9.22-10.52h0Z"/></g><ellipse class="cls-18" cx="146.54" cy="60.37" rx="3.92" ry="2.44" transform="translate(83.64 205.85) rotate(-89.01)"/><ellipse class="cls-7" cx="94.7" cy="100.96" rx="2" ry="4.5"/><ellipse class="cls-7" cx="108.7" cy="100.96" rx="2" ry="4.5"/><path class="cls-27" d="M84.7,118.46c3.01,1.5,9.02,4,17,4,3.36,0,9.86-.44,17-4h-34Z"/><path d="M55.25,220.92c9.44-3.09,19.68-5.29,29.62-3.36,3.02,.31,6.38,2.97,9.2,1.01,4.62-3.74,4.74-12.71,5.26-18.29,.36-6.64,.17-13.3-.06-19.95,.65,6.63,1.02,13.3,.82,19.98-.31,5.61-.7,19.26-8.05,19.97-2.6,0-4.85-1.46-7.36-1.82-9.8-1.96-19.9-.04-29.44,2.47h0Z"/><path d="M148.2,220.92c-9.49-2.52-19.52-4.45-29.28-2.45-2.49,.37-4.74,1.9-7.34,1.79-7.17-1.03-7.47-14.42-7.79-20.06-.18-6.65,.18-13.28,.82-19.88-.22,6.61-.41,13.24-.06,19.85,.47,5.18,.74,17.98,7.11,19.12,2.41,.08,4.65-1.37,7.07-1.7,9.88-1.97,20.08,.23,29.46,3.34h0Z"/><path d="M77.2,242.61c4.98-1.64,10.44-2.7,15.62-1.37,1.41,.49,2.57,.7,3.5-.57,1.85-3.12,1.7-7.08,1.84-10.63,.04-1.49,0-2.98,0-4.48,.43,2.96,.66,5.96,.56,8.98-.2,2.79-.36,7.35-3.8,8.08-1.73,.04-2.88-.76-4.5-.89-4.41-.65-8.85,.05-13.23,.88h0Z"/><path d="M82.73,259.98c3.86-1.35,8.14-2.21,12.18-1.17,1.1,.36,1.88,.55,2.61-.4,1.42-2.4,1.33-5.47,1.47-8.21,.05-1.16,.04-2.32,.06-3.49,.38,2.3,.58,4.64,.52,7-.14,2.25-.26,5.8-3.03,6.39-1.4,.03-2.25-.59-3.53-.7-3.42-.52-6.87,0-10.28,.58h0Z"/><path d="M87.82,275.06c2.8-1.08,5.98-1.75,8.96-.98,2.29,1.04,2.46-2.12,2.71-3.66,.16-1.67,.22-3.37,.29-5.08,.32,1.68,.53,3.39,.49,5.13-.09,1.7-.2,4.38-2.31,4.81-1.08,.03-1.65-.43-2.62-.52-2.49-.39-5-.05-7.52,.3h0Z"/><path d="M125.2,242.61c-4.37-.83-8.81-1.53-13.23-.88-1.62,.12-2.77,.93-4.5,.89-5.35-1.12-3.7-13.01-3.23-17.06,0,1.5-.04,2.99,0,4.48,.14,3.55,0,7.51,1.84,10.63,.93,1.27,2.09,1.07,3.5,.57,5.18-1.33,10.64-.27,15.62,1.37h0Z"/><path d="M120.2,259.98c-3.42-.59-6.86-1.1-10.28-.58-1.28,.1-2.13,.73-3.53,.7-2.76-.6-2.88-4.15-3.03-6.39-.06-2.36,.14-4.69,.52-7,.02,1.17,0,2.33,.06,3.49,.14,2.74,.05,5.8,1.47,8.21,.72,.95,1.51,.77,2.61,.4,4.05-1.04,8.32-.18,12.18,1.17h0Z"/><path d="M115.28,275.06c-2.52-.35-5.02-.69-7.52-.3-.97,.09-1.53,.54-2.62,.52-2.11-.44-2.22-3.11-2.31-4.81-.04-1.74,.17-3.45,.49-5.13,.07,1.71,.12,3.42,.29,5.08,.24,1.54,.41,4.7,2.71,3.66,2.99-.76,6.16-.1,8.96,.98h0Z"/><path d="M87.79,290.16c2.8-1.08,5.98-1.75,8.96-.98,2.29,1.04,2.46-2.12,2.71-3.66,.16-1.67,.22-3.37,.29-5.08,.32,1.68,.53,3.39,.49,5.13-.09,1.7-.2,4.38-2.31,4.81-1.08,.03-1.65-.43-2.62-.52-2.49-.39-5-.05-7.52,.3h0Z"/><path d="M115.25,290.16c-2.52-.35-5.02-.69-7.52-.3-.97,.09-1.53,.54-2.62,.52-2.11-.44-2.22-3.11-2.31-4.81-.04-1.74,.17-3.45,.49-5.13,.07,1.71,.12,3.42,.29,5.08,.24,1.54,.41,4.7,2.71,3.66,2.99-.76,6.16-.1,8.96,.98h0Z"/><rect class="cls-5" x="74.2" y="78.96" width="2" height="8" transform="translate(158.16 7.75) rotate(90)"/><rect class="cls-5" x="127.2" y="78.96" width="2" height="8" transform="translate(211.16 -45.25) rotate(90)"/><rect class="cls-5" x="145.77" y="58.5" width="1.5" height="3.75" transform="translate(206.9 -86.15) rotate(90)"/><path d="M61.7,29.46c6.97,.26,14.07-.47,20.6-2.99,5.01-1.74,9.12-5.15,13.92-7.38,3.34-1.41,7.24-1.5,10.63-.21,4.87,2.08,9.11,5.29,14.19,6.87,6.59,2.29,13.66,2.97,20.67,2.72-3.49,.33-7.03,.37-10.54,.08-7.04-.57-13.95-2.83-20-6.47-6.64-4.25-12.65-4.11-19.14,.36-8.83,5.97-19.8,8.17-30.32,7.03h0Z"/><path d="M72.72,39.88c5.02,.13,10.12-.42,14.8-2.25,4.83-1.55,8.58-6.03,13.88-6.17,5.29-.08,9.21,4.27,14.1,5.64,4.72,1.66,9.81,2.18,14.86,2.06-2.52,.27-5.06,.32-7.6,.12-5.08-.38-10.1-1.99-14.47-4.62-8.93-5.68-12.57,.93-20.5,3.68-4.84,1.71-10.05,2.08-15.07,1.54h0Z"/><path d="M81.9,50.42c3.45,.02,6.95-.38,10.16-1.67,3.32-1.11,5.92-4.23,9.6-4.29,3.68-.08,6.39,2.94,9.76,3.93,3.23,1.16,6.72,1.55,10.2,1.53-1.73,.22-3.49,.27-5.25,.16-3.52-.23-7.01-1.33-10.04-3.12-5.88-3.88-8.7,.72-14.01,2.51-3.37,1.17-6.97,1.38-10.43,.95h0Z"/><g><ellipse class="cls-39" cx="50.98" cy="58.63" rx="4.13" ry="6.74" transform="translate(-26 48.13) rotate(-41.23)"/><path d="M46.53,53.56c4.68-3.3,13.45,6.21,9.22,10.52-4.83,3.63-13.11-6.31-9.22-10.52h0Zm0,0c-3.72,3.92,4.39,12.6,8.56,9.77,3.36-3.76-4.18-12.94-8.56-9.77h0Z"/></g><ellipse class="cls-18" cx="53.42" cy="60.37" rx="2.44" ry="3.92" transform="translate(-1.03 .93) rotate(-.99)"/><rect class="cls-5" x="52.68" y="58.5" width="1.5" height="3.75" transform="translate(113.81 6.94) rotate(90)"/><g><path class="cls-51" d="M12.75,342.33c-1.55,2.74-1.72,4.25-2.08,5.89-.52,2.38-.86,3.94-.41,7.08,.41,2.86,1.36,6.6,1.89,8.34,.6,1.97,2.56,3.21,3.81,4.51,7.54,7.89,9.19,10.45,9.96,15.14,.05,.3,.63,2.48,1.37,3.16,1.81,1.67,4.55,1.16,5.33,.45,1.73-1.58,2.27-3.12,1.05-5.5-.78-1.53-3.45-.88-5.57-3.02-6.56-6.6-10.14-13.95-10.28-14.92-.36-2.48,1.45-2.59,2.38-5.4,3.09-9.29,3.12-9.81,2.92-13.75-.11-2.21-.47-2.06-2.77-7.91"/><path d="M12.75,342.33c-1.67,3.15-2.34,6.82-2.49,10.35,.17,3.56,1.13,7.07,2.08,10.49,.54,2.3,2.86,3.47,4.47,5.3,3.27,3.54,6.94,6.93,8.75,11.54,.84,2.05,.66,4.39,2.07,6.11,1.19,1.08,3.47,1.34,4.74,.31,1.29-1.09,1.87-2.67,1.09-4.29-.38-1.25-1.41-1.29-2.51-1.65-2.48-.55-4.13-2.73-5.73-4.56-2.35-2.77-4.46-5.73-6.21-8.91-.76-1.58-2.17-3.46-1.39-5.35,.53-1.18,1.48-1.87,1.96-3.02,1.72-4.99,4.09-10.15,3.27-15.53-.61-2.28-1.77-4.46-2.52-6.71,.86,2.26,2.07,4.33,2.76,6.66,1.03,5.48-1.18,10.77-2.87,15.87-.43,1.1-1.46,2-1.92,3.01-.61,1.66,.7,3.19,1.42,4.68,1.78,3.09,3.85,6.02,6.18,8.72,1.56,1.69,2.93,3.7,5.32,4.24,1.24,.31,2.73,.74,3.13,2.18,1.95,4.45-3.11,8.08-6.97,5.39-2.22-1.98-1.8-4.73-2.69-6.83-.77-2.19-2.19-4.12-3.69-5.96-2.33-2.73-4.68-5.41-7.33-7.85-.87-.83-1.68-1.94-1.95-3.17-.64-2.33-1.17-4.67-1.57-7.06-.82-4.72,.24-9.82,2.59-13.97h0Z"/></g><g><path class="cls-49" d="M8.11,343.43c-1.86,3.29-2.06,5.09-2.49,7.07-.62,2.85-1.03,4.72-.49,8.49,.49,3.43,1.62,7.91,2.26,9.99,.72,2.36,3.07,3.84,4.57,5.41,9.03,9.46,11.01,12.53,11.94,18.15,.06,.36,.75,2.97,1.64,3.78,2.17,2,5.46,1.39,6.39,.54,2.08-1.89,2.72-3.73,1.26-6.59-.93-1.83-4.13-1.05-6.68-3.62-7.86-7.91-12.15-16.72-12.32-17.88-.43-2.97,1.74-3.11,2.86-6.47,3.7-11.14,3.74-11.76,3.5-16.48-.13-2.64-.92-4-3.62-6.7"/><path d="M8.11,343.43c-1.43,2.48-2.06,5.23-2.55,8.03-.64,2.77-.58,5.57-.05,8.35,.49,2.77,1.16,5.52,1.93,8.23,.33,1.39,.97,2.51,1.99,3.49,3.13,2.8,6.11,5.94,8.86,9.16,1.83,2.17,3.62,4.45,4.77,7.14,1.21,2.51,1.05,5.58,2.59,7.91,1.58,1.8,5.24,2.06,6.72-.07,.89-.99,1.31-2.23,.99-3.5-.32-1.28-.73-2.4-2.2-2.73-1.3-.39-2.8-.76-4.03-1.65-1.2-.9-2.07-2-3.07-3.07-3.77-4.27-7.11-8.93-9.58-14.09-.67-1.26-1.11-3-.28-4.38,.76-1.27,1.77-2.15,2.29-3.51,1.34-3.95,2.9-7.98,3.72-12.09,.29-2.69,.59-5.76-.67-8.24-.68-1.23-1.66-2.27-2.63-3.3,1.01,.99,2.03,1.98,2.77,3.21,1.38,2.53,1.16,5.6,.96,8.39-.71,4.23-2.2,8.2-3.51,12.29-1.16,2.88-3.95,3.85-1.95,7.3,3.19,6.15,7.35,12.06,12.48,16.73,1.65,1.38,4.37,.98,5.81,2.8,1.56,2.51,1.18,5.39-1.11,7.28-2.17,1.7-5.63,1.28-7.48-.81-1.68-2.45-1.47-5.51-2.67-8.13-1.07-2.54-2.79-4.78-4.59-6.93-2.76-3.24-5.58-6.31-8.71-9.23-1.03-1.01-1.8-2.42-2.09-3.81-.74-2.74-1.37-5.51-1.82-8.32-.5-2.8-.45-5.74,.26-8.49,.56-2.77,1.3-5.56,2.84-7.96h0Z"/></g><g><path class="cls-38" d="M8.64,341.29c-2.77,3.59-3.32,5.7-4.17,7.97-1.22,3.28-2.03,5.43-2.03,10,0,4.16,.58,9.67,.98,12.26,.45,2.93,2.99,5.09,4.5,7.2,9.12,12.78,10.94,16.76,11.09,23.59,0,.44,.38,3.65,1.3,4.77,2.24,2.75,6.24,2.58,7.49,1.73,2.79-1.89,3.87-3.97,2.62-7.61-.8-2.33-4.72-1.96-7.32-5.44-7.98-10.74-11.58-21.93-11.58-23.34,0-3.6,2-3.76,4.5-7.2,7.2-9.9,7.58-11.45,8.1-17.1,.29-3.16,1.17-4.7-.9-13.5"/><path d="M8.64,341.29c-2.2,2.73-3.43,5.97-4.52,9.26-1.25,3.24-1.61,6.68-1.42,10.13,.14,3.44,.46,6.89,.95,10.3,.17,1.69,1.03,3.15,2.09,4.48,3.37,3.97,6.28,8.29,9.06,12.69,1.79,2.97,3.5,6.11,4.18,9.61,.84,3.16-.21,7.11,2.25,9.6,1.47,1.31,3.7,1.81,5.62,1.31,1.08-.36,2.06-1.32,2.74-2.2,.97-1.26,1-2.96,.54-4.54-.17-.76-.52-1.38-1.24-1.77-2.26-1.16-5.03-2.17-6.43-4.49-3.07-4.22-5.71-8.75-7.9-13.49-1.09-2.37-2.09-4.79-2.86-7.29-.61-1.71-.88-3.64,.07-5.32,.94-1.57,2.4-2.51,3.47-3.92,2.55-3.43,5.22-6.92,7.12-10.74,1.54-3.08,1.44-6.68,2.01-10.06,.28-3.44-.46-6.88-1.17-10.25,1.04,4.18,1.88,8.53,1.11,12.85l-.24,2.58c-.4,5.33-3.89,9.69-6.78,13.91-1.3,2.21-3.44,3.93-4.88,5.98-1.25,2.3,.14,4.9,.91,7.15,2.48,6.41,5.83,12.5,9.89,18.04,.93,1.41,2.26,2.37,3.8,3.07,1.16,.58,2.63,.99,3.49,2.14,.7,1.21,.96,2.66,.88,4.08-.19,2.37-2.12,4.4-4.26,5.2-2.25,.58-4.76,.02-6.53-1.54-2.72-2.59-1.7-6.83-2.5-10.13-1.46-6.71-6.02-12.31-9.75-17.95-1.41-2.22-3.4-3.96-4.58-6.34-.4-.8-.64-1.72-.74-2.58-.45-3.45-.74-6.9-.82-10.37-.12-3.47,.34-7.01,1.67-10.23,1.16-3.26,2.48-6.51,4.75-9.18h0Z"/></g><g><path class="cls-41" d="M23.22,334.61c2,.78,5.52,3.55,8.38,8.77,.62,1.13,2.61,5.12,3.37,11.21,.88,7.08,.14,10.78-1.48,14.32-3.56,7.76-6.5,10.27-6.12,15.18,.14,1.84,.92,5.1-.85,6.73-.62,.57-1.35,.75-1.68,.84-1.76,.45-4.12-.1-5.04-1.69-1.12-1.93,.42-4.48,1.27-5.88,.59-.97,1.17-1.58,1.26-1.68,.6-.64,7.7-12.92,3.57-18.8-2.31-3.29-7.96-1.73-11.61-10.25"/><path d="M23.22,334.61c8.84,4.41,12.13,15.17,12.49,24.43,.76,7.44-3.89,13.76-6.97,20.1-.46,1.06-.79,2.16-.88,3.29-.22,2.37,.79,4.79-.03,7.21-1.13,3.34-6.35,3.44-8.28,.79-1.76-2.86,.84-6.31,2.58-8.48,2.77-4.87,5.75-10.83,4.34-16.55-.63-2.44-2.9-3.44-5.04-4.35-3.37-1.39-5.89-4.33-7.14-7.69,.98,2.16,2.33,4.2,4.22,5.62,1.9,1.53,4.28,1.98,6.34,3.26,5.69,4.49,.97,15.15-2,20.19-1.39,1.72-2.9,3.82-2.99,6.05,.07,3.37,6.08,3.92,7.05,.84,.71-2.22-.28-4.62-.02-6.98,.11-1.25,.49-2.46,.97-3.58,2.01-4.33,4.84-8.23,6.26-12.76,2.56-10.39-.89-25.98-10.91-31.39h0Z"/></g><g><path class="cls-45" d="M190.03,342.33c1.55,2.74,1.72,4.25,2.08,5.89,.52,2.38,.86,3.94,.41,7.08-.41,2.86-1.36,6.6-1.89,8.34-.6,1.97-2.56,3.21-3.81,4.51-7.54,7.89-9.19,10.45-9.96,15.14-.05,.3-.63,2.48-1.37,3.16-1.81,1.67-4.55,1.16-5.33,.45-1.73-1.58-2.27-3.12-1.05-5.5,.78-1.53,3.45-.88,5.57-3.02,6.56-6.6,10.14-13.95,10.28-14.92,.36-2.48-1.45-2.59-2.38-5.4-3.09-9.29-3.12-9.81-2.92-13.75,.11-2.21,.47-2.06,2.77-7.91"/><path d="M190.03,342.33c2.36,4.15,3.42,9.25,2.59,13.97-.4,2.38-.93,4.73-1.57,7.06-.27,1.23-1.08,2.33-1.95,3.17-2.66,2.44-5.01,5.12-7.33,7.85-1.49,1.84-2.92,3.76-3.69,5.96-.89,2.09-.47,4.84-2.69,6.83-3.85,2.68-8.92-.92-6.97-5.39,.41-1.45,1.88-1.86,3.13-2.18,2.39-.54,3.76-2.55,5.32-4.24,2.33-2.7,4.4-5.63,6.18-8.72,.72-1.49,2.03-3.02,1.42-4.68-.46-1.01-1.49-1.91-1.92-3.01-1.69-5.11-3.9-10.4-2.87-15.87,.68-2.33,1.9-4.4,2.76-6.66-.75,2.25-1.91,4.43-2.52,6.71-.82,5.39,1.55,10.55,3.27,15.53,.48,1.16,1.43,1.85,1.96,3.02,.78,1.9-.63,3.77-1.39,5.35-1.75,3.18-3.87,6.15-6.21,8.91-1.61,1.82-3.25,4.01-5.73,4.56-1.1,.36-2.13,.4-2.51,1.65-.78,1.62-.2,3.2,1.09,4.29,1.27,1.04,3.55,.77,4.74-.31,1.41-1.72,1.23-4.06,2.07-6.11,1.81-4.61,5.48-8,8.75-11.54,1.61-1.83,3.93-3.01,4.47-5.3,.96-3.42,1.92-6.93,2.08-10.49-.14-3.53-.81-7.2-2.49-10.35h0Z"/></g><g><path class="cls-56" d="M194.67,343.43c1.86,3.29,2.06,5.09,2.49,7.07,.62,2.85,1.03,4.72,.49,8.49-.49,3.43-1.62,7.91-2.26,9.99-.72,2.36-3.07,3.84-4.57,5.41-9.03,9.46-11.01,12.53-11.94,18.15-.06,.36-.75,2.97-1.64,3.78-2.17,2-5.46,1.39-6.39,.54-2.08-1.89-2.72-3.73-1.26-6.59,.93-1.83,4.13-1.05,6.68-3.62,7.86-7.91,12.15-16.72,12.32-17.88,.43-2.97-1.74-3.11-2.86-6.47-3.7-11.14-3.74-11.76-3.5-16.48,.13-2.64,.92-4,3.62-6.7"/><path d="M194.67,343.43c2.19,3.65,3.09,7.98,3.44,12.19,0,4.28-1.12,8.46-2.16,12.58-.5,2.96-3.24,4.76-5.13,6.76-3.71,4.12-7.97,8.12-10.26,13.22-1.21,2.62-1,5.68-2.67,8.13-1.85,2.09-5.31,2.5-7.48,.81-2.29-1.91-2.68-4.75-1.11-7.28,1.44-1.83,4.16-1.42,5.81-2.81,5.13-4.68,9.29-10.58,12.48-16.73,2.01-3.44-.79-4.43-1.95-7.3-1.31-4.09-2.79-8.06-3.51-12.29-.21-2.8-.42-5.86,.96-8.39,.74-1.23,1.77-2.23,2.77-3.21-.97,1.02-1.95,2.07-2.63,3.3-1.26,2.48-.96,5.56-.67,8.24,.82,4.11,2.38,8.14,3.72,12.09,1.44,3.12,4.06,3.98,2,7.89-3.18,6.39-7.39,12.34-12.65,17.16-1.23,.9-2.74,1.26-4.03,1.65-.64,.21-1.23,.47-1.5,.91-1.28,2.15-.99,4.39,.99,6.03,1.67,1.33,4.69,.89,6.03-.66,.54-.76,.89-1.82,1.17-2.75,.64-4.67,3.1-8.87,6.2-12.3,1.85-2.17,3.79-4.23,5.76-6.26,1.45-1.57,3.28-2.67,4.36-4.49,.35-.57,.53-1.21,.73-1.9,1.09-4.05,2.24-8.19,2.36-12.4-.23-4.17-1.02-8.49-3.02-12.2h0Z"/></g><g><path class="cls-58" d="M194.15,341.29c2.77,3.59,3.32,5.7,4.17,7.97,1.22,3.28,2.03,5.43,2.03,10,0,4.16-.58,9.67-.98,12.26-.45,2.93-2.99,5.09-4.5,7.2-9.12,12.78-10.94,16.76-11.09,23.59,0,.44-.38,3.65-1.3,4.77-2.24,2.75-6.24,2.58-7.49,1.73-2.79-1.89-3.87-3.97-2.62-7.61,.8-2.33,4.72-1.96,7.32-5.44,7.98-10.74,11.58-21.93,11.58-23.34,0-3.6-2-3.76-4.5-7.2-7.2-9.9-7.58-11.45-8.1-17.1-.29-3.16-1.17-4.7,.9-13.5"/><path d="M194.15,341.29c2.26,2.67,3.59,5.92,4.75,9.18,1.33,3.22,1.79,6.76,1.67,10.23-.08,3.47-.37,6.93-.82,10.37-.1,.86-.34,1.78-.74,2.58-1.18,2.38-3.17,4.11-4.58,6.34-3.74,5.64-8.29,11.25-9.75,17.95-.8,3.31,.22,7.55-2.5,10.13-1.76,1.56-4.27,2.12-6.53,1.54-2.15-.8-4.07-2.84-4.26-5.2-.08-1.42,.18-2.87,.88-4.08,.85-1.15,2.33-1.56,3.49-2.14,1.54-.7,2.87-1.66,3.8-3.07,4.06-5.55,7.41-11.63,9.89-18.04,.77-2.25,2.16-4.85,.91-7.15-1.44-2.05-3.58-3.77-4.88-5.98-2.89-4.23-6.38-8.58-6.78-13.91l-.24-2.58c-.78-4.31,.06-8.67,1.11-12.85-.72,3.37-1.46,6.81-1.17,10.25,.57,3.39,.47,6.98,2.01,10.06,1.9,3.82,4.57,7.3,7.12,10.74,1.07,1.41,2.53,2.36,3.47,3.92,1.43,2.55,.07,5.31-.77,7.79-1.84,4.89-4.22,9.55-6.99,13.98-1.49,2.17-2.73,4.58-4.77,6.31-1.35,1.12-3.14,1.67-4.59,2.5-.71,.39-1.07,1.02-1.24,1.77-.47,1.58-.44,3.27,.54,4.54,.67,.88,1.66,1.83,2.74,2.2,1.91,.5,4.15,0,5.62-1.31,2.46-2.5,1.41-6.44,2.25-9.6,.69-3.5,2.4-6.64,4.18-9.61,2.79-4.4,5.7-8.72,9.06-12.69,1.06-1.33,1.92-2.79,2.09-4.48,.49-3.41,.82-6.85,.95-10.3,.2-3.45-.17-6.89-1.42-10.13-1.09-3.29-2.32-6.54-4.52-9.26h0Z"/></g><g><path class="cls-40" d="M179.56,334.61c-2,.78-5.52,3.55-8.38,8.77-.62,1.13-2.61,5.12-3.37,11.21-.88,7.08-.14,10.78,1.48,14.32,3.56,7.76,6.5,10.27,6.12,15.18-.14,1.84-.92,5.1,.85,6.73,.62,.57,1.35,.75,1.68,.84,1.76,.45,4.12-.1,5.04-1.69,1.12-1.93-.42-4.48-1.27-5.88-.59-.97-1.17-1.58-1.26-1.68-.6-.64-7.7-12.92-3.57-18.8,2.31-3.29,7.96-1.73,11.61-10.25"/><path d="M179.56,334.61c-10.01,5.39-13.47,21.01-10.91,31.39,1.43,4.53,4.25,8.43,6.27,12.76,.49,1.12,.87,2.33,.97,3.58,.26,2.36-.72,4.76-.02,6.98,.96,3.08,6.98,2.54,7.05-.84-.09-2.23-1.59-4.33-2.99-6.05-2.97-5.03-7.69-15.69-2-20.19,2.06-1.29,4.44-1.74,6.34-3.26,1.89-1.43,3.24-3.46,4.22-5.62-1.25,3.37-3.77,6.3-7.14,7.69-2.14,.91-4.41,1.9-5.04,4.35-1.41,5.72,1.57,11.68,4.34,16.55,1.74,2.19,4.35,5.62,2.58,8.48-1.93,2.65-7.15,2.55-8.28-.79-.82-2.42,.18-4.85-.03-7.21-.09-1.13-.42-2.22-.88-3.29-3.08-6.33-7.73-12.65-6.97-20.1,.36-9.26,3.65-20.02,12.49-24.43h0Z"/></g><path class="cls-17" d="M53.71,553.61c-3.31,2.23-6.3,3.47-8.36,4.18-4.61,1.58-10.69,3.66-15.67,1.04-2.28-1.2-2.7-2.52-5.22-3.13-.44-.11-4.01-.93-7.31,1.04-4.13,2.47-6.15,8.29-4.18,12.54,2.71,5.86,11.41,5.3,12.54,5.22,4.87-.31,5.84-2.63,11.49-4.18,5.89-1.62,8.99-.25,15.67,0,4.9,.18,12.01-.22,20.9-3.13"/><path class="cls-12" d="M66.32,551.74c1.28,1.27,3.19,3.03,5.64,4.85,4.4,3.27,7.12,5.29,10.9,5.69,3.57,.38,7.87-.71,8.2-.8,1.64-.43,2.64-.86,4.1-.4,1.7,.54,3.76,2.22,4.62,4.95,1.13,3.56-.11,7.8-2.16,9.66-2.28,2.07-4.44,.15-12.56-1.48-4.31-.87-7.6-1.11-12.56-1.48-5.11-.38-7.22-1.31-10.38-.34-1.2,.37-1.71,.7-5.89,3.27-9.66,5.95-10.4,6.34-11.78,6.55-1.14,.17-7.74,1.17-10.77-4.35-2.73-4.99-.88-9.76,2.14-11.6,2.29-1.4,3.73-1.74,7.96-1.54,4.1,.2,7.48-2.44,9.86-5.01"/></g><ellipse class="cls-3" cx="101.7" cy="293.96" rx="1" ry="1.5"/></g></g></g></svg>