<?xml version="1.0" encoding="UTF-8"?><svg id="Layer_2" xmlns="http://www.w3.org/2000/svg" xmlns:xlink="http://www.w3.org/1999/xlink" viewBox="0 0 488.44 593.56"><defs><style>.cls-1{fill:url(#radial-gradient-3);}.cls-1,.cls-2,.cls-3,.cls-4,.cls-5,.cls-6,.cls-7,.cls-8,.cls-9,.cls-10,.cls-11,.cls-12,.cls-13{stroke-miterlimit:10;}.cls-1,.cls-3,.cls-4,.cls-5,.cls-6,.cls-7,.cls-8,.cls-9,.cls-10,.cls-11,.cls-12,.cls-13{stroke:#000;}.cls-1,.cls-4,.cls-5,.cls-7,.cls-11,.cls-12,.cls-13{stroke-width:.5px;}.cls-2{stroke:#ce8a92;}.cls-2,.cls-5{fill:#fff;}.cls-3{fill:none;}.cls-4{fill:url(#radial-gradient-2);}.cls-7,.cls-8,.cls-14{fill:#f2f2f2;}.cls-15,.cls-9{fill:#534741;}.cls-16,.cls-10,.cls-13{fill:#eac39d;}.cls-8{stroke-width:.25px;}.cls-11{fill:url(#radial-gradient);}.cls-12{fill:url(#radial-gradient-4);}</style><radialGradient id="radial-gradient" cx="62.47" cy="73.05" fx="62.47" fy="73.05" r="6.5" gradientTransform="matrix(1, 0, 0, 1, 0, 0)" gradientUnits="userSpaceOnUse"><stop offset="0" stop-color="#006837"/><stop offset=".19" stop-color="#026939"/><stop offset=".33" stop-color="#0b6f40"/><stop offset=".44" stop-color="#1b784c"/><stop offset=".55" stop-color="#31855d"/><stop offset=".65" stop-color="#4d9573"/><stop offset=".74" stop-color="#6faa8e"/><stop offset=".83" stop-color="#98c2ae"/><stop offset=".92" stop-color="#c7ded3"/><stop offset="1" stop-color="#fcfdfc"/><stop offset="1" stop-color="#fff"/></radialGradient><radialGradient id="radial-gradient-2" cx="1557.47" cy="73.05" fx="1557.47" fy="73.05" gradientTransform="translate(1663.12) rotate(-180) scale(1 -1)" xlink:href="#radial-gradient"/><radialGradient id="radial-gradient-3" cx="360.47" cy="79.05" fx="360.47" fy="79.05" xlink:href="#radial-gradient"/><radialGradient id="radial-gradient-4" cx="1257.47" cy="79.05" fx="1257.47" fy="79.05" gradientTransform="translate(1663.12) rotate(-180) scale(1 -1)" xlink:href="#radial-gradient"/></defs><g id="HUMAN"><g id="FEMALE"><path class="cls-9" d="M36.97,32.55c-10.62,11.62-2.35,29.41-2,62,.23,21.75-3.38,20.67-1,33,3.28,16.97,10.31,20,13,40,.98,7.28,.63,11.21,4,15,5.24,5.9,13.74,5.02,26,5,35.23-.07,43.93,7.01,50,0,4.26-4.92,.37-8.88,5-29,2.15-9.37,3.53-10.83,5-17,3.61-15.14-.82-22.47-3-42-3.3-29.5,4.52-33.26-2-52-2.98-8.57-7.47-21.45-18-25-13.52-4.56-20,12-40,10-12.93-1.29-21.94-9.39-32-4-2.58,1.38-4.15,3.07-5,4Z"/><g><path class="cls-15" d="M46.97,134.55c-.33,2.9-.2,5.3,0,7,.24,2.06,.65,3.64,1,5,.65,2.48,1.39,4.52,2,6"/><path d="M46.97,134.55c-.43,6.16,1.03,12.2,3,18-2.61-5.54-4.12-11.9-3-18h0Z"/></g><g><path class="cls-15" d="M54.97,142.55c-1.49,2.5-1.9,4.58-2,6-.15,2.12,.32,3.37,0,6-.22,1.75-.67,3.13-1,4"/><path d="M54.97,142.55c-1.24,2.44-2,5.12-1.75,7.86,.27,2.73-.04,5.63-1.25,8.14,.82-2.65,1.07-5.35,.75-8.11-.21-2.79,.63-5.63,2.25-7.89h0Z"/></g><g><path class="cls-15" d="M58.97,158.55c.42-1.71,.8-3.73,1-6,.24-2.66,.17-5.02,0-7"/><path d="M58.97,158.55c.71-4.32,1.04-8.62,1-13,.73,4.31,.38,8.85-1,13h0Z"/></g><g><path class="cls-15" d="M66.97,149.55c.28,1.36,.53,3.5,0,6-.25,1.18-.63,2.19-1,3"/><path d="M66.97,149.55c.98,2.94,.62,6.36-1,9,.97-2.94,1.29-5.92,1-9h0Z"/></g><g><path class="cls-15" d="M104.97,149.55c-.51-1.61-1.07-4.03-1-7,.06-2.48,.54-4.54,1-6"/><path d="M104.97,149.55c-1.67-4.09-1.68-8.91,0-13-1,4.31-1,8.69,0,13h0Z"/></g><g><path class="cls-15" d="M124.97,124.55c.07,3.46,.57,6.17,1,8,1.1,4.63,2.64,7.08,3,12,.13,1.7,.07,3.11,0,4"/><path d="M124.97,124.55c.27,4.07,1.05,8.07,2.4,11.92,1.37,3.84,2.17,8,1.6,12.08,.15-4.1-.66-8.09-2.08-11.93-1.3-3.87-2.06-7.98-1.92-12.07h0Z"/></g><g><path class="cls-15" d="M135.97,122.55c-.22,1.86-.54,3.87-1,6-.3,1.41-.64,2.74-1,4"/><path d="M135.97,122.55c-.2,3.4-.75,6.81-2,10,.59-3.36,1.13-6.69,2-10h0Z"/></g><g><path class="cls-15" d="M119.97,130.55c-.77,1.55-2.11,4.77-2,9,.1,3.68,1.25,6.49,2,8"/><path d="M119.97,130.55c-2.33,5.42-2.33,11.6,0,17-3-5.1-2.99-11.89,0-17h0Z"/></g><g><path class="cls-15" d="M108.97,147.55c.31-2.23,.9-4.97,2-8,1.21-3.32,2.7-6,4-8"/><path d="M108.97,147.55c.46-5.73,2.58-11.38,6-16-2.85,5-4.86,10.35-6,16h0Z"/></g><g><path class="cls-15" d="M113.97,150.55c.33,2.33,.67,4.67,1,7"/><path d="M113.97,150.55c.67,2.28,1.01,4.62,1,7-.67-2.28-1-4.62-1-7h0Z"/></g><path class="cls-10" d="M84.62,336.34c-3.35,.1-5.04-2.26-8.61-4.61-7.36-4.83-9.92-1.16-17.22-5.53-1.36-.81-8.5-5.08-10.33-12.89-.57-2.41-.28-3.67,0-8.29,.15-2.44,.1-8.07,0-19.34-.12-14.3-.58-18.76-.86-21.18-.69-5.89-1.47-9.12-1.72-10.13-.58-2.31-2.04-7.6-5.17-13.82-1.86-3.7-3.36-5.83-4.31-7.37-3.66-5.95-6.03-23.95-6.03-23.95-.3-2.53-1.49-12.82-1.72-26.71-.09-5.52-.04-12.04,2.58-19.34,1.41-3.93,2.66-5.56,3.44-6.45,2.27-2.56,5.42-4.24,13.78-5.53,9.41-1.44,16.78-.98,18.94-.92,21.13,.56,31.7,.83,41.33,0,1.58-.14,4.97-.46,9.47,0,4.34,.44,10.76,1.09,15.5,4.61,7.49,5.56,8.14,17.06,8.61,23.03,.31,3.95,.09,7.82,0,9.21-.14,2.32-.41,4.8-1.72,11.97-1.68,9.21-1.31,9.97-2.62,17.45-1.41,8.07-1.76,7.53-2.55,10.18-1.53,5.19-3.09,6.66-6.89,14.74-2.02,4.29-3.15,6.7-4.31,10.13-.61,1.8-2.6,8.59-3.01,17.96-.43,9.67-.34,3.61-.43,14.28-.15,18.57-.43,16.12,0,24.87,.12,2.43,1.17,5.95,.43,8.75-.67,2.56-2.07,3.29-6.46,5.99-10.86,6.67-15.04,3.17-23.25,9.21-2.49,1.84-4.06,3.6-6.89,3.68Z"/><g><path class="cls-16" d="M69.97,162.55c-1.82-1.16-29-12-43.32-9.25-1.44,.28-9.02,2.51-12.73,11.97-2.04,5.21-.73,7.09-3.18,21.95-.61,3.73-1.26,6.81-2.55,12.97-3.86,18.48-4.66,17.24-5.73,24.95-.48,3.46-1.96,14.1-.64,26.94,.62,6.03,1.47,8.76,1.27,14.97-.19,5.94-1.12,8.26-1.91,14.97-.85,7.24-.74,12.8-.64,17.96,.12,5.74,.77,22.37,6.37,40.91,.18,.59,.32,2.49,1.27,3.99,1.05,1.65,2.77,2.57,4.46,2,2.3-.78,3.35-4.41,3.82-5.99,1.02-3.43,.74-5.95,.64-13.97-.08-6.22,.11-2.91,0-9.98-.26-16.59-1.13-23.74-1.27-38.91-.02-2.01-.27-4.57,0-7.98,.5-6.32,2.08-10.8,3.18-13.97,2.18-6.27,4.08-12.78,6.37-18.96,2.6-7.01,5.5-17.98,6.37-34.92"/><path d="M69.97,162.55c-11.31-4.92-23.58-8.64-35.91-9.58-2.07-.1-4.15-.08-6.2,.21-6.2,.87-11.22,5.9-13.52,11.53-1.78,3.79-1.55,8.05-2,12.17-1.22,12.41-4.02,24.61-6.91,36.72-3.59,11.86-4.39,24.57-3.38,36.87,.3,4.12,1.17,8.19,1.41,12.38,.58,8.37-2.02,16.48-2.33,24.8-.62,12.38,.25,24.87,2.42,37.08,.95,5.35,2.21,10.64,3.75,15.85,.21,.71,.29,1.58,.51,2.28,1.45,4.89,5.86,5.07,7.55,.02,1.64-3.85,1.5-7.99,1.41-12.1l-.07-6.23c.27-12.46-.6-24.88-.99-37.33-.11-3.71-.14-8.81-.27-12.45-.21-6.27,1.06-12.52,3.2-18.39,2.06-5.88,3.84-11.84,5.97-17.7,1.5-3.87,2.75-7.82,3.72-11.86,1.95-8.06,2.95-16.34,3.43-24.62-.59,12.41-2.34,24.94-6.77,36.61-1.38,3.91-2.59,7.88-3.88,11.83-2.67,7.8-5.55,15.73-5.08,24.11,.2,16.57,1.67,33.22,1.45,49.79-.16,6.92,1.51,15.55-2.91,21.48-3.56,3.83-7.63-.42-7.97-4.47-.06-.36-.27-1.08-.38-1.46-3.84-12.98-5.84-26.49-6.12-40.01-.26-8.3,.15-16.7,1.7-24.88,.76-4.07,1.08-8.19,.88-12.3-.21-4.1-1.07-8.2-1.36-12.36-.79-10.37-.36-20.91,1.91-31.07,1.63-5.78,3.22-12.27,4.45-18.13,1.76-8.11,3.41-16.24,4.25-24.5,.36-3.43,.48-9.09,2.15-12.24,2.39-5.69,7.51-10.69,13.79-11.53,2.06-.28,4.15-.3,6.22-.19,12.35,.97,24.6,4.73,35.91,9.68h0Z"/></g><g><path class="cls-16" d="M64.87,156.17c4.21-6.72,6.11-12.9,7.07-17.45,.71-3.37,.8-5.39,2.12-7.63,2.77-4.71,7.46-4.5,10.61-4.36,3.07,.14,7.53,.34,10.61,5.45,1.1,1.84,1.55,3.5,2.12,5.45,1.34,4.56,3.5,10.94,7.07,18.54"/><path d="M64.87,156.17c3.24-5.57,5.6-11.64,6.78-17.93,.55-3.17,.95-6.71,3.35-9.15,2.31-2.6,6.05-3.08,9.29-2.88,3.24,.05,6.84,.67,9.26,3.08,2.47,2.28,3.57,5.6,4.37,8.73,1.75,6.19,4.01,12.23,6.55,18.15-2.93-5.75-5.36-11.76-7.29-17.93-1.15-4.47-3.38-9.3-8.25-10.49-4.3-.77-9.92-1.51-13.27,1.95-2.29,2.31-2.6,5.62-3.26,8.68-1.36,6.33-3.92,12.41-7.53,17.78h0Z"/></g><path class="cls-13" d="M85.52,9.19c-5.28-.34-17.53-.51-30.19,5.21-4.29,1.94-16.48,7.44-21.56,19.09-2.14,4.89-2.33,9.28-2.16,12.15l6.85,54.41c.19,2.18,.75,4.47,2,8s2,7,7,12c2.66,2.66,8.37,5.69,17,10,8,4,17.01,9.1,21.06,9.31"/><path class="cls-13" d="M84.57,9.19c5.28-.34,17.53-.51,30.19,5.21,4.29,1.94,16.48,7.44,21.56,19.09,2.14,4.89,2.33,9.28,2.16,12.15l-6.85,54.41c-.19,2.18-.75,4.47-2,8s-2,7-7,12c-2.66,2.66-8.37,5.69-17,10-8,4-17.01,9.1-21.06,9.31"/><g><path class="cls-16" d="M99.47,162.55c1.82-1.16,29-12,43.32-9.25,1.44,.28,9.02,2.51,12.73,11.97,2.04,5.21,.73,7.09,3.18,21.95,.61,3.73,1.26,6.81,2.55,12.97,3.86,18.48,4.66,17.24,5.73,24.95,.48,3.46,1.96,14.1,.64,26.94-.62,6.03-1.47,8.76-1.27,14.97,.19,5.94,1.12,8.26,1.91,14.97,.85,7.24,.74,12.8,.64,17.96-.12,5.74-.77,22.37-6.37,40.91-.18,.59-.32,2.49-1.27,3.99-1.05,1.65-2.77,2.57-4.46,2-2.3-.78-3.35-4.41-3.82-5.99-1.02-3.43-.74-5.95-.64-13.97,.08-6.22-.11-2.91,0-9.98,.26-16.59,1.13-23.74,1.27-38.91,.02-2.01,.27-4.57,0-7.98-.5-6.32-2.08-10.8-3.18-13.97-2.18-6.27-4.08-12.78-6.37-18.96-2.6-7.01-5.5-17.98-6.37-34.92"/><path d="M99.47,162.55c11.3-4.95,23.56-8.71,35.91-9.68,2.07-.11,4.16-.09,6.22,.19,6.28,.84,11.4,5.84,13.79,11.53,1.66,3.21,1.79,8.67,2.15,12.24,.83,8.26,2.49,16.39,4.25,24.5,1.22,5.84,2.82,12.34,4.45,18.13,2.27,10.16,2.7,20.7,1.91,31.07-.29,4.16-1.15,8.26-1.36,12.36-.2,4.12,.13,8.24,.88,12.3,1.55,8.18,1.96,16.58,1.7,24.88-.28,13.53-2.29,27.03-6.12,40.01l-.22,.75c-.04,.14-.07,.24-.09,.34l-.07,.37c-.35,4-4.34,8.33-7.97,4.47-4.42-5.92-2.75-14.55-2.91-21.48-.22-16.57,1.25-33.22,1.45-49.79,.48-8.38-2.41-16.31-5.08-24.11-1.29-3.95-2.5-7.92-3.87-11.83-4.43-11.67-6.18-24.2-6.77-36.61,.48,8.28,1.48,16.56,3.43,24.62,.96,4.04,2.22,7.98,3.72,11.86,2.13,5.86,3.91,11.82,5.97,17.7,2.14,5.87,3.42,12.12,3.2,18.39-.13,3.63-.16,8.77-.27,12.45-.4,12.45-1.27,24.87-.99,37.33l-.07,6.23c-.1,4.11-.24,8.25,1.41,12.1,.67,1.7,1.79,3.78,3.81,3.73,1.94-.1,3.29-1.95,3.74-3.75,.22-.7,.3-1.57,.51-2.28,1.54-5.21,2.8-10.5,3.75-15.85,2.17-12.21,3.04-24.7,2.42-37.08-.31-8.31-2.92-16.43-2.33-24.8,.24-4.2,1.11-8.26,1.41-12.38,1.01-12.29,.21-25.01-3.38-36.87-2.89-12.11-5.69-24.31-6.91-36.72-.45-4.12-.22-8.38-2-12.17-2.3-5.64-7.32-10.66-13.52-11.53-2.05-.28-4.13-.31-6.2-.2-12.34,.94-24.6,4.67-35.91,9.58h0Z"/></g><g><path class="cls-16" d="M118.1,307.32c2.34,4.98,5.3,11.9,8.07,20.47,7.76,24.03,8.69,44.51,8.87,51.57,.05,1.92,.62,29.28-4.41,49.83-.56,2.28-2.26,8.87-2.66,17.88-.36,8.24,.56,14.36,.79,16.07,2.61,19.21-2.37,35.42-6.02,56.25-3.5,19.95-3.87,20.32-5.09,31.77-.48,4.49-.18,2.89-.99,10.46-.43,3.96-6.4,2.65-6.83,2.63-.4-.02-4.84,.26-6.5-3.36-.85-1.84-1.01-9.51-.85-12.84,0,0,0-5-2.46-33.41-1.54-17.74-4.01-15.05-3.52-27.23,.84-20.71,11.13-29.85,6.64-44.7-.55-1.8-.34-.49-3.73-8.22-1.65-3.77-6.97-15.91-10.24-26.6-3.75-12.28-4.99-23.83-4.99-35.83s0-23-.62-44.6"/><path d="M118.1,307.32c16.34,33.87,20.47,72.61,15.35,109.65-.7,5.19-1.86,10.69-3.07,15.76-2.21,10.4-2.42,21.13-.84,31.66,.64,5.35,.72,10.75,.37,16.12-.76,10.71-3.12,21.19-5.13,31.69-1.9,10.47-3.92,21.02-5.52,31.52-.75,5.29-1.14,10.58-1.65,15.91l-.21,1.99c-.24,3.54-4.6,3.98-7.35,3.42l-.24-.04h-.15c-2.7,.06-5.76-1.05-6.96-3.69-.8-2.04-.74-4.11-.92-6.2-.11-1.91-.11-4.13-.08-6.06-.24-11.29-1.5-22.59-2.35-33.88-.38-6.72-1.86-13.15-3.27-19.69-1.11-9.4,.66-18.97,3.53-27.89,2.43-7.53,5.38-15.23,3.39-23.13-.49-2.6-2-4.86-3-7.28-6.4-14.67-12.72-29.68-14.9-45.65-1.58-10.61-1.14-21.35-1.16-32.03,0-10.68-.16-21.36-.41-32.04,.36,10.67,.65,21.35,.77,32.04,.14,10.66-.18,21.38,1.53,31.93,2.65,17.87,10.2,34.55,17.71,50.82,3.02,8.56-.05,17.6-2.72,25.73-2.46,7.58-3.94,15.44-3.74,23.41,.04,2.65,.45,5.19,1.13,7.77,1.36,5.2,2.05,10.58,2.51,15.91,.91,10.65,1.87,21.28,2.43,31.98,.04,2.58-.09,5.41,.08,8,.21,4.98,.51,8.45,6.58,8.48,2.13,.31,5.83,.74,6.09-2.05,.65-5.96,1.04-11.99,1.91-17.94,1.64-10.6,3.66-21.04,5.6-31.59,2.02-10.46,4.4-20.89,5.18-31.52,.36-5.29,.29-10.61-.33-15.87-.71-5.28-1.16-10.71-.97-16.06,.17-5.38,.82-10.74,1.97-15.99,9.75-41.4,6.76-86.35-11.17-125.17h0Z"/></g><g><path class="cls-16" d="M116.19,557.87c.83,1.59,3.12,7.17,5.23,9.4,1.38,1.46,2.78,2.57,5.03,4.36,3.35,2.67,5.03,3.66,5.75,6.11,.09,.32,.57,1.95,0,2.62-.5,.58-1.27-.21-2.87,0-1.54,.2-1.68,1.03-2.87,.87-.89-.12-.98-.61-2.16-.87-.8-.18-1.42-.1-2.16,0-2.11,.29-2.33,1.06-3.59,.87-1.08-.16-1.06-.76-2.16-.87-.89-.09-1.27,.26-2.87,.87-1.85,.7-2.78,1.06-3.59,.87-1.6-.36-2.58-2.09-2.87-2.62-1.22-2.16-.46-3.36-1.44-5.23-1.26-2.41-3.03-1.4-4.31-3.49-1.95-3.18,.12-8.85,.72-10.47,.89-2.44,2.05-4.17,2.87-5.23"/><path d="M116.19,557.87c1.46,2.68,3.3,6.72,5.31,8.95,1.19,1.23,2.59,2.26,3.98,3.32,3.09,2.49,7.69,4.58,7.85,9.14,.1,.88-.43,2.17-1.55,2.17-.36,.03-.84-.11-1.17-.16-.68-.12-1.39-.07-1.99,.23-.42,.22-.87,.55-1.44,.64-.67,.11-1.3-.01-1.88-.31-.52-.3-.66-.4-1-.49-.92-.28-2.26-.06-3.27,.28-.52,.2-1.51,.71-2.25,.62-.75,.02-1.6-.43-2.14-.82-.15-.07-.52-.12-.71-.08-1.6,.52-3.25,1.42-4.98,1.72-2.86,.35-4.75-2.57-5.38-4.95-.35-1.74-.12-3.25-1.36-4.42-.45-.46-1.26-.62-2.19-1.19-2.59-1.78-2.3-5.41-1.74-7.98,.88-3.43,2.27-6.81,4.63-9.47-2.36,3.33-6.05,13.3-2.11,16.2,.56,.35,1.57,.5,2.45,1.23,.85,.73,1.33,1.64,1.62,2.63,.26,1.01,.24,1.9,.44,2.6,.37,1.35,1.46,2.95,2.57,3.37,.31,.11,.46,.14,.79,.09,1.75-.36,3.14-1.26,4.91-1.76,.85-.18,1.94,.09,2.59,.62,.15,.1,.22,.13,.33,.17,.22,.06,.5,.1,.73,.03,1.16-.51,2.69-.96,4.05-.95,.53,0,1.07,.07,1.58,.22,.73,.18,1.16,.65,1.68,.77,.54,.09,.51-.06,1.27-.42,.98-.47,2.12-.53,3.14-.32l.63,.14c.18,.04,.17,0,.02,.07-.1,.08-.04,.06-.02-.03,.11-.46,0-.99-.11-1.5-.34-1.64-1.4-2.75-2.67-3.82-2.39-2.04-5.83-4.68-7.82-7.1-2.2-2.89-3.36-6.22-4.78-9.42h0Z"/></g><g><path class="cls-16" d="M50.53,307.32c-2.34,4.98-5.3,11.9-8.07,20.47-7.76,24.03-8.69,44.51-8.87,51.57-.05,1.92-.62,29.28,4.41,49.83,.56,2.28,2.26,8.87,2.66,17.88,.36,8.24-.56,14.36-.79,16.07-2.61,19.21,2.37,35.42,6.02,56.25,3.5,19.95,3.87,20.32,5.09,31.77,.48,4.49,.18,2.89,.99,10.46,.43,3.96,6.4,2.65,6.83,2.63,.4-.02,4.84,.26,6.5-3.36,.85-1.84,1.01-9.51,.85-12.84,0,0,0-5,2.46-33.41,1.54-17.74,4.01-15.05,3.52-27.23-.84-20.71-11.13-29.85-6.64-44.7,.55-1.8,.34-.49,3.73-8.22,1.65-3.77,6.97-15.91,10.24-26.6,3.75-12.28,4.99-23.83,4.99-35.83s0-23,.62-44.6"/><path d="M50.53,307.32c-17.93,38.81-20.92,83.77-11.17,125.17,1.15,5.25,1.8,10.61,1.97,15.99,.2,5.35-.25,10.78-.97,16.06-.62,5.26-.69,10.58-.33,15.87,.78,10.63,3.15,21.06,5.18,31.52,1.93,10.55,3.96,20.98,5.6,31.59,.86,5.95,1.26,11.99,1.91,17.94,.27,2.81,3.97,2.34,6.09,2.05,6.02-.04,6.38-3.4,6.58-8.48,.18-2.59,.04-5.41,.08-8,.56-10.71,1.52-21.33,2.43-31.98,.46-5.32,1.14-10.71,2.51-15.91,.68-2.57,1.09-5.11,1.13-7.77,.2-7.97-1.28-15.83-3.74-23.41-2.67-8.13-5.74-17.17-2.72-25.73,7.51-16.27,15.06-32.95,17.71-50.82,1.7-10.55,1.38-21.27,1.53-31.93,.12-10.68,.41-21.36,.77-32.04-.24,10.68-.41,21.36-.41,32.04-.02,10.68,.42,21.42-1.16,32.03-1.43,10.64-4.77,20.91-8.7,30.86-1.95,4.98-4.03,9.91-6.2,14.8-.74,1.79-1.8,3.61-2.5,5.39-.96,3.12-1.37,6.42-1.07,9.67,.44,5.23,2.36,10.25,3.95,15.35,1.63,5.1,2.95,10.36,3.5,15.74,.53,5.36,.66,10.9-.79,16.13-1.34,5.15-1.99,10.4-2.44,15.71-.88,10.64-1.82,21.29-2.36,31.92-.05,1.25,.04,2.76,.03,3.98-.02,2.71-.08,5.39-.46,8.1-.13,1.38-.76,3-1.91,3.96-1.6,1.44-3.68,1.87-5.71,1.86-.78,.12-1.57,.22-2.38,.23-2.28,.15-5.15-.95-5.25-3.6l-.21-1.99c-.3-2.66-.44-5.35-.72-7.98-.73-7.98-2.17-15.8-3.61-23.7-2.48-15.86-6.68-31.41-7.98-47.45-.36-5.36-.27-10.77,.37-16.12,1.81-11.86,1.24-23.95-1.73-35.55-.87-3.66-1.64-8.14-2.17-11.87-5.12-37.04-.99-75.79,15.35-109.65h0Z"/></g><g><path class="cls-16" d="M52.78,557.87c-.88,1.59-3.31,7.17-5.56,9.4-1.47,1.46-2.95,2.57-5.34,4.36-3.56,2.67-5.35,3.66-6.11,6.11-.1,.32-.6,1.95,0,2.62,.53,.58,1.34-.21,3.05,0,1.63,.2,1.79,1.03,3.05,.87,.95-.12,1.04-.61,2.29-.87,.85-.18,1.51-.1,2.29,0,2.24,.29,2.48,1.06,3.82,.87,1.15-.16,1.13-.76,2.29-.87,.95-.09,1.35,.26,3.05,.87,1.97,.7,2.95,1.06,3.82,.87,1.7-.36,2.74-2.09,3.05-2.62,1.3-2.16,.49-3.36,1.53-5.23,1.34-2.41,3.22-1.4,4.58-3.49,2.07-3.18-.13-8.85-.76-10.47-.95-2.44-2.18-4.17-3.05-5.23"/><path d="M52.78,557.87c-1.57,3.29-2.81,6.71-5.21,9.55-2.14,2.38-5.79,5.02-8.29,7.04-1.66,1.25-3.2,3.14-2.88,5.29,.04,.06,0-.02-.1-.05l.99-.2c1.05-.18,2.19-.09,3.18,.37,.76,.36,.78,.48,1.36,.39,.56-.12,1.01-.59,1.76-.76,2.02-.55,4.06-.03,5.84,.68,.29,.1,.49,.09,.83,.03,.31-.07,.35-.12,.93-.47,.57-.31,1.19-.41,1.84-.39,1.57,.21,2.66,.96,4.09,1.37,1.71,.68,2.67,.63,3.84-.69,1.25-1.38,1.45-2.62,1.7-4.54,.23-1.04,.71-1.99,1.51-2.77,.83-.81,1.94-1.04,2.62-1.34,4.68-2.47,.49-13.09-2.01-16.33,3.22,3.56,6.48,10.51,4.77,15.36-.37,.93-1.16,1.85-2.13,2.3-1.78,.67-2.76,1.33-3.09,3.11-.08,1.7-.65,4.03-1.96,5.42-.9,1.22-2.9,2.26-4.48,1.73-1.64-.34-3.4-1.28-4.96-1.64-.25,0-.56,.03-.78,.16-.67,.57-2.3,1.03-3.33,.58-1.51-.62-3.18-1.1-4.69-.71-.89,.31-1.77,1.03-2.93,.81-.95-.12-1.56-.84-2.51-.91-1.03-.19-1.66,.31-2.78,.15-.95-.26-1.26-1.17-1.27-1.92-.02-2.59,1.75-4.8,3.78-6.16,4.33-3.18,9.29-5.7,11.74-10.73l2.64-4.72h0Z"/></g><g><path class="cls-15" d="M101.97,29.55c-9.17,.54-9.31,9.47-20,11-6.7,.96-7.82-2.39-19-2-4.9,.17-9.32,.37-14,3-6.15,3.45-8.94,8.93-10,11-3.33,6.53-1.53,11.66,1,31,1.2,9.2,1.8,13.8,2,17,1.21,19.84-3.11,24.11,0,37,1.76,7.3,3.38,6.91,7,17,3.58,10,2.42,15.82,6,30,1.68,6.65,3.06,10.44,6,14,1.45,1.76,3.34,3.53,3,4-.46,.64-4.7-1.52-7-3-12.35-7.96-13.86-25.44-16-25-1.13,.23-1.48,5.22-1,9,.45,3.48,1.57,5.68,1,6-.62,.35-2.7-1.78-4-4-2.26-3.85-1.37-8.52-2.5-11.5-2.62-6.9-8,4-10,2-.39-.39-2-6,1.5-12.5,1.05-1.95,5.5-5.83,5.5-6.5,0-4-12.35,.74-12-1,.37-1.86,8-3,9-5,2.41-4.82-3.86-19.78-5.5-28.5-2.87-15.25,4.05-17.68,4-36-.05-15.59-2.08-15.12-4-33-1.42-13.24,1.2-21.13,9-31C42.07,9.77,53.61,5.6,58.97,5.55c9.26-.08,12.91,.28,28,1,13.39,.64,17.32-2.16,27-1,8.46,1.01,13.28,5.31,21,13,5.72,5.69,7.13,10.28,9,19,2.4,11.17,1.63,22.6,0,45-1,13.8-1.69,16.95,0,23,2.53,9.06,6.5,10.74,8,20,.38,2.33,1.66,10.89-2,20-2.97,7.37-6.18,7.65-10,17-2.73,6.68-3.36,12.09-4,12-.7-.1-.46-6.13,0-11,1.25-13.16,5.63-15.49,5-24-.54-7.35-4.21-14.25-6-14-.31,.04-.99,.36-2,6-1.62,9.02-.52,11.76-2,17-1.67,5.91-5.28,10.3-6,10-.68-.29,1.27-4.66,2-12,.42-4.15,.24-7.2,0-11-.48-7.61-1.36-10.3-3-21-1.47-9.6-2.2-14.5-2-19,.2-4.42,.74-4.73,3-16,3.9-19.47,3.47-24.47,2-29-.47-1.45-1.61-4.58-4-8-.59-.84-9.79-13.66-21-13Z"/><path d="M101.97,29.55c-2.59,.15-5.13,1.17-7.06,2.92-1.99,1.67-3.64,3.72-5.77,5.23-4.2,3.12-9.95,3.83-14.87,2.13-2.5-.69-5.08-1.13-7.67-1.23-7.67-.26-16.09,.41-21.83,6.1-3.65,3.55-6.73,8.22-7.39,13.34-.49,5.17,.64,10.35,1.29,15.47,1.35,10.3,3.21,20.57,3.6,30.96,.42,7.81-.96,15.56-1.28,23.33-.02,5.15,.9,10.39,2.95,15.12,3.63,6.89,6.73,14.19,7.79,21.97,1.04,7.73,2.14,15.43,4.34,22.92,1.06,3.72,2.45,7.4,4.94,10.41,.99,1.29,2.28,2.37,3.13,3.79,.1,.21,.18,.49-.03,.71-.27,.22-.47,.14-.65,.14-1.97-.4-3.67-1.46-5.41-2.4-8.2-4.59-12.36-13.53-15.23-22.07-.45-1.12-.8-2.52-1.53-3.44-.21-.19-.26-.2-.43-.02-1.01,1.91-.79,4.36-.79,6.49,.03,2.65,.86,5.08,1.34,7.67,.01,.24-.03,.52-.28,.69-.32,.16-.55,.04-.72-.02-2.01-1.23-3.36-3.31-4.33-5.42-1.02-2.49-1.05-5.18-1.34-7.73-.27-1.63-.57-4.06-2.38-4.57-1.86-.03-3.22,1.78-4.6,2.9-.77,.65-1.51,1.48-2.6,1.65-.43,.03-.92-.18-1.09-.64-1.28-3.84-.49-8.04,1.15-11.63,1.27-2.88,3.99-4.73,5.84-7.17,.09-.17,.08-.05,.07-.25-.02-.53-.45-.86-1.02-1.01-3.11-.6-6.39,.65-9.54,.88-.35,0-.66,.09-1.17-.17-1.8-1.92,6.21-3.8,7.32-4.61,1.28-.53,1.76-1.44,1.87-2.76,.25-2.52-.33-5.11-.87-7.59-1.18-5.05-2.85-9.98-4.18-15-1.35-5.05-2.15-10.37-1.29-15.58,.41-2.6,1.18-5.11,1.89-7.61,1.49-4.96,2.33-10.08,2.39-15.25,.08-5.17-.09-10.37-.96-15.45-1.78-10.23-4.25-20.57-3.07-31.04,1.36-10.53,8.17-19.51,15.73-26.58,5.84-5.12,13-9.69,20.99-10.09,2.6-.02,5.21,0,7.81,.07,10.37,.17,20.73,1.67,31.08,.69,10.91-1.49,20.98-2.26,29.84,5.6,3.94,3.45,7.87,6.91,10.99,11.16,3.07,4.33,4.27,9.59,5.36,14.68,1.11,5.11,1.52,10.35,1.55,15.56,.02,10.42-.92,20.78-1.65,31.15-.29,4.62-1.06,10.98-.9,15.52,.21,5.16,2.1,10.11,4.63,14.58,1.27,2.26,2.53,4.58,3.31,7.1,2.23,7.52,2.06,15.77-.54,23.18-1.52,5.09-5.42,8.88-8.07,13.31-3.14,5.17-4.4,11.16-6.25,16.85-.06,.07-.11,.21-.35,.26-.26,.01-.37-.18-.41-.26-.5-1.61-.27-3.31-.28-4.96,.11-2.6,.28-5.2,.61-7.79,.52-5.21,2.39-10.15,4.03-15.05,1.56-4.95,.76-10.34-.98-15.16-.53-1.37-2.41-6.04-4.14-5.78-.77,.88-.95,2.37-1.26,3.51-.83,3.8-1.33,7.66-1.49,11.55-.11,2.58-.24,5.23-.99,7.75-.72,2.51-1.8,4.92-3.21,7.12-.77,1.09-1.44,2.24-2.63,2.95-.99,.32-.47-1.27-.39-1.76l.45-1.9c4.17-15.33-.27-30.98-2.35-46.27-.71-5.13-1.54-10.34-.92-15.54,.83-5.14,2.24-10.14,3.15-15.27,1.37-7.63,3.19-15.36,2.62-23.15-1.15-11.33-14.01-25.7-25.87-25.22h0Zm0,0c11.92-.5,24.77,13.9,25.95,25.22,.59,7.8-1.22,15.55-2.57,23.18-.9,5.11-2.3,10.15-3.12,15.26-.6,5.17,.23,10.36,.95,15.49,1.37,10.3,3.89,20.46,4.13,30.89,.28,5.86-.69,11.71-2.14,17.37-.07,.45-.24,.93-.18,1.38,.04,.11,.03,.09,.18,.05,2.95-2.4,4.51-6.33,5.65-9.89,.74-2.49,.86-5.08,.96-7.68,.21-4.55,.76-9.11,1.96-13.51,.87-3.58,2.75-1.44,3.95,.57,1.95,3.41,3.03,7.28,3.43,11.17,.73,5.31-1.71,10.25-3.2,15.18-1.46,4.98-1.93,10.18-2.13,15.35,.01,1.56-.2,3.23,.23,4.72,.03,.07,.05,.02-.05,.02,.3-.56,.5-1.55,.72-2.3,1.29-5.03,2.88-10.06,5.49-14.6,1.28-2.29,2.98-4.31,4.49-6.39,4.49-6.34,5.98-14.43,5.41-22.09-.32-5.21-1.96-10.13-4.69-14.57-2.57-4.52-4.5-9.56-4.74-14.85-.05-4.6,.5-10.97,.87-15.59,.85-15.43,3.15-31.24,.02-46.5-1.1-5.04-2.27-10.19-5.27-14.39-3.03-4.12-7.02-7.62-10.86-10.98-8.65-7.67-18.57-6.83-29.24-5.35-10.38,1-20.81-.47-31.2-.63-2.59-.07-5.18-.08-7.78-.06-7.68,.41-14.66,4.9-20.33,9.87-7.4,6.9-14.12,15.68-15.47,25.96-1.19,10.28,1.26,20.65,3,30.77,.86,5.17,1.03,10.41,.94,15.62-.07,5.23-.94,10.46-2.45,15.45-.71,2.5-1.48,4.98-1.88,7.51-.84,5.09-.07,10.31,1.25,15.26,1.33,5.02,2.98,9.96,4.16,15.03,.56,3.16,2.5,9.55-1.39,11.14-1.79,.88-3.65,1.39-5.44,2.18-.69,.34-1.51,.65-1.78,1.29,0,0-.04-.08-.03-.06,.07,.05,.46,.08,.74,.05,2.41,.03,10.67-2.85,11.26,.76,.14,.32-.29,.87-.48,1.09-1.48,1.73-3.19,3.24-4.57,5.03-2.33,3.64-3.4,8.56-2.1,12.72,.14,.42,.73,.32,1.23-.03,.51-.32,1-.75,1.48-1.18,1.47-1.2,2.94-3.16,5.1-3.04,2.18,.56,2.6,3.25,2.87,5.1,.31,3.89,.57,7.82,3.27,10.81,.61,.73,1.38,1.67,2.24,1.93,.08-.6-.25-1.33-.39-2.03-.87-3.17-1.15-6.48-.83-9.75,.1-.93,.5-4.24,2.05-2.92,1.48,2.23,1.92,4.86,2.96,7.3,2.66,7.19,6.8,14.33,13.65,18.18,1.68,.87,3.66,2.22,5.5,2.34,0,.05,0-.07-.07-.2-.13-.25-.32-.51-.52-.76-1.68-1.95-3.53-3.89-4.74-6.21-4.54-9.42-5.61-20.07-7.11-30.29-1.04-7.76-4.1-15.01-7.71-21.89-2.07-4.79-2.98-10.06-2.95-15.26,.34-7.79,1.73-15.5,1.33-23.32-.36-10.37-2.21-20.66-3.53-30.95-.64-5.14-1.76-10.32-1.26-15.52,.68-5.18,3.78-9.84,7.46-13.41,5.78-5.7,14.22-6.37,21.92-6.09,2.6,.1,5.18,.55,7.68,1.25,4.91,1.71,10.63,1.01,14.83-2.09,2.13-1.5,3.78-3.55,5.78-5.22,1.94-1.75,4.48-2.76,7.07-2.91h0Z"/></g><path d="M129.97,124.55c-2.03-12.39-1.88-25.43,2.28-37.39,1.05-2.98,2.37-5.85,3.43-8.79,2.09-5.9,2.98-12.18,2.93-18.43,0-3.14-.22-6.27-.63-9.39,.53,3.1,.89,6.23,1,9.38,.2,6.31-.55,12.69-2.66,18.66-1.05,2.99-2.34,5.85-3.36,8.81-4.18,11.84-4.42,24.76-2.98,37.14h0Z"/><path d="M135.97,96.55c-.48,6.33,.19,12.76,2.64,18.64,2.43,5.88,4.43,12.04,5.36,18.36-1.54-6.2-3.55-12.2-6.06-18.08-2.4-5.96-3.04-12.6-1.94-18.92h0Z"/><path d="M145.97,119.55c4.45,10.69,2.87,23.68-4,33,5.93-9.84,7.42-22.03,4-33h0Z"/><path d="M130.97,75.55c5.07-18.18-.06-38.12-17-48,17.6,8.85,23.23,30.16,17,48h0Z"/><path d="M138.97,43.55c-.98-10.55-6.76-20.26-15.23-26.54-6.57-5.57-12.43-6.71-20.83-5.7-6.01,.54-12,1.2-17.95,2.24,5.9-1.31,11.89-2.17,17.89-2.82,8.33-1.2,14.87,.08,21.33,5.72,8.54,6.38,14.29,16.38,14.78,27.09h0Z"/><path d="M104.97,18.55c8.25-3.25,18.31,1,22,9-4.59-7.3-13.59-11.13-22-9h0Z"/><path d="M93.97,24.55c-2.69,5.5-7.96,9.81-14,11,5.82-1.87,10.72-5.88,14-11h0Z"/><path d="M79.97,23.55c3.23-.95,6.13-2.67,8.52-5.03,2.42-2.54,6.26-3.22,9.48-1.97-3.27-.81-6.79-.17-9.14,2.34-2.43,2.33-5.51,4.1-8.86,4.66h0Z"/><path d="M80.97,10.55c-15.93-6.58-35.03-1.05-46,12,1.32-1.67,2.77-3.23,4.33-4.68,10.95-10.21,27.94-13.67,41.67-7.32h0Z"/><path d="M77.97,17.55c-3.9-1.85-8.47-2.7-12.66-1.46-6.73,2.76-11.71,8.49-17.06,13.28-4.26,3.94-8.38,8.12-10.83,13.45-2.55,5.21-4.01,10.93-4.46,16.73,.28-5.82,1.61-11.62,4.12-16.9,2.38-5.4,6.59-9.67,10.83-13.65,5.39-4.76,10.43-10.56,17.3-13.22,4.27-1.21,8.89-.21,12.75,1.76h0Z"/><path d="M56.97,14.55c-5.32,5.08-11,9.79-16.8,14.29-6.02,4.27-10.36,10.54-12.2,17.71,1.46-7.3,5.85-13.78,11.89-18.1,5.84-4.48,11.53-9.11,17.11-13.9h0Z"/><path d="M50.97,36.55c5.62-5.58,14.76-7.24,22-4-7.47-2.52-15.92-1-22,4h0Z"/><path d="M75.97,28.55c-3.79-2.68-8.42-3.74-13-3,4.41-1.47,9.68-.25,13,3h0Z"/><path d="M99.97,22.55c3.05-2.61,8.23-1.64,10,2-2.34-3.08-6.62-3.88-10-2h0Z"/><g><path class="cls-15" d="M28.97,58.55c1.87,5.73,3.16,10.56,4,14,3.72,15.14,7.63,31.09,5,45-.29,1.54-1.05,5.09-1,10,.06,5.7,1.17,10.26,2,13"/><path d="M28.97,58.55c2.31,6.56,4.11,13.3,5.77,20.05,2.46,10.12,4.71,20.49,4.41,30.98-.04,1.31-.25,3.93-.42,5.23-.9,5.1-1.89,10.28-1.46,15.49,.18,3.46,.76,6.9,1.7,10.25-1.06-3.31-1.76-6.75-2.07-10.22-.53-5.21,.32-10.47,1.18-15.6,.15-1.29,.34-3.87,.38-5.17,.2-10.43-1.97-20.69-4.28-30.82-1.55-6.78-3.15-13.54-5.21-20.19h0Z"/></g><g><path class="cls-15" d="M30.97,85.55c-.35,4.76-.95,12.04-2,21-.51,4.34-.89,7.1-1,8-.89,7.12,0,18.85,8,39"/><path d="M30.97,85.55c-.68,9.64-1.54,20.67-2.77,30.21-.73,10.07,1.91,20.06,4.94,29.6,.87,2.75,1.83,5.48,2.83,8.19-1.11-2.67-2.19-5.35-3.17-8.07-3.83-10.86-6.81-22.54-4.77-34.1,1.03-7.87,1.96-17.92,2.95-25.83h0Z"/></g><g><path class="cls-15" d="M34.97,100.55c-.18,3.79-.49,7.8-1,12-.29,2.41-.63,4.75-1,7"/><path d="M34.97,100.55c.26,6.38-.53,12.8-2,19,.43-6.16,1.26-12.87,2-19h0Z"/></g><g><path class="cls-15" d="M39.97,148.55c4.93,8.23,6.51,15.1,7,20,.37,3.72,.24,7.59,2,13,1.44,4.43,3.46,7.79,5,10"/><path d="M39.97,148.55c4.19,6.4,7,13.82,7.5,21.49,.18,7.63,2.28,15.1,6.5,21.51-4.74-6.08-7.02-13.82-7.25-21.45-.43-7.62-3.12-14.89-6.76-21.55h0Z"/></g><g><path class="cls-15" d="M38.97,173.55c.55-1.96,1.14-4.68,1.37-8,.16-2.3,.12-4.34,0-6"/><path d="M38.97,173.55c.76-4.68,1.18-9.26,1.37-14,.85,4.65,.39,9.61-1.37,14h0Z"/></g><g><path class="cls-15" d="M37.47,159.06c-.66,.12-4.51,.87-7.05,4.12s-1.85,6.51-1.72,7.06"/><path d="M37.47,159.06c-4.94,1.38-9.44,5.73-8.78,11.18-1.85-5.51,3.41-10.9,8.78-11.18h0Z"/></g><path d="M77.33,94.29c.05,4.14,1.81,4.13,5.05,5.5,.81,.26,1.5,1.09,2.37,1.02,.71-.04,1.59-.61,2.46-.98,1.15-.64,2.77-.9,3.78-1.62,.86-1.08,.66-2.61,.34-3.92,.74,1.42,1.22,3.91-.48,4.88-1.49,.68-3.06,1.39-4.51,2.16-.65,.35-1.6,.66-2.41,.38-.75-.27-1.24-.76-1.94-1.06-3.29-1.51-5.41-2.11-4.65-6.36h0Z"/><path d="M90.33,90.29c-1.4-3.83-2.21-7.91-2-12,.47,4,1.28,8.05,2,12h0Z"/><g><path class="cls-2" d="M76.69,112.48c-3.86-.2-7.12-.47-9.56-.71,.74,.69,7.21,6.55,18.17,6.42,11.25-.13,17.53-6.46,18.17-7.13-3.75,.78-7.02,1.2-9.56,1.43-6.13,.55-11.01,.32-17.22,0Z"/><path d="M68.55,112.32c10.12,4.81,24.21,3.95,34.21-.84-1.31,.68-2.61,1.38-3.99,1.94-9.5,3.41-21.19,3.86-30.22-1.1h0Z"/></g><g><g><path class="cls-14" d="M72.97,71.55c-1.79-3.17-5.03-4.31-7-5-2.92-1.03-5.35-1.02-7-1-3.53,.04-11.34,.85-12,4-.22,1.04,.52,2.02,2,4,1.33,1.78,3.29,4.4,7,6,3.64,1.57,6.82,1.25,9,1,2.89-.33,7.88-.9,9-4,.71-1.97-.46-4.05-1-5Z"/><path d="M72.97,71.55c-3.07-4.9-9.65-6.14-15.04-5.72-2.65,.25-10.32,.94-10.53,4.19,.22,1.19,1.35,2.34,2.06,3.36,3.1,4.71,8.44,7.57,14.11,7.05,5.48-.24,13.7-1.56,9.39-8.89h0Zm0,0c4.47,7.26-3.86,8.88-9.35,9.39-5.86,.86-11.7-2.1-14.95-6.96-.84-1.27-1.92-2.24-2.19-3.88,.15-4.31,8.29-4.58,11.43-4.77,5.43-.13,12.04,1.25,15.06,6.22h0Z"/></g><circle class="cls-11" cx="62.47" cy="73.05" r="6.5"/><circle class="cls-6" cx="62.45" cy="73.2" r="2.65"/><circle class="cls-8" cx="60.47" cy="71.05" r="1.5"/></g><g><g><path class="cls-14" d="M95.15,71.55c1.79-3.17,5.03-4.31,7-5,2.92-1.03,5.35-1.02,7-1,3.53,.04,11.34,.85,12,4,.22,1.04-.52,2.02-2,4-1.33,1.78-3.29,4.4-7,6-3.64,1.57-6.82,1.25-9,1-2.89-.33-7.88-.9-9-4-.71-1.97,.46-4.05,1-5Z"/><path d="M95.15,71.55c3.02-4.96,9.62-6.35,15.06-6.22,3.15,.18,11.27,.45,11.43,4.77-.27,1.64-1.35,2.62-2.19,3.88-3.25,4.85-9.09,7.82-14.95,6.96-5.48-.5-13.83-2.13-9.35-9.39h0Zm0,0c-4.31,7.33,3.9,8.65,9.39,8.89,5.67,.51,11.01-2.34,14.11-7.06,.72-1.03,1.85-2.17,2.06-3.36-.19-3.25-7.9-3.95-10.53-4.19-5.39-.42-11.97,.82-15.04,5.72h0Z"/></g><circle class="cls-4" cx="105.65" cy="73.05" r="6.5"/><circle class="cls-6" cx="105.67" cy="73.2" r="2.65"/><circle class="cls-8" cx="107.65" cy="71.05" r="1.5"/></g><path d="M92.94,68.52c8.73-7.18,21.91-9.55,32.05-4.01l-.04,.09c-11.38-3.69-22.18-2.9-32.01,3.91h0Z"/><path d="M75.94,68.59c-9.18-6.99-21.3-7.58-31.95-3.99l-.04-.09c10.01-5.5,23.69-3.22,31.99,4.09h0Z"/><g><g><path class="cls-16" d="M12.56,362.93c.51-.25,1.57,.55,3.67,2.17,1.76,1.36,1.79,1.55,2.84,2.23,.73,.48,1.9,1.23,3.54,1.79,1.82,.62,2.26,.33,3.29,1.03,1.05,.71,2.04,1.98,1.7,2.61-.21,.39-.89,.43-1.33,.44-3.96,.04-8.04-2.01-8.04-2.01-3.43-1.72-5.16-2.62-5.88-4.41-.61-1.53-.54-3.5,.21-3.87Z"/><path d="M12.56,362.93c.84-.15,1.54,.64,2.21,1.04,2.64,1.91,5.25,4.29,8.5,5.01,.84,.24,1.7,.18,2.52,.61,.82,.45,1.48,1.04,2.01,1.84,.58,.83,.46,1.99-.69,2.19-3.72,.38-7.34-1.14-10.41-2.91-1.44-.84-3.03-1.65-3.98-3.08-.68-1.08-.9-2.4-.74-3.64,.07-.4,.2-.86,.58-1.07h0Zm0,0c-.71,.5-.62,1.55-.57,2.32,.14,1.71,1.24,3.1,2.73,3.89,3.56,1.97,7.55,3.58,11.65,3.57,.37,.01,.78-.1,.8-.16,.04,.04,.01-.32-.19-.62-.37-.61-.97-1.2-1.6-1.58-1.35-.57-3.31-.86-4.65-1.74-2.62-1.41-4.52-3.75-7.01-5.33-.35-.19-.74-.48-1.16-.35h0Z"/></g><g><path class="cls-16" d="M16.06,365.65c.61-.15,1.56,.98,3.44,3.23,1.58,1.9,1.56,2.1,2.53,3.1,.68,.7,1.76,1.79,3.4,2.79,1.82,1.11,2.36,.9,3.31,1.91,.96,1.02,1.72,2.63,1.21,3.23-.32,.38-1.06,.25-1.55,.15-4.29-.91-8.21-4.1-8.21-4.1-3.29-2.69-4.95-4.07-5.29-6.17-.29-1.8,.26-3.91,1.16-4.13Z"/><path d="M16.06,365.65c.94,.04,1.51,1.06,2.13,1.65,2.39,2.7,4.62,5.91,7.96,7.49,.85,.46,1.79,.61,2.57,1.27,.76,.68,1.34,1.47,1.71,2.45,.59,1.58-.46,2.44-2.01,2.05-3.78-.83-7.02-3.01-9.74-5.53-1.36-1.25-2.88-2.5-3.58-4.27-.47-1.32-.4-2.81,.07-4.11,.17-.41,.42-.88,.88-1.01h0Zm0,0c-.89,.37-1.04,1.52-1.17,2.37-.48,2.99,1.97,5.03,4.12,6.64,2.83,2.26,6.08,4.16,9.61,4.94,.4,.1,.87,.09,.94,0,.26-.86-.74-2.24-1.4-2.88-.55-.54-1.52-.8-2.33-1.32-1.63-.96-3.03-2.25-4.25-3.67-1.42-1.84-2.72-3.75-4.35-5.42-.33-.29-.69-.7-1.17-.65h0Z"/></g><g><path class="cls-16" d="M12.78,367.79c.73-.11,1.73,1.3,3.7,4.11,1.66,2.37,1.62,2.61,2.66,3.87,.72,.88,1.88,2.27,3.7,3.59,2.02,1.48,2.67,1.29,3.68,2.55,1.02,1.28,1.76,3.24,1.1,3.89-.41,.41-1.26,.19-1.82,.03-4.92-1.48-9.19-5.6-9.19-5.6-3.59-3.46-5.39-5.24-5.58-7.73-.16-2.13,.68-4.55,1.76-4.71Z"/><path d="M12.78,367.79c1.09,.13,1.66,1.39,2.33,2.14l1.92,2.64c1.76,2.7,3.85,5.25,6.63,6.95,.93,.62,2.03,.9,2.85,1.74,.81,.86,1.4,1.84,1.73,3,.51,1.85-.73,2.68-2.44,2.1-4.32-1.34-7.89-4.17-10.84-7.36-1.47-1.59-3.14-3.18-3.78-5.31-.43-1.59-.21-3.32,.47-4.79,.24-.47,.58-.99,1.13-1.1h0Zm0,0c-1.07,.34-1.37,1.68-1.61,2.65-.49,2.18,.31,4.34,1.84,5.9,2.21,2.34,4.61,4.57,7.33,6.31,1.79,1.16,3.71,2.15,5.72,2.74,.46,.15,1.02,.21,1.17,.09,.52-.95-.66-2.83-1.35-3.63-.62-.7-1.72-1.09-2.61-1.77-1.82-1.26-3.33-2.9-4.62-4.68-1.49-2.28-2.83-4.64-4.57-6.75-.35-.38-.74-.89-1.3-.88h0Z"/></g><g><path class="cls-16" d="M15.54,340.04c2.21,1.28,3.52,2.71,4.29,3.77,1.86,2.53,1.64,4.2,3.66,8.01,1.11,2.09,1.15,1.55,3.07,4.67,3.11,5.05,2.48,5.65,4.8,8.95,2.35,3.35,4.15,4.39,3.69,5.66-.43,1.18-3.39,1.35-4.66,.46-1.97-1.38-3.39-2.55-4.19-5.35-.24-.83-.86-2-1.34-3.01-.19-.4-1-2.07-2.87-2.6-1.56-.43-3.38,.06-4.33,1.21-1.01,1.21-.22,2.16-.79,5.31-.51,2.85-1.3,2.91-1.57,5.39-.21,1.96,.13,3.46,.51,5.18,.48,2.14,1.13,3.75,2.19,6.33,1.05,2.57,1.64,3.59,1.85,5.57,.07,.63,.35,3.14-.45,3.44-.99,.38-3.07-2.91-3.18-3.09-1.29-2.07-1.21-3.14-2.35-5.26-1.14-2.13-1.79-1.82-2.71-3.66-.47-.94-.5-1.34-1.28-5.11-.72-3.44-1.08-5.16-1.39-6.14-.87-2.75-1.33-2.9-1.49-4.56-.18-1.88,.32-2.62,.58-4.77,.18-1.48,0-3.17-.37-6.5-.65-5.81-1.21-6.73-.91-9.33,.25-2.15,.9-3.83,1.36-4.84"/><path d="M15.54,340.04c2.74,1.51,5.08,3.96,6.08,6.99,.54,1.48,1.09,2.94,1.84,4.32,1.55,2.75,3.68,5.1,5.04,7.98,1.34,2.88,2.61,5.66,4.77,8.01,.75,.97,1.76,1.74,2.18,2.97,.42,1.64-1.71,2.27-2.9,2.2-.83,0-1.72-.15-2.48-.67-2.01-1.24-3.81-3.31-4.35-5.7-.55-1.31-1.18-2.93-2.09-4-1.38-1.64-4.24-1.64-5.6-.05-.86,1.11-.24,2.97-.57,4.34-.13,1.56-.8,3.21-1.36,4.59-.42,1.4-.44,2.96-.21,4.45,.54,4.8,3.23,8.78,4.35,13.42,.15,1.28,.79,5.2-1.48,4.5-2.88-1.81-3.84-5.3-5.06-8.14-.61-1.56-1.94-2.32-2.75-3.78-.42-.71-.65-1.58-.8-2.34-.58-3-1.3-6.23-1.95-9.21-.38-1.56-1.29-2.9-1.47-4.53-.3-2.39,.93-4.68,.66-7.04-.19-3.12-.53-6.26-.98-9.37-.62-3.11-.14-6.38,1.24-9.23-1.28,2.88-1.72,6.12-1,9.19,.53,3.11,.95,6.22,1.22,9.38,.32,2.4-.86,4.65-.56,7,.19,1.51,1.13,2.91,1.51,4.4,.7,2.99,1.47,6.23,2.1,9.24,.17,.78,.35,1.45,.74,2.1,.76,1.28,2.24,2.33,2.8,3.8,1.22,2.8,2.09,5.94,4.63,7.69,.34,.25,.39-.94,.39-1.24,.08-2.36-.73-4.43-1.72-6.6-1.25-2.91-2.42-5.93-2.88-9.09-.24-1.62-.23-3.28,.27-4.9,.61-1.54,1.18-2.8,1.34-4.41,.2-1.19,.03-2.33,.19-3.56,.52-2.3,3.39-3.18,5.41-2.6,3.41,1.03,3.9,5.07,5.27,7.82,.7,1.32,1.89,2.28,3.17,3.18,.54,.39,1.28,.54,2,.56,3.89-.1,1.6-2.23,.17-3.92-2.13-2.37-3.47-5.35-4.74-8.2-1.31-2.87-3.42-5.29-4.87-8.07-.72-1.41-1.25-2.92-1.74-4.41-.91-3.01-3.15-5.49-5.86-7.08h0Z"/></g></g><g><g><path class="cls-16" d="M156.8,362.93c-.51-.25-1.57,.55-3.67,2.17-1.76,1.36-1.79,1.55-2.84,2.23-.73,.48-1.9,1.23-3.54,1.79-1.82,.62-2.26,.33-3.29,1.03-1.05,.71-2.04,1.98-1.7,2.61,.21,.39,.89,.43,1.33,.44,3.96,.04,8.04-2.01,8.04-2.01,3.43-1.72,5.16-2.62,5.88-4.41,.61-1.53,.54-3.5-.21-3.87Z"/><path d="M156.8,362.93c-.42-.14-.81,.15-1.16,.35-2.5,1.58-4.4,3.92-7.01,5.33-1.34,.88-3.3,1.17-4.65,1.74-.63,.38-1.23,.97-1.6,1.58-.2,.3-.22,.65-.19,.62,.02,.06,.43,.17,.8,.16,4.1,.01,8.09-1.61,11.65-3.57,1.49-.78,2.58-2.17,2.73-3.89,.05-.77,.14-1.82-.57-2.32h0Zm0,0c.38,.21,.51,.67,.58,1.07,.16,1.24-.07,2.57-.74,3.64-.95,1.43-2.55,2.23-3.98,3.08-3.07,1.76-6.69,3.29-10.41,2.91-1.14-.21-1.27-1.35-.69-2.19,.53-.8,1.19-1.38,2.01-1.84,.82-.43,1.68-.37,2.52-.61,3.25-.72,5.87-3.1,8.5-5.01,.67-.4,1.37-1.19,2.21-1.04h0Z"/></g><g><path class="cls-16" d="M153.3,365.65c-.61-.15-1.56,.98-3.44,3.23-1.58,1.9-1.56,2.1-2.53,3.1-.68,.7-1.76,1.79-3.4,2.79-1.82,1.11-2.36,.9-3.31,1.91-.96,1.02-1.72,2.63-1.21,3.23,.32,.38,1.06,.25,1.55,.15,4.29-.91,8.21-4.1,8.21-4.1,3.29-2.69,4.95-4.07,5.29-6.17,.29-1.8-.26-3.91-1.16-4.13Z"/><path d="M153.3,365.65c-.48-.05-.84,.36-1.17,.65-1.63,1.67-2.92,3.58-4.35,5.42-1.23,1.42-2.62,2.72-4.25,3.67-.81,.52-1.78,.78-2.33,1.32-.66,.64-1.66,2.03-1.4,2.88,.07,.08,.54,.09,.94,0,3.53-.78,6.78-2.67,9.61-4.94,2.15-1.61,4.6-3.64,4.12-6.64-.13-.85-.29-2-1.17-2.37h0Zm0,0c.46,.14,.71,.6,.88,1.01,.47,1.3,.54,2.79,.07,4.11-.69,1.77-2.22,3.01-3.58,4.27-2.72,2.52-5.96,4.7-9.74,5.53-1.53,.38-2.6-.45-2.01-2.05,.37-.98,.95-1.77,1.71-2.45,.77-.66,1.72-.81,2.57-1.27,3.34-1.58,5.58-4.79,7.96-7.49,.63-.6,1.19-1.61,2.13-1.65h0Z"/></g><g><path class="cls-16" d="M156.59,367.79c-.73-.11-1.73,1.3-3.7,4.11-1.66,2.37-1.62,2.61-2.66,3.87-.72,.88-1.88,2.27-3.7,3.59-2.02,1.48-2.67,1.29-3.68,2.55-1.02,1.28-1.76,3.24-1.1,3.89,.41,.41,1.26,.19,1.82,.03,4.92-1.48,9.19-5.6,9.19-5.6,3.59-3.46,5.39-5.24,5.58-7.73,.16-2.13-.68-4.55-1.76-4.71Z"/><path d="M156.59,367.79c-.56-.02-.95,.5-1.3,.88-1.74,2.11-3.08,4.46-4.57,6.75-1.3,1.77-2.81,3.41-4.62,4.68-.9,.68-2,1.06-2.61,1.77-.7,.81-1.86,2.68-1.35,3.63,.15,.12,.71,.06,1.17-.09,2.01-.6,3.93-1.58,5.72-2.74,2.72-1.73,5.12-3.96,7.33-6.31,1.53-1.56,2.34-3.73,1.84-5.9-.23-.98-.53-2.31-1.61-2.65h0Zm0,0c.55,.11,.89,.63,1.13,1.1,.68,1.48,.9,3.21,.47,4.79-.64,2.13-2.31,3.72-3.78,5.31-2.95,3.2-6.52,6.03-10.84,7.36-4.04,1.13-2.42-3.53-.71-5.1,1.73-1.38,3.79-1.99,5.4-3.68,2.35-2.08,4.09-5.16,6-7.65,.67-.76,1.24-2.01,2.33-2.14h0Z"/></g><g><path class="cls-16" d="M153.82,340.04c-2.21,1.28-3.52,2.71-4.29,3.77-1.86,2.53-1.64,4.2-3.66,8.01-1.11,2.09-1.15,1.55-3.07,4.67-3.11,5.05-2.48,5.65-4.8,8.95-2.35,3.35-4.15,4.39-3.69,5.66,.43,1.18,3.39,1.35,4.66,.46,1.97-1.38,3.39-2.55,4.19-5.35,.24-.83,.86-2,1.34-3.01,.19-.4,1-2.07,2.87-2.6,1.56-.43,3.38,.06,4.33,1.21,1.01,1.21,.22,2.16,.79,5.31,.51,2.85,1.3,2.91,1.57,5.39,.21,1.96-.13,3.46-.51,5.18-.48,2.14-1.13,3.75-2.19,6.33-1.05,2.57-1.64,3.59-1.85,5.57-.07,.63-.35,3.14,.45,3.44,.99,.38,3.07-2.91,3.18-3.09,1.29-2.07,1.21-3.14,2.35-5.26,1.14-2.13,1.79-1.82,2.71-3.66,.47-.94,.5-1.34,1.28-5.11,.72-3.44,1.08-5.16,1.39-6.14,.87-2.75,1.33-2.9,1.49-4.56,.18-1.88-.32-2.62-.58-4.77-.18-1.48,0-3.17,.37-6.5,.65-5.81,1.21-6.73,.91-9.33-.25-2.15-.9-3.83-1.36-4.84"/><path d="M153.82,340.04c-2.71,1.59-4.94,4.06-5.86,7.08-.49,1.49-1.02,2.99-1.74,4.4-1.45,2.78-3.55,5.2-4.87,8.07-1.26,2.85-2.61,5.84-4.74,8.2-1.4,1.68-3.74,3.82,.17,3.92,.73-.01,1.47-.17,2-.56,1.28-.9,2.47-1.86,3.17-3.18,1.37-2.75,1.86-6.79,5.27-7.82,2.02-.58,4.89,.3,5.41,2.6,.17,1.23-.01,2.37,.19,3.56,.16,1.62,.74,2.88,1.34,4.41,.5,1.62,.51,3.28,.27,4.9-.46,3.16-1.63,6.18-2.88,9.09-.98,2.17-1.8,4.25-1.72,6.6,.02,.44,.02,.98,.25,1.27,0,.01,0-.02,.01,0,.04-.03,.06,0,.13-.04,2.54-1.75,3.41-4.89,4.63-7.69,.56-1.47,2.04-2.52,2.8-3.8,.39-.65,.58-1.32,.74-2.1,.63-3.01,1.4-6.24,2.1-9.24,.38-1.49,1.32-2.89,1.51-4.4,.3-2.35-.87-4.6-.56-7,.27-3.16,.7-6.27,1.22-9.38,.72-3.07,.28-6.31-1-9.19,1.38,2.85,1.86,6.12,1.24,9.23-.44,3.11-.79,6.25-.98,9.37-.26,2.36,.96,4.66,.66,7.04-.18,1.63-1.09,2.97-1.47,4.53-.65,2.98-1.37,6.21-1.95,9.21-.15,.76-.38,1.62-.8,2.34-.81,1.46-2.14,2.22-2.75,3.78-1.22,2.84-2.18,6.33-5.06,8.14-2.28,.7-1.62-3.25-1.48-4.5,1.12-4.65,3.81-8.63,4.35-13.42,.23-1.49,.21-3.06-.21-4.45-.56-1.38-1.23-3.03-1.36-4.59-.33-1.38,.29-3.24-.57-4.35-1.36-1.59-4.22-1.6-5.6,.05-.91,1.07-1.54,2.69-2.09,4-.54,2.39-2.34,4.46-4.35,5.7-.76,.52-1.65,.67-2.48,.67-1.18,.07-3.32-.56-2.89-2.2,.42-1.23,1.43-2,2.18-2.97,2.17-2.35,3.43-5.13,4.77-8.01,1.36-2.87,3.5-5.23,5.04-7.98,.75-1.38,1.3-2.84,1.84-4.32,1.01-3.04,3.34-5.48,6.08-6.99h0Z"/></g></g><ellipse class="cls-3" cx="84.97" cy="303.55" rx="1" ry="3"/><path d="M78.97,229.55c-12.6,11.84-32.95,8.25-40.35-7.49-2.26-4.81-2.81-10.35-1.65-15.51-.74,5.19-.01,10.57,2.34,15.18,7.67,15.15,26.7,18.37,39.66,7.82h0Z"/><path d="M91.54,229.55c12.97,10.55,31.99,7.32,39.66-7.82,2.35-4.61,3.08-9.99,2.34-15.18,1.16,5.16,.61,10.7-1.65,15.51-7.41,15.75-27.76,19.32-40.35,7.49h0Z"/></g><g id="MALE"><g><path class="cls-10" d="M381.97,352.55c-3.9,.11-5.85-2.45-10-5-8.55-5.24-11.52-1.26-20-6-1.58-.88-9.87-5.51-12-14-.66-2.61-.32-3.99,0-9,.17-2.65,.11-8.76,0-21-.14-15.53-.67-20.37-1-23-.8-6.4-1.71-9.9-2-11-.67-2.51-2.37-8.25-6-15-2.16-4.01-3.9-6.33-5-8-4.25-6.46-7-26-7-26-.35-2.75-1.73-13.92-2-29-.11-6-.04-13.07,3-21,1.64-4.27,3.09-6.04,4-7,2.64-2.78,6.3-4.61,16-6,10.92-1.57,19.49-1.06,22-1,24.54,.6,36.82,.91,48,0,1.84-.15,5.77-.5,11,0,5.04,.48,12.5,1.18,18,5,8.69,6.03,9.45,18.52,10,25,.36,4.29,.1,8.5,0,10-.17,2.52-.48,5.21-2,13-1.95,10-2.49,10.88-4,19-1.63,8.76-1.09,8.12-2,11-1.78,5.63-3.59,7.23-8,16-2.34,4.66-3.65,7.27-5,11-.71,1.96-3.02,9.33-3.5,19.5s-.4,3.92-.5,15.5c-.17,20.17-.5,17.5,0,27,.14,2.64,1.35,6.47,.5,9.5-.78,2.77-2.4,3.57-7.5,6.5-12.61,7.24-17.47,3.44-27,10-2.9,1.99-4.72,3.91-8,4Z"/><g><path class="cls-16" d="M353.59,158.55c6.08-6.72,8.84-12.9,10.22-17.45,1.03-3.37,1.16-5.39,3.07-7.63,4.01-4.71,10.79-4.5,15.34-4.36,4.44,.14,10.89,.34,15.34,5.45,1.6,1.84,2.24,3.5,3.07,5.45,1.93,4.56,5.06,10.94,10.22,18.54"/><path d="M353.59,158.55c4.85-5.65,8.67-12.24,10.4-19.47,.62-3.74,2.94-7.42,6.59-8.92,3.55-1.63,7.48-1.66,11.19-1.57,3.71,.1,7.61,.33,11.13,1.96,3.5,1.58,6.33,4.66,7.62,8.23,2.76,6.92,6.31,13.49,10.33,19.78-4.37-6.06-8.11-12.6-11.04-19.47-3.01-7.68-10.5-9.6-18.07-9.49-7.64-.48-15.41,1.06-17.01,9.69-1.91,7.27-5.96,13.88-11.14,19.27h0Z"/></g><g><path class="cls-10" d="M381.98,10.14c-5.28-.36-17.53-.54-30.19,5.53-4.29,2.06-16.48,7.91-21.56,20.28-2.14,5.19-2.33,9.85-2.16,12.9l6.47,60.83c.19,2.31,.71,5.55,2.16,9.22,2.88,7.28,7.69,11.86,10.78,14.75,2.83,2.64,8.19,7.55,17.25,11.06,6.93,2.69,13.21,3.46,17.25,3.69"/><path class="cls-10" d="M381.93,10.14c5.28-.36,17.53-.54,30.19,5.53,4.29,2.06,16.48,7.91,21.56,20.28,2.14,5.19,2.33,9.85,2.16,12.9l-6.47,60.83c-.19,2.31-.71,5.55-2.16,9.22-2.88,7.28-7.69,11.86-10.78,14.75-2.83,2.64-8.19,7.55-17.25,11.06-6.93,2.69-13.21,3.46-17.25,3.69"/></g><g><path class="cls-16" d="M333.97,157.55c-2.85-1.16-9.15-3.25-17-2-2.23,.36-14.17,2.51-20,12-3.21,5.22-1.15,7.1-5,22-.97,3.74-1.98,6.83-4,13-6.07,18.52-7.32,17.28-9,25-.76,3.47-3.08,14.13-1,27,.98,6.05,2.31,8.78,2,15-.3,5.95-1.76,8.27-3,15-1.34,7.26-1.16,12.83-1,18,.18,5.75,1.21,22.42,10,41,.28,.59,.5,2.5,2,4,1.65,1.65,4.36,2.57,7,2,3.62-.79,5.27-4.42,6-6,1.6-3.44,1.16-5.96,1-14-.12-6.24,.17-2.92,0-10-.41-16.63-1.78-23.79-2-39-.03-2.01-.42-4.58,0-8,.79-6.33,3.27-10.82,5-14,3.43-6.28,6.4-12.81,10-19,4.08-7.02,8.64-18.02,10-35"/><path d="M333.97,157.55c-12-4.92-27.54-1.83-35.73,8.5-1.84,2.41-2.97,5.19-3.21,8.25-.82,8.05-2.73,15.99-5.26,23.66-2.47,7.68-4.99,15.4-8.29,22.79-1.64,3.66-2.4,7.64-3.07,11.6-1.71,9.98-.86,20.12,1.51,29.92,1.23,6.05,.12,12.27-1.59,18.1-.98,3.89-1.6,7.87-1.86,11.88-.83,16.05,1.92,32.32,8.15,47.15,.59,1.43,1.23,2.74,1.84,4.18,.52,2.41,1.97,4.47,4.38,5.26,3.99,1.5,7.66-.81,9.3-4.54,2.08-3.48,1.55-7.64,1.5-11.65-.2-4.04,.03-8.09-.03-12.12-.26-14.12-1.85-28.22-2.06-42.35-.49-6.11,1.16-12.27,4.04-17.63,1.94-3.56,3.8-7.12,5.63-10.73,3.49-7.3,8.26-13.95,10.83-21.63,2.72-7.6,4.24-15.6,4.92-23.65-.6,8.05-2.04,16.08-4.69,23.73-2.55,7.71-7.16,14.47-10.62,21.77-1.8,3.61-3.67,7.21-5.59,10.75-2.82,5.32-4.41,11.31-3.92,17.35,.26,14.15,1.9,28.21,2.21,42.36-.08,6.09,.14,12.11,.15,18.2-.24,4.08-2.08,8.44-5.73,10.62-2.9,1.5-6.6,.87-8.96-1.32-1.2-1.07-1.8-2.67-2.21-4.14-.57-1.35-1.28-2.75-1.84-4.13-6.37-14.95-9.14-31.34-8.22-47.57,.28-4.06,.92-8.09,1.93-12.03,1.7-5.77,2.82-11.77,1.63-17.75-2.35-9.86-3.16-20.14-1.4-30.18,.68-3.98,1.47-8.02,3.16-11.75,3.32-7.37,5.85-15.03,8.35-22.71,2.56-7.65,4.46-15.51,5.33-23.55,.27-3.07,1.47-6,3.37-8.42,8.35-10.33,24-13.32,36.04-8.26h0Z"/></g><g><path class="cls-16" d="M429.86,157.55c2.85-1.16,9.15-3.25,17-2,2.23,.36,14.17,2.51,20,12,3.21,5.22,1.15,7.1,5,22,.97,3.74,1.98,6.83,4,13,6.07,18.52,7.32,17.28,9,25,.76,3.47,3.08,14.13,1,27-.98,6.05-2.31,8.78-2,15,.3,5.95,1.76,8.27,3,15,1.34,7.26,1.16,12.83,1,18-.18,5.75-1.21,22.42-10,41-.28,.59-.5,2.5-2,4-1.65,1.65-4.36,2.57-7,2-3.62-.79-5.27-4.42-6-6-1.6-3.44-1.16-5.96-1-14,.12-6.24-.17-2.92,0-10,.41-16.63,1.78-23.79,2-39,.03-2.01,.42-4.58,0-8-.79-6.33-3.27-10.82-5-14-3.43-6.28-6.4-12.81-10-19-4.08-7.02-8.64-18.02-10-35"/><path d="M429.86,157.55c12.04-5.07,27.69-2.07,36.04,8.26,1.91,2.43,3.11,5.34,3.37,8.42,.87,8.03,2.77,15.89,5.33,23.55,2.5,7.68,5.03,15.34,8.35,22.71,1.69,3.73,2.47,7.77,3.16,11.75,1.76,10.03,.94,20.32-1.4,30.18-1.19,5.98-.06,11.98,1.63,17.75,1,3.94,1.65,7.97,1.93,12.03,.92,16.22-1.85,32.61-8.22,47.57-.56,1.37-1.27,2.78-1.84,4.13-.41,1.46-1,3.08-2.21,4.14-2.36,2.19-6.06,2.82-8.96,1.32-3.65-2.16-5.49-6.55-5.73-10.62,0-6.1,.23-12.11,.15-18.2,.31-14.16,1.95-28.21,2.21-42.36,.49-6.03-1.09-12.03-3.91-17.35-1.91-3.54-3.79-7.14-5.59-10.75-3.46-7.3-8.07-14.06-10.62-21.77-2.65-7.65-4.09-15.68-4.69-23.73,.68,8.04,2.2,16.05,4.92,23.65,2.57,7.68,7.33,14.34,10.83,21.63,1.83,3.61,3.69,7.17,5.63,10.73,2.87,5.36,4.52,11.52,4.04,17.63-.21,14.13-1.8,28.22-2.07,42.35-.07,4.03,.16,8.08-.03,12.12-.05,4.02-.58,8.17,1.5,11.65,1.63,3.69,5.32,6.07,9.3,4.54,2.41-.81,3.86-2.84,4.38-5.26,.61-1.44,1.25-2.75,1.84-4.18,6.23-14.83,8.98-31.1,8.15-47.15-.26-4-.88-7.98-1.86-11.88-1.7-5.83-2.81-12.05-1.58-18.1,2.37-9.8,3.21-19.94,1.51-29.92-.67-3.96-1.43-7.94-3.07-11.6-3.3-7.39-5.82-15.11-8.29-22.79-2.53-7.67-4.44-15.61-5.26-23.66-.23-3.04-1.36-5.84-3.21-8.25-8.19-10.33-23.72-13.41-35.73-8.5h0Z"/></g><g><path class="cls-16" d="M340.97,322.55c-3.13,4.84-7.12,11.59-11,20-10.86,23.56-13.32,43.96-14,51-.18,1.91-2.67,29.2,2,50,.52,2.3,2.12,8.99,2,18-.11,8.25-1.61,14.31-2,16-4.38,19.04,.5,35.5,3.5,56.5s3.29,20.5,4,32c.28,4.51-3.18,7.12,.5,10.5,3.21,2.94,7.48,3,8,3,.49,0,4.78-.06,8-3,4.03-3.68,3.98-9.66,4-13,0,0,.02-2.38,3-33,1.73-17.75,5.79-14.8,6-27,.36-20.72-11.34-30.41-5-45,.77-1.77,.44-.47,5-8,2.22-3.67,9.39-15.5,14-26,5.3-12.06,7.05-21.95,9-33,2.04-11.56,3.88-27.6,3-47"/><path d="M340.97,322.55c-20.76,31.98-28.46,70.99-24.42,108.66,.38,3.59,1.14,8.44,1.92,11.96,2.57,10.61,2.85,21.79,.59,32.48-.22,.99-.66,2.97-.84,3.97-3.32,16.02,.42,32.25,2.99,48.11,1.82,12.77,4.27,25.42,5,38.32,.5,3.18-2.6,6.66-.33,9.32,3.37,3.77,9.67,4.44,13.98,1.82,4.78-2.74,5.47-8.61,5.4-13.73,.83-10.87,1.94-21.6,2.98-32.4,.53-5.39,1.34-10.92,3.54-15.99,2.39-4.87,2.81-10.23,2.46-15.57-.3-5.37-1.52-10.61-3.11-15.75-2.39-7.59-5.41-16.19-2.18-24.11,.89-2.64,2.8-4.69,4.17-7.07,8.43-13.77,16.82-27.93,20.91-43.68,5.29-20.97,7.83-42.7,6.94-64.34,1.14,21.66-1.16,43.45-6.23,64.53-4,15.87-12.35,30.15-20.73,44.05-1.31,2.32-3.19,4.35-4.03,6.89-3.05,7.77-.07,15.75,2.35,23.36,2.49,7.8,3.95,16.06,3.04,24.27-.29,2.74-1.26,5.44-2.35,7.93-2.12,4.91-2.9,10.25-3.41,15.61-1.01,10.77-2.11,21.59-2.91,32.32,0,2.66-.09,5.52-.95,8.23-1.49,5.69-7.71,9.28-13.43,8.42-3.39-.5-7.54-2.29-8.67-5.91-.57-2.86,1.37-5.36,1.1-8.11-.7-12.8-3.13-25.5-4.91-38.18-2.57-15.99-6.28-32.41-2.89-48.58,.2-.99,.61-3,.85-3.98,2.23-10.52,2.05-21.51-.42-31.97-1.94-9.24-2.63-18.95-2.68-28.37-.8-32.58,8.34-65.29,26.28-92.5h0Z"/></g><g><path class="cls-7" d="M370.97,77.55c-1.79-3.17-5.03-4.31-7-5-2.92-1.03-5.35-1.02-7-1-3.53,.04-11.34,.85-12,4-.22,1.04,.52,2.02,2,4,1.33,1.78,3.29,4.4,7,6,3.64,1.57,6.82,1.25,9,1,2.89-.33,7.88-.9,9-4,.71-1.97-.46-4.05-1-5Z"/><circle class="cls-1" cx="360.47" cy="79.05" r="6.5"/><circle class="cls-6" cx="360.45" cy="79.2" r="2.65"/><circle class="cls-8" cx="358.47" cy="77.05" r="1.5"/></g><g><path class="cls-7" d="M395.15,77.55c1.79-3.17,5.03-4.31,7-5,2.92-1.03,5.35-1.02,7-1,3.53,.04,11.34,.85,12,4,.22,1.04-.52,2.02-2,4-1.33,1.78-3.29,4.4-7,6-3.64,1.57-6.82,1.25-9,1-2.89-.33-7.88-.9-9-4-.71-1.97,.46-4.05,1-5Z"/><circle class="cls-12" cx="405.65" cy="79.05" r="6.5"/><circle class="cls-6" cx="405.67" cy="79.2" r="2.65"/><circle class="cls-8" cx="407.65" cy="77.05" r="1.5"/></g><g><path class="cls-16" d="M431.38,75.66c1.46-2.62,4.07-4.19,6.38-3.85,4.12,.6,4.69,8.67,4.75,9.52,.37,5.74-2.21,13.59-7.91,15.16-2.05,.56-3.95,.16-5.16-.23"/><path d="M431.38,75.66c1.17-2.35,3.74-4.5,6.55-4.05,4.33,.99,5.02,8.23,4.95,11.9-.27,7.03-5.31,15.9-13.45,12.75,7.94,2.46,12.48-6.01,12.7-12.79,.13-3.35-.47-10.34-4.29-11.4-2.64-.49-5.11,1.41-6.46,3.59h0Z"/></g><g><path class="cls-16" d="M332.59,75.66c-1.46-2.62-4.07-4.19-6.38-3.85-4.12,.6-4.69,8.67-4.75,9.52-.37,5.74,2.21,13.59,7.91,15.16,2.05,.56,3.95,.16,5.16-.23"/><path d="M332.59,75.66c-1.35-2.18-3.82-4.07-6.46-3.59-3.84,1.09-4.4,8.02-4.29,11.4,.22,6.78,4.77,15.25,12.7,12.79-8.15,3.15-13.18-5.72-13.45-12.75-.07-3.67,.61-10.91,4.95-11.9,2.81-.45,5.37,1.7,6.55,4.05h0Z"/></g><g><path class="cls-5" d="M373.05,120.6c-4.67-.2-8.62-.49-11.58-.73,.89,.71,8.73,6.73,22,6.6,13.62-.14,21.22-6.64,22-7.33-4.54,.81-8.49,1.23-11.58,1.47-7.42,.57-13.33,.33-20.84,0Z"/><path d="M363.19,120.43c12.02,5.11,29.48,4.24,41.41-.86-1.63,.69-3.25,1.4-4.94,1.95-11.56,3.33-25.32,3.86-36.47-1.09h0Z"/></g><path d="M434.97,78.55c3.15-3.66,4.36,2.46,4.27,4.85-.06,3-1.35,5.89-3.27,8.15,2.42-3.63,3.58-8.21,2.15-12.43-.6-1.87-1.86-1.82-3.15-.57h0Z"/><path d="M329.97,80.79c-.7-.99-1.47-2.26-2.69-2.56-.38-.06-.7,.17-.93,.5-.9,1.41-1.13,3.19-.99,4.87,.27,3.45,2.13,6.58,4.6,8.95-2.8-2.12-4.79-5.38-5.1-8.91-.3-4.34,2.15-8.78,5.1-2.85h0Z"/><path d="M391.94,70.52c8.73-7.18,21.91-9.55,32.05-4.01l-.04,.09c-11.38-3.69-22.18-2.9-32.01,3.91h0Z"/><path d="M374.94,70.59c-9.18-6.99-21.3-7.58-31.95-3.99l-.04-.09c10.01-5.5,23.69-3.22,31.99,4.09h0Z"/><path class="cls-9" d="M382.97,42.55c-3.69-.28-8.49-.64-14-3-9.4-4.03-9.64-9.06-17-10-1.33-.17-5.89-.68-10,2-.68,.44-2.92,2-5,6-2.91,5.59-1.2,7.68-3,17-1.55,8.02-3.58,10.47-2,15,.87,2.5,2.49,4.6,2,5-.48,.39-2.61-1.08-4-3-1.7-2.35-1.9-4.88-2-6-1.01-11.68-2.38-10.41-2-16,.55-8.07,3.45-11.46,1-15-1.27-1.85-3.35-2.8-3-4,.33-1.13,2.34-.89,5-3,1.03-.82,1.67-1.6,2-2,1.15-1.42,1.39-2.33,3-6,1.59-3.63,2.07-4.38,3-5,1.07-.7,2.18-.88,3-1,2.15-.33,2.68,.35,5,0,.83-.12,1.88-.29,3-1,.3-.19,1.19-.79,2-2,2.27-3.41,1.34-7.89,2-8,.57-.1,.65,3.27,3,5,2.19,1.61,5.7,1.33,8,0,1.67-.96,1.41-1.73,4-4,2.24-1.96,4.68-3.35,5-3,.37,.41-2.59,2.78-2,4,.56,1.16,3.83,.2,8,0,3.88-.19,7.25,.54,14,2,7.82,1.69,8.89,2.82,12,2,3.49-.92,6.61-3.51,7-3,.25,.33-1.14,1.39-1,3,.03,.35,.17,1.07,1,2,2.48,2.78,8.52,4.57,10,5,5.09,1.48,7.69,2.21,10,2,2.98-.27,5.86-1.38,6-1,.13,.34-2.22,.98-3,3-.41,1.05-.22,2.04,0,3,1.21,5.13,3.46,8.66,3,9-.41,.31-2.55-2.3-3-2-.47,.31,1.7,3.27,3,7,1.47,4.19,2.43,11,1,17-.39,1.63-1.13,3.92,0,6,.81,1.49,2.29,2.34,2,3-.29,.66-1.88,.07-3,1-.93,.77-.9,2.07-1,3-.46,4.51-4.44,8.27-5,8-.36-.17,.63-2.01,1-5,.48-3.81-.44-6.3-1-9-1.6-7.62,1.34-8.36,0-15-.45-2.24-1.88-9.28-8-13-4.95-3.01-10.2-2.14-11-2-3.38,.61-5.92,2.4-11,6-4.58,3.24-4.51,3.95-7,5-3.61,1.52-6.82,1.32-11,1Z"/><path d="M372.94,99.19c-1.57,1.2-2.62,3.46-1.51,5.25,.25,.39,.63,.69,1.04,.73,1.48-.1,3.15-.47,4.66-.03,1.56,.37,3.01,.98,4.42,1.64,.46,.22,.82,.31,1.3,.3,.92,0,1.8-.43,2.7-.91,1.03-.47,1.51-1.26,2.6-1.76,1.59-.58,3.26-.06,4.85,.16,1.35,.43,2.73-.4,2.6-1.86-.17-1.93-1.74-3.55-3.09-4.86-.72-.69-1.75-1.27-2.2-2.22-1-1.84-1-4.04-1.34-6.06,.3,1.51,.57,3.04,.98,4.53,.43,1.55,1.76,2.39,2.99,3.3l1.14,1.06c1.99,1.58,3.93,5.82,.52,7.05-1.2,.3-2.12-.16-3.26-.23-1.03-.12-2.01-.28-2.81,.07-1.7,1.09-3.41,2.62-5.66,2.65-.56,.03-1.22-.15-1.68-.4-1.37-.67-2.79-1.28-4.23-1.7-1.53-.5-2.97-.14-4.56-.16-1.24-.21-1.76-1.53-1.78-2.62-.09-1.63,1.04-3.08,2.32-3.92h0Z"/><path d="M330.97,29.55c3.32-.72,5.89-2.73,7.22-5.87,.77-1.51,1.81-2.99,3.17-4.03,1.36-1.08,2.97-1.76,4.61-2.1-3.04,1.38-5.48,3.56-6.89,6.6-1.34,3.21-4.6,5.53-8.11,5.4h0Z"/><path d="M342.7,26.51c4.7-2.52,10.25-3.56,15.54-2.91-5.3,.75-10.33,1.69-15.54,2.91h0Z"/><path d="M361.69,10.6c3.5,2.47,7.46,3.81,11.72,4.12,3.29,.28,6.37,2.08,8.37,4.69,.65,.87,1.23,1.77,1.68,2.74-2.44-3.41-5.91-6.1-10.17-6.44-4.27-.33-8.58-1.99-11.6-5.11h0Z"/><path d="M377.92,11.71c-2.96-.83-5.6-2.27-7.9-4.31,2.96,.83,5.6,2.28,7.9,4.31h0Z"/><path d="M360.22,27.03c5.91,4.1,12.39,6.86,19.5,8.05-7.19,.26-14.53-2.87-19.5-8.05h0Z"/><path d="M420.11,28.42c-8.25-2.44-15.67-3.12-23.11,1.83-4.29,2.35-8.7,4.46-13.18,6.42,1.4-.84,2.82-1.63,4.23-2.44,4.18-2.21,8.56-5.04,12.82-7.14,6.23-2.68,13.24-1.18,19.24,1.33h0Z"/><path d="M387.81,19.24c5.79-.94,11.58-1.69,17.42-2.19,5.82-.63,12.1,.21,16.91,3.81-5.17-2.88-11.02-3.45-16.84-2.81-5.81,.46-11.65,1.03-17.49,1.19h0Z"/><path d="M410.47,14.55c-1.5,.13-3.04-.39-4.11-1.51-1.28-1.27-.98-3.33,.73-3.99-2.2,2.69,1.23,4.47,3.37,5.5h0Z"/><path d="M424.97,28.55c5.98,1.57,10.55,7.77,10,14-.97-6.05-4.69-11.08-10-14h0Z"/><path d="M391.19,14.14c-3.15,.34-5.74,1.19-8.51,2.72,1.77-2.63,5.55-3.85,8.51-2.72h0Z"/><path d="M434.97,46.55c.62,2.38,.33,5-.3,7.32-.64,2.34,.15,4.6,1.3,6.68-1.89-1.66-2.95-4.41-2.28-6.9,.68-2.39,1.09-4.63,1.28-7.1h0Z"/><path d="M332.97,33.55c.93,7.19-2.27,13.91-3,21-.66-7.19,2.55-13.85,3-21h0Z"/><path d="M362.7,21.39c7.42-1.71,15.82,2.67,18.77,9.67-4.21-6.14-11.31-9.86-18.77-9.67h0Z"/><g><path class="cls-15" d="M398.77,22.77c-2.13,.43-4.42,1-6.85,1.74-2.87,.87-5.45,1.85-7.74,2.84"/><path d="M398.77,22.77c-4.87,1.69-9.63,3.19-14.6,4.57,4.41-2.65,9.46-4.23,14.6-4.57h0Z"/></g><path d="M364.97,18.55c-3.52-.15-7.01-.48-10.41-1.41-2.63-.67-2.8-3.56-1.59-5.59-.78,3.68,.43,4.66,3.86,5.11,2.72,.51,5.46,1.03,8.14,1.89h0Z"/><path d="M381.02,11.01c6.04-2.61,13.18-2.66,19.28-.2-6.44-1.09-12.83-1.06-19.28,.2h0Z"/><path d="M418.03,22.6c4.26,3.38,7.59,3.45,11.44-.5,.53-.42,1.74-1.88,2.31-.75,.07,.29,.01,.42,0,.56-.64,1.79-.85,3.67-.27,5.57-1.05-1.78-.99-4-.51-5.85,0,.08,.18,.18,.24,.16-.02,.01-.1,.05-.17,.11-4.34,4.66-8.46,5.96-13.03,.7h0Z"/><g><path class="cls-16" d="M326.47,562.05c-1.27,2-4.77,9.02-7.99,11.83-2.12,1.84-4.25,3.24-7.69,5.49-5.12,3.36-7.69,4.6-8.78,7.69-.14,.4-.87,2.46,0,3.29,.76,.73,1.93-.26,4.39,0,2.35,.25,2.57,1.3,4.39,1.1,1.37-.15,1.5-.76,3.29-1.1,1.23-.23,2.17-.13,3.29,0,3.22,.37,3.57,1.34,5.49,1.1,1.66-.21,1.62-.95,3.29-1.1,1.36-.12,1.94,.33,4.39,1.1,2.83,.89,4.25,1.33,5.49,1.1,2.44-.46,3.94-2.63,4.39-3.29,1.87-2.72,.7-4.23,2.2-6.59,1.92-3.03,4.63-1.77,6.59-4.39,2.98-4-.19-11.13-1.1-13.18-1.36-3.07-3.13-5.25-4.39-6.59"/><path d="M326.47,562.05c-2.4,4.26-4.35,8.84-7.96,12.29-1.82,1.67-3.83,3.1-5.84,4.48l-6.02,4.11c-2.23,1.47-4.41,3.74-4.16,6.54,.11,.3,.06,.28,.41,.26,1.1-.2,2.62-.47,3.83-.27,1.11,.02,2.5,.91,3.43,1.04,1.18,.12,1.9-.68,3.13-.97,1.32-.37,2.76-.34,3.98-.19,1.78,.02,3.55,1.04,5.17,1.13,.9-.01,1.38-.41,2.23-.8,1.06-.41,2.25-.45,3.33-.13,2.31,.75,4.57,1.66,6.85,2.06,2.17,.27,3.89-1.4,5.02-3.13,1.06-1.42,.81-3.34,1.46-5.04,.52-1.31,1.43-2.46,2.67-3.14,1.55-.86,3.56-.92,4.6-2.33,3.69-4.87-1.22-15.35-4.86-19.46,1.75,1.7,3.24,3.69,4.36,5.88,1.1,2.19,2.08,4.46,2.62,6.91,.7,3.07,.44,7.11-2.62,8.89-1.51,.86-3.5,1.05-4.47,2.45-1.17,1.42-.93,3.17-1.4,4.9-.84,2.55-2.78,4.91-5.41,5.78-1.96,.65-4.12-.25-5.89-.75-1.69-.38-3.18-1.4-4.85-1.22-.75,.05-1.57,.8-2.43,.96-1.04,.29-2.35,.16-3.25-.22-2.08-.76-4.48-1.19-6.59-.69-1.11,.35-2.47,1.23-3.8,1-.83-.06-1.54-.47-2.01-.68-.97-.45-2.05-.57-3.11-.49-1,.02-2.19,.66-3.28-.1-1.11-.86-.92-2.43-.65-3.48,.58-2.6,2.74-4.59,4.89-5.92,4.09-2.66,8.37-4.96,12.19-7.96,3.64-3.15,5.83-7.73,8.44-11.73h0Z"/></g><g><g><path class="cls-16" d="M469.34,370.06c-.72-.35-2.19,.77-5.11,3.03-2.46,1.9-2.5,2.16-3.96,3.11-1.02,.67-2.65,1.72-4.94,2.5-2.54,.87-3.15,.46-4.59,1.44-1.46,.99-2.84,2.76-2.37,3.64,.29,.55,1.23,.6,1.86,.61,5.52,.06,11.21-2.8,11.21-2.8,4.79-2.4,7.2-3.65,8.19-6.14,.85-2.13,.76-4.88-.29-5.39Z"/><path d="M469.34,370.06c-.57-.2-1.14,.21-1.62,.48-2.46,1.6-4.59,3.59-6.85,5.44-1.9,1.4-3.97,2.59-6.24,3.3-1.13,.4-2.38,.44-3.25,.97-.98,.6-2.83,2.19-2.56,3.34,.13,.19,.73,.3,1.26,.3,2.26,.03,4.54-.37,6.75-.99,3.34-.91,6.51-2.44,9.53-4.14,2.07-1.12,3.59-3.08,3.77-5.47,.07-1.08,.19-2.54-.8-3.23h0Zm0,0c1.63,1.28,.76,5.03-.25,6.55-1.34,1.97-3.57,3.07-5.58,4.22-4.08,2.33-8.66,4.08-13.45,4.06-1.89,.05-2.92-1.14-1.8-2.88,.7-1.08,1.62-1.89,2.72-2.51,1.11-.59,2.32-.53,3.47-.87,3.39-.85,6.34-2.81,9.01-5.02l2.81-2.09c.93-.56,1.91-1.67,3.07-1.45h0Z"/></g><g><path class="cls-16" d="M464.46,373.85c-.86-.2-2.18,1.36-4.79,4.51-2.2,2.65-2.18,2.93-3.53,4.32-.94,.97-2.45,2.5-4.73,3.89-2.54,1.55-3.29,1.26-4.61,2.66-1.34,1.42-2.4,3.66-1.68,4.5,.45,.52,1.48,.35,2.16,.21,5.97-1.26,11.44-5.72,11.44-5.72,4.59-3.74,6.9-5.68,7.37-8.61,.4-2.51-.36-5.46-1.61-5.75Z"/><path d="M464.46,373.85c-.67-.08-1.18,.5-1.63,.91-2.27,2.32-4.1,4.97-6.1,7.52-1.72,1.96-3.67,3.74-5.95,5.04-1.12,.7-2.46,1.04-3.29,1.83-.87,.81-1.58,1.91-1.97,3.01-.19,.54-.2,1.16,0,1.28,.22,.19,.9,.16,1.47,.03,2.45-.51,4.83-1.49,7.07-2.7,3.39-1.8,6.44-4.22,9.29-6.79,1.96-1.71,3.13-4.2,2.75-6.83-.18-1.18-.41-2.79-1.64-3.3h0Zm0,0c2.06,.95,2.03,5.29,1.3,7.13-.98,2.45-3.12,4.16-5.02,5.88-3.87,3.49-8.37,6.46-13.55,7.59-4.78,.94-2.35-4.33-.27-5.96,1.05-.9,2.37-1.13,3.53-1.78,1.13-.58,2.2-1.28,3.2-2.07,2.98-2.25,5.33-5.73,7.84-8.49,.86-.82,1.68-2.27,2.97-2.31h0Z"/></g><g><path class="cls-16" d="M469.04,376.83c-1.02-.16-2.42,1.81-5.16,5.74-2.31,3.31-2.26,3.64-3.71,5.39-1.01,1.23-2.62,3.16-5.15,5.01-2.81,2.06-3.73,1.79-5.13,3.56-1.42,1.79-2.45,4.51-1.53,5.42,.58,.57,1.76,.27,2.54,.04,6.86-2.06,12.81-7.81,12.81-7.81,5-4.83,7.51-7.31,7.77-10.78,.23-2.97-.95-6.34-2.45-6.57Z"/><path d="M469.04,376.83c-.39-.04-.73,.18-1.02,.42-1.91,1.84-3.23,4.2-4.76,6.34-2.69,4.56-6.11,8.95-10.9,11.47-1.97,.98-3.21,2.95-3.78,5-.17,.66-.14,1.42,.18,1.6,.35,.23,1.14,.1,1.8-.1,2.83-.83,5.53-2.21,8.02-3.87,2.54-1.64,4.83-3.56,6.99-5.67,3.27-3,6.91-6.64,5.69-11.49-.32-1.36-.74-3.23-2.23-3.7h0Zm0,0c2.51,.9,2.91,5.98,2.21,8.21-.92,2.95-3.26,5.15-5.32,7.34-4.13,4.43-9.15,8.26-15.09,10.15-5.39,1.54-2.98-4.75-.81-6.8,1.12-1.16,2.65-1.56,3.93-2.43,3.87-2.4,6.75-5.99,9.19-9.78,1.57-2.12,2.93-4.46,4.87-6.27,.29-.23,.64-.45,1.03-.41h0Z"/></g><g><path class="cls-16" d="M465.19,338.14c-3.09,1.79-4.9,3.78-5.98,5.25-2.59,3.52-2.28,5.85-5.1,11.17-1.54,2.91-1.61,2.16-4.28,6.51-4.33,7.05-3.46,7.87-6.69,12.47-3.28,4.67-5.79,6.12-5.15,7.88,.6,1.64,4.72,1.88,6.5,.64,2.74-1.92,4.72-3.55,5.83-7.45,.33-1.15,1.2-2.79,1.87-4.19,.27-.56,1.39-2.89,4-3.62,2.17-.61,4.71,.08,6.03,1.68,1.4,1.69,.31,3.01,1.1,7.4,.71,3.98,1.82,4.06,2.18,7.51,.29,2.73-.18,4.83-.71,7.22-.66,2.99-1.58,5.23-3.05,8.82-1.47,3.59-2.28,5.01-2.58,7.77-.1,.88-.48,4.38,.62,4.8,1.38,.53,4.28-4.06,4.43-4.31,1.8-2.89,1.69-4.37,3.27-7.34,1.59-2.97,2.49-2.54,3.78-5.1,.66-1.31,.7-1.87,1.79-7.12,1-4.8,1.5-7.19,1.93-8.56,1.21-3.83,1.86-4.04,2.08-6.36,.25-2.62-.44-3.66-.81-6.64-.25-2.06,0-4.43,.52-9.07,.91-8.1,1.69-9.38,1.27-13-.34-3-1.25-5.34-1.89-6.75"/><path d="M465.19,338.14c-3.78,2.2-6.92,5.64-8.21,9.85-.7,2.07-1.44,4.16-2.45,6.12-2.04,3.86-4.98,7.23-6.82,11.23-1.01,1.93-1.71,4.01-2.8,5.97-1.6,2.91-3.83,5.41-5.91,7.94-1.9,2.26,.2,3.24,2.44,3.19,1.03-.02,2.09-.23,2.89-.8,1.78-1.25,3.47-2.61,4.47-4.48,1.44-2.97,2.09-6.35,4.29-8.95,2.36-2.74,7.03-2.83,9.46-.05,.84,.88,.95,2.28,.9,3.41-.04,2.15,.2,4.3,.84,6.34,3.8,7.26,.51,15.47-2.43,22.43-1.37,3.02-2.52,5.98-2.4,9.28,0,1,.23,2.34,.8,1.88,1.65-.99,2.96-3.1,3.98-4.77,1.55-2.78,2.09-6.4,4.42-8.87,1.63-1.47,2.7-3.24,3.07-5.43,.43-2.02,1.62-7.55,2.08-9.65,.45-2.15,1.08-4.31,1.96-6.33,2.36-4.1-.27-8.48,.16-12.81,.36-4.39,.94-8.74,1.66-13.08,.95-4.31,.39-8.81-1.44-12.82,1.91,3.98,2.55,8.52,1.68,12.86-.64,4.33-1.13,8.71-1.41,13.06-.34,4.4,2.31,8.8-.07,13.03-.85,2.01-1.43,4.09-1.86,6.24-.44,2.12-1.56,7.62-1.98,9.67-.31,1.68-.95,3.34-2.08,4.64-1.18,1.17-2.17,2.31-2.87,3.84-1.29,2.9-2.21,6.34-4.42,8.87-1.7,2.38-4.54,4.32-4.62-.32-.15-3.4,1.09-6.69,2.44-9.66,2.82-6.82,6.07-14.68,2.4-21.77-.67-2.15-.92-4.42-.87-6.65,.03-1.12,0-2.07-.68-2.8-1.98-2.31-6.09-2.3-8.08,.06-2.1,2.49-2.76,5.88-4.2,8.76-1.1,2.03-2.94,3.51-4.75,4.74-1.02,.7-2.22,.91-3.36,.92-2.79,.09-5.4-1.63-3.03-4.44,2.11-2.53,4.33-4.94,5.94-7.81,1.07-1.87,1.8-3.96,2.85-5.92,1.93-4.08,4.86-7.3,6.99-11.14,1.03-1.93,1.8-3.97,2.54-6.04,1.39-4.21,4.6-7.63,8.44-9.77h0Z"/></g></g><g><g><path class="cls-16" d="M294.7,370.06c.72-.35,2.19,.77,5.11,3.03,2.46,1.9,2.5,2.16,3.96,3.11,1.02,.67,2.65,1.72,4.94,2.5,2.54,.87,3.15,.46,4.59,1.44,1.46,.99,2.84,2.76,2.37,3.64-.29,.55-1.23,.6-1.86,.61-5.52,.06-11.21-2.8-11.21-2.8-4.79-2.4-7.2-3.65-8.19-6.14-.85-2.13-.76-4.88,.29-5.39Z"/><path d="M294.7,370.06c1.16-.22,2.14,.89,3.07,1.45l2.81,2.09c2.67,2.21,5.62,4.17,9.01,5.02,1.15,.34,2.36,.28,3.47,.87,1.1,.62,2.02,1.44,2.72,2.51,1.1,1.71,.11,2.93-1.8,2.88-4.79,.02-9.37-1.73-13.45-4.06-2.01-1.15-4.24-2.24-5.58-4.22-1.01-1.53-1.88-5.26-.25-6.55h0Zm0,0c-.99,.7-.87,2.16-.8,3.23,.19,2.39,1.7,4.35,3.77,5.47,3.02,1.7,6.19,3.22,9.53,4.14,2.21,.62,4.49,1.02,6.75,.99,.52,0,1.12-.11,1.26-.3,.14-.11,.03-.65-.25-1.08-.55-.89-1.39-1.71-2.31-2.26-.87-.53-2.12-.57-3.25-.97-2.27-.71-4.34-1.9-6.24-3.3-2.26-1.86-4.39-3.84-6.85-5.44-.48-.27-1.04-.68-1.62-.48h0Z"/></g><g><path class="cls-16" d="M299.58,373.85c.86-.2,2.18,1.36,4.79,4.51,2.2,2.65,2.18,2.93,3.53,4.32,.94,.97,2.45,2.5,4.73,3.89,2.54,1.55,3.29,1.26,4.61,2.66,1.34,1.42,2.4,3.66,1.68,4.5-.45,.52-1.48,.35-2.16,.21-5.97-1.26-11.44-5.72-11.44-5.72-4.59-3.74-6.9-5.68-7.37-8.61-.4-2.51,.36-5.46,1.61-5.75Z"/><path d="M299.58,373.85c1.28,.03,2.12,1.49,2.97,2.31,2.51,2.77,4.85,6.24,7.84,8.49,1.51,1.18,3.15,2.15,4.94,2.84,.59,.23,1.26,.54,1.79,1.01,2.07,1.62,4.53,6.9-.27,5.96-5.18-1.13-9.68-4.1-13.55-7.59-1.9-1.72-4.04-3.43-5.02-5.88-.73-1.86-.76-6.17,1.3-7.13h0Zm0,0c-1.24,.51-1.46,2.12-1.64,3.3-.37,2.63,.79,5.12,2.75,6.83,2.85,2.57,5.9,4.99,9.29,6.79,2.24,1.21,4.62,2.19,7.07,2.7,.57,.13,1.25,.16,1.47-.03,.21-.12,.2-.75,0-1.28-.39-1.1-1.1-2.2-1.97-3.01-.83-.79-2.17-1.12-3.29-1.83-2.28-1.3-4.23-3.08-5.95-5.04-2-2.54-3.83-5.2-6.1-7.52-.45-.41-.97-.98-1.63-.91h0Z"/></g><g><path class="cls-16" d="M295,376.83c1.02-.16,2.42,1.81,5.16,5.74,2.31,3.31,2.26,3.64,3.71,5.39,1.01,1.23,2.62,3.16,5.15,5.01,2.81,2.06,3.73,1.79,5.13,3.56,1.42,1.79,2.45,4.51,1.53,5.42-.58,.57-1.76,.27-2.54,.04-6.86-2.06-12.81-7.81-12.81-7.81-5-4.83-7.51-7.31-7.77-10.78-.23-2.97,.95-6.34,2.45-6.57Z"/><path d="M295,376.83c.39-.04,.74,.17,1.03,.41,1.94,1.81,3.3,4.15,4.87,6.27,2.43,3.8,5.32,7.39,9.19,9.78,1.28,.88,2.81,1.28,3.93,2.43,2.16,2.03,4.58,8.34-.81,6.8-5.94-1.89-10.96-5.71-15.09-10.15-2.06-2.19-4.4-4.39-5.32-7.34-.7-2.24-.3-7.3,2.21-8.21h0Zm0,0c-1.49,.47-1.9,2.35-2.23,3.7-1.22,4.85,2.42,8.49,5.69,11.49,2.17,2.11,4.46,4.04,6.99,5.67,2.49,1.66,5.18,3.04,8.02,3.87,.66,.2,1.45,.33,1.8,.1,.32-.18,.35-.95,.18-1.6-.57-2.05-1.8-4.02-3.78-5-4.79-2.52-8.21-6.91-10.9-11.47-1.53-2.14-2.86-4.5-4.76-6.34-.29-.24-.63-.46-1.02-.42h0Z"/></g><g><path class="cls-16" d="M298.86,338.14c3.09,1.79,4.9,3.78,5.98,5.25,2.59,3.52,2.28,5.85,5.1,11.17,1.54,2.91,1.61,2.16,4.28,6.51,4.33,7.05,3.46,7.87,6.69,12.47,3.28,4.67,5.79,6.12,5.15,7.88-.6,1.64-4.72,1.88-6.5,.64-2.74-1.92-4.72-3.55-5.83-7.45-.33-1.15-1.2-2.79-1.87-4.19-.27-.56-1.39-2.89-4-3.62-2.17-.61-4.71,.08-6.03,1.68-1.4,1.69-.31,3.01-1.1,7.4-.71,3.98-1.82,4.06-2.18,7.51-.29,2.73,.18,4.83,.71,7.22,.66,2.99,1.58,5.23,3.05,8.82,1.47,3.59,2.28,5.01,2.58,7.77,.1,.88,.48,4.38-.62,4.8-1.38,.53-4.28-4.06-4.43-4.31-1.8-2.89-1.69-4.37-3.27-7.34-1.59-2.97-2.49-2.54-3.78-5.1-.66-1.31-.7-1.87-1.79-7.12-1-4.8-1.5-7.19-1.93-8.56-1.21-3.83-1.86-4.04-2.08-6.36-.25-2.62,.44-3.66,.81-6.64,.25-2.06,0-4.43-.52-9.07-.91-8.1-1.69-9.38-1.27-13,.34-3,1.25-5.34,1.89-6.75"/><path d="M298.86,338.14c3.84,2.14,7.04,5.55,8.44,9.77,.74,2.07,1.51,4.11,2.54,6.04,2.13,3.84,5.07,7.06,6.99,11.14,1.04,1.95,1.78,4.04,2.85,5.92,1.61,2.87,3.83,5.28,5.94,7.81,2.34,2.79-.19,4.53-3.03,4.44-1.14,0-2.34-.21-3.36-.92-1.8-1.23-3.65-2.7-4.75-4.74-1.44-2.88-2.1-6.28-4.2-8.76-2-2.36-6.1-2.37-8.08-.06-.67,.73-.7,1.68-.68,2.8,.05,2.23-.19,4.5-.87,6.65-3.68,7.09-.43,14.95,2.4,21.77,1.35,2.97,2.59,6.27,2.44,9.66-.08,4.56-2.83,2.81-4.62,.32-2.21-2.53-3.13-5.97-4.42-8.87-.7-1.54-1.68-2.67-2.87-3.84-1.13-1.3-1.77-2.96-2.08-4.64-.41-2.03-1.54-7.57-1.98-9.67-.43-2.15-1.01-4.23-1.86-6.24-2.38-4.23,.27-8.63-.07-13.03-.28-4.36-.77-8.73-1.41-13.06-.87-4.34-.22-8.88,1.68-12.86-1.83,4.01-2.39,8.51-1.44,12.82,.72,4.33,1.3,8.68,1.66,13.08,.43,4.33-2.2,8.71,.16,12.81,.88,2.03,1.51,4.18,1.96,6.33,.46,2.11,1.64,7.6,2.08,9.65,.37,2.19,1.44,3.95,3.07,5.43,2.33,2.47,2.87,6.09,4.42,8.87,1.02,1.68,2.33,3.79,3.98,4.77,.57,.45,.8-.89,.8-1.89,.12-3.3-1.03-6.26-2.4-9.28-2.94-6.96-6.24-15.18-2.43-22.43,.64-2.04,.88-4.19,.84-6.34-.05-1.12,.07-2.53,.9-3.41,2.43-2.77,7.1-2.69,9.46,.05,2.2,2.59,2.85,5.98,4.29,8.95,1,1.87,2.69,3.23,4.47,4.48,.79,.57,1.85,.78,2.89,.8,5.62-.22,2.49-3.21,.35-5.71-2.98-3.29-4.84-7.42-6.61-11.4-1.84-4-4.78-7.36-6.82-11.23-1.01-1.96-1.75-4.05-2.45-6.12-1.29-4.21-4.43-7.65-8.21-9.85h0Z"/></g></g><g><path class="cls-16" d="M422.81,322.55c3.13,4.84,7.12,11.59,11,20,10.86,23.56,13.32,43.96,14,51,.18,1.91,2.67,29.2-2,50-.52,2.3-2.12,8.99-2,18,.11,8.25,1.61,14.31,2,16,4.38,19.04-.5,35.5-3.5,56.5s-3.29,20.5-4,32c-.28,4.51,3.18,7.13-.5,10.5-3.21,2.94-7.48,3-8,3-.49,0-4.78-.06-8-3-4.03-3.68-3.98-9.66-4-13,0,0-.02-2.38-3-33-1.73-17.75-5.79-14.8-6-27-.36-20.72,11.34-30.41,5-45-.77-1.77-.44-.47-5-8-2.22-3.67-9.39-15.5-14-26-5.3-12.06-7.05-21.95-9-33-2.04-11.56-3.88-27.6-3-47"/><path d="M422.81,322.55c17.94,27.21,27.08,59.92,26.28,92.5-.05,9.41-.74,19.13-2.68,28.37-2.47,10.47-2.65,21.45-.42,31.97,.22,.99,.67,2.98,.85,3.98,3.4,16.17-.32,32.59-2.89,48.58-1.78,12.69-4.21,25.39-4.91,38.18-.27,2.75,1.67,5.25,1.1,8.11-1.13,3.64-5.28,5.4-8.67,5.91-5.72,.85-11.95-2.72-13.43-8.42-.85-2.71-.95-5.57-.95-8.23-.79-10.73-1.89-21.55-2.91-32.32-.52-5.36-1.29-10.7-3.41-15.61-1.09-2.49-2.06-5.19-2.35-7.93-.92-8.21,.55-16.47,3.04-24.27,2.42-7.61,5.4-15.59,2.35-23.36-.85-2.54-2.72-4.57-4.03-6.89-8.38-13.9-16.73-28.18-20.73-44.05-5.07-21.08-7.37-42.86-6.23-64.53-.89,21.64,1.65,43.37,6.94,64.34,4.1,15.75,12.48,29.91,20.91,43.68,1.37,2.38,3.28,4.42,4.17,7.07,3.23,7.92,.21,16.52-2.18,24.11-1.59,5.14-2.81,10.38-3.11,15.75-.35,5.35,.07,10.71,2.46,15.57,2.2,5.07,3.01,10.6,3.54,15.99,1.04,10.8,2.15,21.53,2.98,32.4-.07,5.13,.62,10.99,5.4,13.73,4.31,2.62,10.61,1.96,13.97-1.82,2.28-2.63-.82-6.16-.33-9.32,.73-12.91,3.18-25.55,5-38.32,2.57-15.86,6.31-32.1,2.99-48.11-.2-.99-.61-2.98-.84-3.97-2.26-10.69-1.98-21.88,.59-32.48,.77-3.51,1.54-8.39,1.92-11.97,4.04-37.66-3.67-76.68-24.42-108.66h0Z"/></g><g><path class="cls-16" d="M437.31,562.05c1.27,2,4.77,9.02,7.99,11.83,2.12,1.84,4.25,3.24,7.69,5.49,5.12,3.36,7.69,4.6,8.78,7.69,.14,.4,.87,2.46,0,3.29-.76,.73-1.93-.26-4.39,0-2.35,.25-2.57,1.3-4.39,1.1-1.37-.15-1.5-.76-3.29-1.1-1.23-.23-2.17-.13-3.29,0-3.22,.37-3.57,1.34-5.49,1.1-1.66-.21-1.62-.95-3.29-1.1-1.36-.12-1.94,.33-4.39,1.1-2.83,.89-4.25,1.33-5.49,1.1-2.44-.46-3.94-2.63-4.39-3.29-1.87-2.72-.7-4.23-2.2-6.59-1.92-3.03-4.63-1.77-6.59-4.39-2.98-4,.19-11.13,1.1-13.18,1.36-3.07,3.13-5.25,4.39-6.59"/><path d="M437.31,562.05c2.62,4,4.8,8.58,8.44,11.73,3.82,3,8.11,5.29,12.2,7.96,2.15,1.33,4.31,3.32,4.89,5.92,.27,1.05,.46,2.62-.65,3.48-1.09,.77-2.28,.12-3.28,.1-1.06-.08-2.14,.04-3.11,.49-.46,.21-1.18,.62-2.01,.68-.79,.06-1.54-.05-2.25-.36-2.56-1.42-5.47-.88-8.14,.05-1.26,.53-3.07,.53-4.33-.2-1.01-.62-1.72-.71-2.76-.45-2.87,.75-6.24,2.68-9.34,1.88-2.64-.87-4.57-3.24-5.41-5.78-.47-1.73-.23-3.49-1.4-4.9-.97-1.4-2.96-1.59-4.47-2.45-3.05-1.78-3.31-5.82-2.62-8.89,1.17-4.79,3.45-9.36,6.98-12.79-3.64,4.09-8.55,14.62-4.86,19.46,1.04,1.41,3.05,1.47,4.6,2.33,1.24,.68,2.15,1.83,2.67,3.14,.65,1.7,.39,3.62,1.46,5.04,1.13,1.73,2.85,3.41,5.02,3.13,2.28-.39,4.53-1.31,6.85-2.06,1.08-.32,2.27-.29,3.33,.13,.85,.39,1.33,.79,2.23,.8,1.62-.09,3.39-1.11,5.17-1.13,1.22-.16,2.67-.19,3.98,.19,1.23,.29,1.96,1.09,3.13,.97,.4-.01,.78-.21,1.42-.5,1.26-.56,2.68-.7,4.04-.57,.75,.05,1.53,.33,2.07,.28,.3-.38,.17-1.05,.04-1.66-.48-2.31-2.17-3.82-4.07-5.13l-6.02-4.11c-2-1.38-4.02-2.81-5.84-4.48-3.62-3.45-5.57-8.03-7.96-12.29h0Z"/></g><path d="M328.51,235.01c10.87-3.51,22.64-6.02,34.07-3.8,3.5,.36,7.37,3.43,10.64,1.16,5.29-4.19,5.51-14.76,6.07-21.11,.4-7.64,.17-15.31-.12-22.96,.71,7.63,1.12,15.3,.89,22.99-.35,6.38-.84,22.13-9.21,22.9-2.98,0-5.56-1.68-8.45-2.09-11.29-2.26-22.91-.02-33.88,2.91h0Z"/><path d="M435.47,235.01c-10.91-2.95-22.47-5.19-33.7-2.88-2.86,.43-5.45,2.18-8.43,2.05-8.13-1.09-8.56-16.64-8.92-23.01-.22-7.65,.18-15.28,.89-22.87-.29,7.61-.51,15.24-.12,22.84,.51,5.94,.87,20.83,8.24,22.07,2.79,.09,5.37-1.58,8.15-1.97,11.36-2.27,23.08,.25,33.89,3.77h0Z"/><path d="M357.47,261.7c4.98-1.64,10.44-2.7,15.62-1.37,1.41,.49,2.57,.7,3.5-.57,1.85-3.12,1.7-7.08,1.84-10.63,.04-1.49,0-2.98,0-4.48,.43,2.96,.66,5.96,.56,8.98-.2,2.79-.36,7.35-3.8,8.08-1.73,.04-2.88-.76-4.5-.89-4.41-.65-8.85,.05-13.23,.88h0Z"/><path d="M362.99,286.06c3.86-1.35,8.14-2.21,12.18-1.17,1.1,.36,1.88,.55,2.61-.4,1.42-2.4,1.33-5.47,1.47-8.21,.05-1.16,.04-2.32,.06-3.49,.38,2.3,.58,4.64,.52,7-.14,2.25-.26,5.8-3.03,6.39-1.4,.03-2.25-.59-3.53-.7-3.42-.52-6.87,0-10.28,.58h0Z"/><path d="M368.09,306.14c2.8-1.08,5.98-1.75,8.96-.98,2.29,1.04,2.46-2.12,2.71-3.66,.16-1.67,.22-3.37,.29-5.08,.32,1.68,.53,3.39,.49,5.13-.09,1.7-.2,4.38-2.31,4.81-1.08,.03-1.65-.43-2.62-.52-2.49-.39-5-.05-7.52,.3h0Z"/><path d="M405.47,261.7c-4.37-.83-8.81-1.53-13.23-.88-1.62,.12-2.77,.93-4.5,.89-5.35-1.12-3.7-13.01-3.23-17.06,0,1.5-.04,2.99,0,4.48,.14,3.55,0,7.51,1.84,10.63,.93,1.27,2.09,1.07,3.5,.57,5.18-1.33,10.64-.27,15.62,1.37h0Z"/><path d="M400.47,286.06c-3.42-.59-6.86-1.1-10.28-.58-1.28,.1-2.13,.73-3.53,.7-2.76-.6-2.88-4.15-3.03-6.39-.06-2.36,.14-4.69,.52-7,.02,1.17,0,2.33,.06,3.49,.14,2.74,.05,5.8,1.47,8.21,.72,.95,1.51,.77,2.61,.4,4.05-1.04,8.32-.18,12.18,1.17h0Z"/><path d="M395.54,306.14c-2.52-.35-5.02-.69-7.52-.3-.97,.09-1.53,.54-2.62,.52-2.11-.44-2.22-3.11-2.31-4.81-.04-1.74,.17-3.45,.49-5.13,.07,1.71,.12,3.42,.29,5.08,.24,1.54,.41,4.7,2.71,3.66,2.99-.76,6.16-.1,8.96,.98h0Z"/><ellipse class="cls-3" cx="381.97" cy="309.55" rx="1" ry="3"/></g></g></g></svg>