<?xml version="1.0" encoding="UTF-8"?><svg id="Layer_2" xmlns="http://www.w3.org/2000/svg" xmlns:xlink="http://www.w3.org/1999/xlink" viewBox="0 0 121.8 158.55"><defs><style>.cls-1{fill:url(#radial-gradient-2);}.cls-1,.cls-2,.cls-3,.cls-4,.cls-5,.cls-6,.cls-7,.cls-8{stroke:#000;stroke-miterlimit:10;}.cls-1,.cls-2,.cls-4,.cls-8{stroke-width:.5px;}.cls-2{fill:#fff;}.cls-4,.cls-5{fill:#f2f2f2;}.cls-9,.cls-6{fill:#534741;}.cls-10,.cls-7{fill:#eac39d;}.cls-5{stroke-width:.25px;}.cls-8{fill:url(#radial-gradient);}</style><radialGradient id="radial-gradient" cx="39.38" cy="79.05" fx="39.38" fy="79.05" r="6.5" gradientTransform="matrix(1, 0, 0, 1, 0, 0)" gradientUnits="userSpaceOnUse"><stop offset="0" stop-color="#006837"/><stop offset=".19" stop-color="#026939"/><stop offset=".33" stop-color="#0b6f40"/><stop offset=".44" stop-color="#1b784c"/><stop offset=".55" stop-color="#31855d"/><stop offset=".65" stop-color="#4d9573"/><stop offset=".74" stop-color="#6faa8e"/><stop offset=".83" stop-color="#98c2ae"/><stop offset=".92" stop-color="#c7ded3"/><stop offset="1" stop-color="#fcfdfc"/><stop offset="1" stop-color="#fff"/></radialGradient><radialGradient id="radial-gradient-2" cx="936.38" cy="79.05" fx="936.38" fy="79.05" gradientTransform="translate(1020.95) rotate(-180) scale(1 -1)" xlink:href="#radial-gradient"/></defs><g id="HUMAN"><g id="MALE"><g><g><path class="cls-10" d="M32.5,158.55c6.08-6.72,8.84-12.9,10.22-17.45,1.03-3.37,1.16-5.39,3.07-7.63,4.01-4.71,10.79-4.5,15.34-4.36,4.44,.14,10.89,.34,15.34,5.45,1.6,1.84,2.24,3.5,3.07,5.45,1.93,4.56,5.06,10.94,10.22,18.54"/><path d="M32.5,158.55c4.85-5.65,8.67-12.24,10.4-19.47,.62-3.74,2.94-7.42,6.59-8.92,3.55-1.63,7.48-1.66,11.19-1.57,3.71,.1,7.61,.33,11.13,1.96,3.5,1.58,6.33,4.66,7.62,8.23,2.76,6.92,6.31,13.49,10.33,19.78-4.37-6.06-8.11-12.6-11.04-19.47-3.01-7.68-10.5-9.6-18.07-9.49-7.64-.48-15.41,1.06-17.01,9.69-1.91,7.27-5.96,13.88-11.14,19.27h0Z"/></g><g><path class="cls-7" d="M60.9,10.14c-5.28-.36-17.53-.54-30.19,5.53-4.29,2.06-16.48,7.91-21.56,20.28-2.14,5.19-2.33,9.85-2.16,12.9l6.47,60.83c.19,2.31,.71,5.55,2.16,9.22,2.88,7.28,7.69,11.86,10.78,14.75,2.83,2.64,8.19,7.55,17.25,11.06,6.93,2.69,13.21,3.46,17.25,3.69"/><path class="cls-7" d="M60.85,10.14c5.28-.36,17.53-.54,30.19,5.53,4.29,2.06,16.48,7.91,21.56,20.28,2.14,5.19,2.33,9.85,2.16,12.9l-6.47,60.83c-.19,2.31-.71,5.55-2.16,9.22-2.88,7.28-7.69,11.86-10.78,14.75-2.83,2.64-8.19,7.55-17.25,11.06-6.93,2.69-13.21,3.46-17.25,3.69"/></g><g><path class="cls-4" d="M49.88,77.55c-1.79-3.17-5.03-4.31-7-5-2.92-1.03-5.35-1.02-7-1-3.53,.04-11.34,.85-12,4-.22,1.04,.52,2.02,2,4,1.33,1.78,3.29,4.4,7,6,3.64,1.57,6.82,1.25,9,1,2.89-.33,7.88-.9,9-4,.71-1.97-.46-4.05-1-5Z"/><circle class="cls-8" cx="39.38" cy="79.05" r="6.5"/><circle class="cls-3" cx="39.36" cy="79.2" r="2.65"/><circle class="cls-5" cx="37.38" cy="77.05" r="1.5"/></g><g><path class="cls-4" d="M74.07,77.55c1.79-3.17,5.03-4.31,7-5,2.92-1.03,5.35-1.02,7-1,3.53,.04,11.34,.85,12,4,.22,1.04-.52,2.02-2,4-1.33,1.78-3.29,4.4-7,6-3.64,1.57-6.82,1.25-9,1-2.89-.33-7.88-.9-9-4-.71-1.97,.46-4.05,1-5Z"/><circle class="cls-1" cx="84.57" cy="79.05" r="6.5"/><circle class="cls-3" cx="84.59" cy="79.2" r="2.65"/><circle class="cls-5" cx="86.57" cy="77.05" r="1.5"/></g><g><path class="cls-10" d="M110.3,75.66c1.46-2.62,4.07-4.19,6.38-3.85,4.12,.6,4.69,8.67,4.75,9.52,.37,5.74-2.21,13.59-7.91,15.16-2.05,.56-3.95,.16-5.16-.23"/><path d="M110.3,75.66c1.17-2.35,3.74-4.5,6.55-4.05,4.33,.99,5.02,8.23,4.95,11.9-.27,7.03-5.31,15.9-13.45,12.75,7.94,2.46,12.48-6.01,12.7-12.79,.13-3.35-.47-10.34-4.29-11.4-2.64-.49-5.11,1.41-6.46,3.59h0Z"/></g><g><path class="cls-10" d="M11.51,75.66c-1.46-2.62-4.07-4.19-6.38-3.85-4.12,.6-4.69,8.67-4.75,9.52-.37,5.74,2.21,13.59,7.91,15.16,2.05,.56,3.95,.16,5.16-.23"/><path d="M11.51,75.66c-1.35-2.18-3.82-4.07-6.46-3.59-3.84,1.09-4.4,8.02-4.29,11.4,.22,6.78,4.77,15.25,12.7,12.79C5.31,99.4,.27,90.54,0,83.51c-.07-3.67,.61-10.91,4.95-11.9,2.81-.45,5.37,1.7,6.55,4.05h0Z"/></g><g><path class="cls-2" d="M51.96,120.6c-4.67-.2-8.62-.49-11.58-.73,.89,.71,8.73,6.73,22,6.6,13.62-.14,21.22-6.64,22-7.33-4.54,.81-8.49,1.23-11.58,1.47-7.42,.57-13.33,.33-20.84,0Z"/><path d="M42.11,120.43c12.02,5.11,29.48,4.24,41.41-.86-1.63,.69-3.25,1.4-4.94,1.95-11.56,3.33-25.32,3.86-36.47-1.09h0Z"/></g><path d="M113.88,78.55c3.15-3.66,4.36,2.46,4.27,4.85-.06,3-1.35,5.89-3.27,8.15,2.42-3.63,3.58-8.21,2.15-12.43-.6-1.87-1.86-1.82-3.15-.57h0Z"/><path d="M8.88,80.79c-.7-.99-1.47-2.26-2.69-2.56-.38-.06-.7,.17-.93,.5-.9,1.41-1.13,3.19-.99,4.87,.27,3.45,2.13,6.58,4.6,8.95-2.8-2.12-4.79-5.38-5.1-8.91-.3-4.34,2.15-8.78,5.1-2.85h0Z"/><path d="M70.85,70.52c8.73-7.18,21.91-9.55,32.05-4.01l-.04,.09c-11.38-3.69-22.18-2.9-32.01,3.91h0Z"/><path d="M53.85,70.59c-9.18-6.99-21.3-7.58-31.95-3.99l-.04-.09c10.01-5.5,23.69-3.22,31.99,4.09h0Z"/><path class="cls-6" d="M61.88,42.55c-3.69-.28-8.49-.64-14-3-9.4-4.03-9.64-9.06-17-10-1.33-.17-5.89-.68-10,2-.68,.44-2.92,2-5,6-2.91,5.59-1.2,7.68-3,17-1.55,8.02-3.58,10.47-2,15,.87,2.5,2.49,4.6,2,5-.48,.39-2.61-1.08-4-3-1.7-2.35-1.9-4.88-2-6-1.01-11.68-2.38-10.41-2-16,.55-8.07,3.45-11.46,1-15-1.27-1.85-3.35-2.8-3-4,.33-1.13,2.34-.89,5-3,1.03-.82,1.67-1.6,2-2,1.15-1.42,1.39-2.33,3-6,1.59-3.63,2.07-4.38,3-5,1.07-.7,2.18-.88,3-1,2.15-.33,2.68,.35,5,0,.83-.12,1.88-.29,3-1,.3-.19,1.19-.79,2-2,2.27-3.41,1.34-7.89,2-8,.57-.1,.65,3.27,3,5,2.19,1.61,5.7,1.33,8,0,1.67-.96,1.41-1.73,4-4,2.24-1.96,4.68-3.35,5-3,.37,.41-2.59,2.78-2,4,.56,1.16,3.83,.2,8,0,3.88-.19,7.25,.54,14,2,7.82,1.69,8.89,2.82,12,2,3.49-.92,6.61-3.51,7-3,.25,.33-1.14,1.39-1,3,.03,.35,.17,1.07,1,2,2.48,2.78,8.52,4.57,10,5,5.09,1.48,7.69,2.21,10,2,2.98-.27,5.86-1.38,6-1,.13,.34-2.22,.98-3,3-.41,1.05-.22,2.04,0,3,1.21,5.13,3.46,8.66,3,9-.41,.31-2.55-2.3-3-2-.47,.31,1.7,3.27,3,7,1.47,4.19,2.43,11,1,17-.39,1.63-1.13,3.92,0,6,.81,1.49,2.29,2.34,2,3-.29,.66-1.88,.07-3,1-.93,.77-.9,2.07-1,3-.46,4.51-4.44,8.27-5,8-.36-.17,.63-2.01,1-5,.48-3.81-.44-6.3-1-9-1.6-7.62,1.34-8.36,0-15-.45-2.24-1.88-9.28-8-13-4.95-3.01-10.2-2.14-11-2-3.38,.61-5.92,2.4-11,6-4.58,3.24-4.51,3.95-7,5-3.61,1.52-6.82,1.32-11,1Z"/><path d="M51.85,99.19c-1.57,1.2-2.62,3.46-1.51,5.25,.25,.39,.63,.69,1.04,.73,1.48-.1,3.15-.47,4.66-.03,1.56,.37,3.01,.98,4.42,1.64,.46,.22,.82,.31,1.3,.3,.92,0,1.8-.43,2.7-.91,1.03-.47,1.51-1.26,2.6-1.76,1.59-.58,3.26-.06,4.85,.16,1.35,.43,2.73-.4,2.6-1.86-.17-1.93-1.74-3.55-3.09-4.86-.72-.69-1.75-1.27-2.2-2.22-1-1.84-1-4.04-1.34-6.06,.3,1.51,.57,3.04,.98,4.53,.43,1.55,1.76,2.39,2.99,3.3l1.14,1.06c1.99,1.58,3.93,5.82,.52,7.05-1.2,.3-2.12-.16-3.26-.23-1.03-.12-2.01-.28-2.81,.07-1.7,1.09-3.41,2.62-5.66,2.65-.56,.03-1.22-.15-1.68-.4-1.37-.67-2.79-1.28-4.23-1.7-1.53-.5-2.97-.14-4.56-.16-1.24-.21-1.76-1.53-1.78-2.62-.09-1.63,1.04-3.08,2.32-3.92h0Z"/><path d="M9.88,29.55c3.32-.72,5.89-2.73,7.22-5.87,.77-1.51,1.81-2.99,3.17-4.03,1.36-1.08,2.97-1.76,4.61-2.1-3.04,1.38-5.48,3.56-6.89,6.6-1.34,3.21-4.6,5.53-8.11,5.4h0Z"/><path d="M21.61,26.51c4.7-2.52,10.25-3.56,15.54-2.91-5.3,.75-10.33,1.69-15.54,2.91h0Z"/><path d="M40.6,10.6c3.5,2.47,7.46,3.81,11.72,4.12,3.29,.28,6.37,2.08,8.37,4.69,.65,.87,1.23,1.77,1.68,2.74-2.44-3.41-5.91-6.1-10.17-6.44-4.27-.33-8.58-1.99-11.6-5.11h0Z"/><path d="M39.13,27.03c5.91,4.1,12.39,6.86,19.5,8.05-7.19,.26-14.53-2.87-19.5-8.05h0Z"/><path d="M99.03,28.42c-8.25-2.44-15.67-3.12-23.11,1.83-4.29,2.35-8.7,4.46-13.18,6.42,1.4-.84,2.82-1.63,4.23-2.44,4.18-2.21,8.56-5.04,12.82-7.14,6.23-2.68,13.24-1.18,19.24,1.33h0Z"/><path d="M66.72,19.24c5.79-.94,11.58-1.69,17.42-2.19,5.82-.63,12.1,.21,16.91,3.81-5.17-2.88-11.02-3.45-16.84-2.81-5.81,.46-11.65,1.03-17.49,1.19h0Z"/><path d="M103.88,28.55c5.98,1.57,10.55,7.77,10,14-.97-6.05-4.69-11.08-10-14h0Z"/><path d="M113.88,46.55c.62,2.38,.33,5-.3,7.32-.64,2.34,.15,4.6,1.3,6.68-1.89-1.66-2.95-4.41-2.28-6.9,.68-2.39,1.09-4.63,1.28-7.1h0Z"/><path d="M11.88,33.55c.93,7.19-2.27,13.91-3,21-.66-7.19,2.55-13.85,3-21h0Z"/><path d="M41.62,21.39c7.42-1.71,15.82,2.67,18.77,9.67-4.21-6.14-11.31-9.86-18.77-9.67h0Z"/><g><path class="cls-9" d="M77.68,22.77c-2.13,.43-4.42,1-6.85,1.74-2.87,.87-5.45,1.85-7.74,2.84"/><path d="M77.68,22.77c-4.87,1.69-9.63,3.19-14.6,4.57,4.41-2.65,9.46-4.23,14.6-4.57h0Z"/></g><path d="M96.95,22.6c4.26,3.38,7.59,3.45,11.44-.5,.53-.42,1.74-1.88,2.31-.75,.07,.29,.01,.42,0,.56-.64,1.79-.85,3.67-.27,5.57-1.05-1.78-.99-4-.51-5.85,0,.08,.18,.18,.24,.16-.02,.01-.1,.05-.17,.11-4.34,4.66-8.46,5.96-13.03,.7h0Z"/></g></g></g></svg>