<?xml version="1.0" encoding="UTF-8"?><svg id="Layer_2" xmlns="http://www.w3.org/2000/svg" viewBox="0 0 80.52 271"><defs><style>.cls-1{fill:#eac39d;}</style></defs><g id="HUMAN"><g id="MALE"><g><g><path class="cls-1" d="M40.24,0c-3.13,4.84-7.12,11.59-11,20-10.86,23.56-13.32,43.96-14,51-.18,1.91-2.67,29.2,2,50,.52,2.3,2.12,8.99,2,18-.11,8.25-1.61,14.31-2,16-4.38,19.04,.5,35.5,3.5,56.5s3.29,20.5,4,32c.28,4.51-3.18,7.12,.5,10.5,3.21,2.94,7.48,3,8,3,.49,0,4.78-.06,8-3,4.03-3.68,3.98-9.66,4-13,0,0,.02-2.38,3-33,1.73-17.75,5.79-14.8,6-27,.36-20.72-11.34-30.41-5-45,.77-1.77,.44-.47,5-8,2.22-3.67,9.39-15.5,14-26,5.3-12.06,7.05-21.95,9-33,2.04-11.56,3.88-27.6,3-47"/><path d="M40.24,0C19.48,31.98,11.78,70.99,15.81,108.66c.38,3.59,1.14,8.44,1.92,11.96,2.57,10.61,2.85,21.79,.59,32.48-.22,.99-.66,2.97-.84,3.97-3.32,16.02,.42,32.25,2.99,48.11,1.82,12.77,4.27,25.42,5,38.32,.5,3.18-2.6,6.66-.33,9.32,3.37,3.77,9.67,4.44,13.98,1.82,4.78-2.74,5.47-8.61,5.4-13.73,.83-10.87,1.94-21.6,2.98-32.4,.53-5.39,1.34-10.92,3.54-15.99,2.39-4.87,2.81-10.23,2.46-15.57-.3-5.37-1.52-10.61-3.11-15.75-2.39-7.59-5.41-16.19-2.18-24.11,.89-2.64,2.8-4.69,4.17-7.07,8.43-13.77,16.82-27.93,20.91-43.68,5.29-20.97,7.83-42.7,6.94-64.34,1.14,21.66-1.16,43.45-6.23,64.53-4,15.87-12.35,30.15-20.73,44.05-1.31,2.32-3.19,4.35-4.03,6.89-3.05,7.77-.07,15.75,2.35,23.36,2.49,7.8,3.95,16.06,3.04,24.27-.29,2.74-1.26,5.44-2.35,7.93-2.12,4.91-2.9,10.25-3.41,15.61-1.01,10.77-2.11,21.59-2.91,32.32,0,2.66-.09,5.52-.95,8.23-1.49,5.69-7.71,9.28-13.43,8.42-3.39-.5-7.54-2.29-8.67-5.91-.57-2.86,1.37-5.36,1.1-8.11-.7-12.8-3.13-25.5-4.91-38.18-2.57-15.99-6.28-32.41-2.89-48.58,.2-.99,.61-3,.85-3.98,2.23-10.52,2.05-21.51-.42-31.97-1.94-9.24-2.63-18.95-2.68-28.37C13.16,59.92,22.3,27.21,40.24,0h0Z"/></g><g><path class="cls-1" d="M25.74,239.5c-1.27,2-4.77,9.02-7.99,11.83-2.12,1.84-4.25,3.24-7.69,5.49-5.12,3.36-7.69,4.6-8.78,7.69-.14,.4-.87,2.46,0,3.29,.76,.73,1.93-.26,4.39,0,2.35,.25,2.57,1.3,4.39,1.1,1.37-.15,1.5-.76,3.29-1.1,1.23-.23,2.17-.13,3.29,0,3.22,.37,3.57,1.34,5.49,1.1,1.66-.21,1.62-.95,3.29-1.1,1.36-.12,1.94,.33,4.39,1.1,2.83,.89,4.25,1.33,5.49,1.1,2.44-.46,3.94-2.63,4.39-3.29,1.87-2.72,.7-4.23,2.2-6.59,1.92-3.03,4.63-1.77,6.59-4.39,2.98-4-.19-11.13-1.1-13.18-1.36-3.07-3.13-5.25-4.39-6.59"/><path d="M25.74,239.5c-2.4,4.26-4.35,8.84-7.96,12.29-1.82,1.67-3.83,3.1-5.84,4.48l-6.02,4.11c-2.23,1.47-4.41,3.74-4.16,6.54,.11,.3,.06,.28,.41,.26,1.1-.2,2.62-.47,3.83-.27,1.11,.02,2.5,.91,3.43,1.04,1.18,.12,1.9-.68,3.13-.97,1.32-.37,2.76-.34,3.98-.19,1.78,.02,3.55,1.04,5.17,1.13,.9-.01,1.38-.41,2.23-.8,1.06-.41,2.25-.45,3.33-.13,2.31,.75,4.57,1.66,6.85,2.06,2.17,.27,3.89-1.4,5.02-3.13,1.06-1.42,.81-3.34,1.46-5.04,.52-1.31,1.43-2.46,2.67-3.14,1.55-.86,3.56-.92,4.6-2.33,3.69-4.87-1.22-15.35-4.86-19.46,1.75,1.7,3.24,3.69,4.36,5.88,1.1,2.19,2.08,4.46,2.62,6.91,.7,3.07,.44,7.11-2.62,8.89-1.51,.86-3.5,1.05-4.47,2.45-1.17,1.42-.93,3.17-1.4,4.9-.84,2.55-2.78,4.91-5.41,5.78-1.96,.65-4.12-.25-5.89-.75-1.69-.38-3.18-1.4-4.85-1.22-.75,.05-1.57,.8-2.43,.96-1.04,.29-2.35,.16-3.25-.22-2.08-.76-4.48-1.19-6.59-.69-1.11,.35-2.47,1.23-3.8,1-.83-.06-1.54-.47-2.01-.68-.97-.45-2.05-.57-3.11-.49-1,.02-2.19,.66-3.28-.1-1.11-.86-.92-2.43-.65-3.48,.58-2.6,2.74-4.59,4.89-5.92,4.09-2.66,8.37-4.96,12.19-7.96,3.64-3.15,5.83-7.73,8.44-11.73h0Z"/></g></g></g></g></svg>