<?xml version="1.0" encoding="UTF-8"?><svg id="Layer_2" xmlns="http://www.w3.org/2000/svg" viewBox="0 0 80.52 270.97"><defs><style>.cls-1{fill:#eac39d;}</style></defs><g id="HUMAN"><g id="MALE"><g><g><path class="cls-1" d="M40.29,0c3.13,4.84,7.12,11.59,11,20,10.86,23.56,13.32,43.96,14,51,.18,1.91,2.67,29.2-2,50-.52,2.3-2.12,8.99-2,18,.11,8.25,1.61,14.31,2,16,4.38,19.04-.5,35.5-3.5,56.5s-3.29,20.5-4,32c-.28,4.51,3.18,7.13-.5,10.5-3.21,2.94-7.48,3-8,3-.49,0-4.78-.06-8-3-4.03-3.68-3.98-9.66-4-13,0,0-.02-2.38-3-33-1.73-17.75-5.79-14.8-6-27-.36-20.72,11.34-30.41,5-45-.77-1.77-.44-.47-5-8-2.22-3.67-9.39-15.5-14-26-5.3-12.06-7.05-21.95-9-33C1.24,57.44-.59,41.4,.29,22"/><path d="M40.29,0c17.94,27.21,27.08,59.92,26.28,92.5-.05,9.41-.74,19.13-2.68,28.37-2.47,10.47-2.65,21.45-.42,31.97,.22,.99,.67,2.98,.85,3.98,3.4,16.17-.32,32.59-2.89,48.58-1.78,12.69-4.21,25.39-4.91,38.18-.27,2.75,1.67,5.25,1.1,8.11-1.13,3.64-5.28,5.4-8.67,5.91-5.72,.85-11.95-2.72-13.43-8.42-.85-2.71-.95-5.57-.95-8.23-.79-10.73-1.89-21.55-2.91-32.32-.52-5.36-1.29-10.7-3.41-15.61-1.09-2.49-2.06-5.19-2.35-7.93-.92-8.21,.55-16.47,3.04-24.27,2.42-7.61,5.4-15.59,2.35-23.36-.85-2.54-2.72-4.57-4.03-6.89-8.38-13.9-16.73-28.18-20.73-44.05C1.45,65.45-.85,43.66,.29,22c-.89,21.64,1.65,43.37,6.94,64.34,4.1,15.75,12.48,29.91,20.91,43.68,1.37,2.38,3.28,4.42,4.17,7.07,3.23,7.92,.21,16.52-2.18,24.11-1.59,5.14-2.81,10.38-3.11,15.75-.35,5.35,.07,10.71,2.46,15.57,2.2,5.07,3.01,10.6,3.54,15.99,1.04,10.8,2.15,21.53,2.98,32.4-.07,5.13,.62,10.99,5.4,13.73,4.31,2.62,10.61,1.96,13.97-1.82,2.28-2.63-.82-6.16-.33-9.32,.73-12.91,3.18-25.55,5-38.32,2.57-15.86,6.31-32.1,2.99-48.11-.2-.99-.61-2.98-.84-3.97-2.26-10.69-1.98-21.88,.59-32.48,.77-3.51,1.54-8.39,1.92-11.97,4.04-37.66-3.67-76.68-24.42-108.66h0Z"/></g><g><path class="cls-1" d="M54.79,239.5c1.27,2,4.77,9.02,7.99,11.83,2.12,1.84,4.25,3.24,7.69,5.49,5.12,3.36,7.69,4.6,8.78,7.69,.14,.4,.87,2.46,0,3.29-.76,.73-1.93-.26-4.39,0-2.35,.25-2.57,1.3-4.39,1.1-1.37-.15-1.5-.76-3.29-1.1-1.23-.23-2.17-.13-3.29,0-3.22,.37-3.57,1.34-5.49,1.1-1.66-.21-1.62-.95-3.29-1.1-1.36-.12-1.94,.33-4.39,1.1-2.83,.89-4.25,1.33-5.49,1.1-2.44-.46-3.94-2.63-4.39-3.29-1.87-2.72-.7-4.23-2.2-6.59-1.92-3.03-4.63-1.77-6.59-4.39-2.98-4,.19-11.13,1.1-13.18,1.36-3.07,3.13-5.25,4.39-6.59"/><path d="M54.79,239.5c2.62,4,4.8,8.58,8.44,11.73,3.82,3,8.11,5.29,12.2,7.96,2.15,1.33,4.31,3.32,4.89,5.92,.27,1.05,.46,2.62-.65,3.48-1.09,.77-2.28,.12-3.28,.1-1.06-.08-2.14,.04-3.11,.49-.46,.21-1.18,.62-2.01,.68-.79,.06-1.54-.05-2.25-.36-2.56-1.42-5.47-.88-8.14,.05-1.26,.53-3.07,.53-4.33-.2-1.01-.62-1.72-.71-2.76-.45-2.87,.75-6.24,2.68-9.34,1.88-2.64-.87-4.57-3.24-5.41-5.78-.47-1.73-.23-3.49-1.4-4.9-.97-1.4-2.96-1.59-4.47-2.45-3.05-1.78-3.31-5.82-2.62-8.89,1.17-4.79,3.45-9.36,6.98-12.79-3.64,4.09-8.55,14.62-4.86,19.46,1.04,1.41,3.05,1.47,4.6,2.33,1.24,.68,2.15,1.83,2.67,3.14,.65,1.7,.39,3.62,1.46,5.04,1.13,1.73,2.85,3.41,5.02,3.13,2.28-.39,4.53-1.31,6.85-2.06,1.08-.32,2.27-.29,3.33,.13,.85,.39,1.33,.79,2.23,.8,1.62-.09,3.39-1.11,5.17-1.13,1.22-.16,2.67-.19,3.98,.19,1.23,.29,1.96,1.09,3.13,.97,.4-.01,.78-.21,1.42-.5,1.26-.56,2.68-.7,4.04-.57,.75,.05,1.53,.33,2.07,.28,.3-.38,.17-1.05,.04-1.66-.48-2.31-2.17-3.82-4.07-5.13l-6.02-4.11c-2-1.38-4.02-2.81-5.84-4.48-3.62-3.45-5.57-8.03-7.96-12.29h0Z"/></g></g></g></g></svg>